G04 #@! TF.GenerationSoftware,KiCad,Pcbnew,5.1.4+dfsg1-2*
G04 #@! TF.CreationDate,2019-12-30T19:47:55+08:00*
G04 #@! TF.ProjectId,usb2can,75736232-6361-46e2-9e6b-696361645f70,rev?*
G04 #@! TF.SameCoordinates,Original*
G04 #@! TF.FileFunction,Soldermask,Bot*
G04 #@! TF.FilePolarity,Negative*
%FSLAX46Y46*%
G04 Gerber Fmt 4.6, Leading zero omitted, Abs format (unit mm)*
G04 Created by KiCad (PCBNEW 5.1.4+dfsg1-2) date 2019-12-30 19:47:55*
%MOMM*%
%LPD*%
G04 APERTURE LIST*
%ADD10C,0.100000*%
G04 APERTURE END LIST*
D10*
G36*
X70849443Y-64637519D02*
G01*
X70915627Y-64644037D01*
X71085466Y-64695557D01*
X71241991Y-64779222D01*
X71277729Y-64808552D01*
X71379186Y-64891814D01*
X71462448Y-64993271D01*
X71491778Y-65029009D01*
X71575443Y-65185534D01*
X71626963Y-65355373D01*
X71644359Y-65532000D01*
X71626963Y-65708627D01*
X71575443Y-65878466D01*
X71491778Y-66034991D01*
X71462448Y-66070729D01*
X71379186Y-66172186D01*
X71277729Y-66255448D01*
X71241991Y-66284778D01*
X71085466Y-66368443D01*
X70915627Y-66419963D01*
X70849443Y-66426481D01*
X70783260Y-66433000D01*
X70694740Y-66433000D01*
X70628557Y-66426481D01*
X70562373Y-66419963D01*
X70392534Y-66368443D01*
X70236009Y-66284778D01*
X70200271Y-66255448D01*
X70098814Y-66172186D01*
X70015552Y-66070729D01*
X69986222Y-66034991D01*
X69902557Y-65878466D01*
X69851037Y-65708627D01*
X69833641Y-65532000D01*
X69851037Y-65355373D01*
X69902557Y-65185534D01*
X69986222Y-65029009D01*
X70015552Y-64993271D01*
X70098814Y-64891814D01*
X70200271Y-64808552D01*
X70236009Y-64779222D01*
X70392534Y-64695557D01*
X70562373Y-64644037D01*
X70628557Y-64637519D01*
X70694740Y-64631000D01*
X70783260Y-64631000D01*
X70849443Y-64637519D01*
X70849443Y-64637519D01*
G37*
G36*
X45449443Y-64637519D02*
G01*
X45515627Y-64644037D01*
X45685466Y-64695557D01*
X45841991Y-64779222D01*
X45877729Y-64808552D01*
X45979186Y-64891814D01*
X46062448Y-64993271D01*
X46091778Y-65029009D01*
X46175443Y-65185534D01*
X46226963Y-65355373D01*
X46244359Y-65532000D01*
X46226963Y-65708627D01*
X46175443Y-65878466D01*
X46091778Y-66034991D01*
X46062448Y-66070729D01*
X45979186Y-66172186D01*
X45877729Y-66255448D01*
X45841991Y-66284778D01*
X45685466Y-66368443D01*
X45515627Y-66419963D01*
X45449443Y-66426481D01*
X45383260Y-66433000D01*
X45294740Y-66433000D01*
X45228557Y-66426481D01*
X45162373Y-66419963D01*
X44992534Y-66368443D01*
X44836009Y-66284778D01*
X44800271Y-66255448D01*
X44698814Y-66172186D01*
X44615552Y-66070729D01*
X44586222Y-66034991D01*
X44502557Y-65878466D01*
X44451037Y-65708627D01*
X44433641Y-65532000D01*
X44451037Y-65355373D01*
X44502557Y-65185534D01*
X44586222Y-65029009D01*
X44615552Y-64993271D01*
X44698814Y-64891814D01*
X44800271Y-64808552D01*
X44836009Y-64779222D01*
X44992534Y-64695557D01*
X45162373Y-64644037D01*
X45228557Y-64637519D01*
X45294740Y-64631000D01*
X45383260Y-64631000D01*
X45449443Y-64637519D01*
X45449443Y-64637519D01*
G37*
G36*
X55609443Y-64637519D02*
G01*
X55675627Y-64644037D01*
X55845466Y-64695557D01*
X56001991Y-64779222D01*
X56037729Y-64808552D01*
X56139186Y-64891814D01*
X56222448Y-64993271D01*
X56251778Y-65029009D01*
X56335443Y-65185534D01*
X56386963Y-65355373D01*
X56404359Y-65532000D01*
X56386963Y-65708627D01*
X56335443Y-65878466D01*
X56251778Y-66034991D01*
X56222448Y-66070729D01*
X56139186Y-66172186D01*
X56037729Y-66255448D01*
X56001991Y-66284778D01*
X55845466Y-66368443D01*
X55675627Y-66419963D01*
X55609443Y-66426481D01*
X55543260Y-66433000D01*
X55454740Y-66433000D01*
X55388557Y-66426481D01*
X55322373Y-66419963D01*
X55152534Y-66368443D01*
X54996009Y-66284778D01*
X54960271Y-66255448D01*
X54858814Y-66172186D01*
X54775552Y-66070729D01*
X54746222Y-66034991D01*
X54662557Y-65878466D01*
X54611037Y-65708627D01*
X54593641Y-65532000D01*
X54611037Y-65355373D01*
X54662557Y-65185534D01*
X54746222Y-65029009D01*
X54775552Y-64993271D01*
X54858814Y-64891814D01*
X54960271Y-64808552D01*
X54996009Y-64779222D01*
X55152534Y-64695557D01*
X55322373Y-64644037D01*
X55388557Y-64637519D01*
X55454740Y-64631000D01*
X55543260Y-64631000D01*
X55609443Y-64637519D01*
X55609443Y-64637519D01*
G37*
G36*
X58149443Y-64637519D02*
G01*
X58215627Y-64644037D01*
X58385466Y-64695557D01*
X58541991Y-64779222D01*
X58577729Y-64808552D01*
X58679186Y-64891814D01*
X58762448Y-64993271D01*
X58791778Y-65029009D01*
X58875443Y-65185534D01*
X58926963Y-65355373D01*
X58944359Y-65532000D01*
X58926963Y-65708627D01*
X58875443Y-65878466D01*
X58791778Y-66034991D01*
X58762448Y-66070729D01*
X58679186Y-66172186D01*
X58577729Y-66255448D01*
X58541991Y-66284778D01*
X58385466Y-66368443D01*
X58215627Y-66419963D01*
X58149443Y-66426481D01*
X58083260Y-66433000D01*
X57994740Y-66433000D01*
X57928557Y-66426481D01*
X57862373Y-66419963D01*
X57692534Y-66368443D01*
X57536009Y-66284778D01*
X57500271Y-66255448D01*
X57398814Y-66172186D01*
X57315552Y-66070729D01*
X57286222Y-66034991D01*
X57202557Y-65878466D01*
X57151037Y-65708627D01*
X57133641Y-65532000D01*
X57151037Y-65355373D01*
X57202557Y-65185534D01*
X57286222Y-65029009D01*
X57315552Y-64993271D01*
X57398814Y-64891814D01*
X57500271Y-64808552D01*
X57536009Y-64779222D01*
X57692534Y-64695557D01*
X57862373Y-64644037D01*
X57928557Y-64637519D01*
X57994740Y-64631000D01*
X58083260Y-64631000D01*
X58149443Y-64637519D01*
X58149443Y-64637519D01*
G37*
G36*
X60689443Y-64637519D02*
G01*
X60755627Y-64644037D01*
X60925466Y-64695557D01*
X61081991Y-64779222D01*
X61117729Y-64808552D01*
X61219186Y-64891814D01*
X61302448Y-64993271D01*
X61331778Y-65029009D01*
X61415443Y-65185534D01*
X61466963Y-65355373D01*
X61484359Y-65532000D01*
X61466963Y-65708627D01*
X61415443Y-65878466D01*
X61331778Y-66034991D01*
X61302448Y-66070729D01*
X61219186Y-66172186D01*
X61117729Y-66255448D01*
X61081991Y-66284778D01*
X60925466Y-66368443D01*
X60755627Y-66419963D01*
X60689443Y-66426481D01*
X60623260Y-66433000D01*
X60534740Y-66433000D01*
X60468557Y-66426481D01*
X60402373Y-66419963D01*
X60232534Y-66368443D01*
X60076009Y-66284778D01*
X60040271Y-66255448D01*
X59938814Y-66172186D01*
X59855552Y-66070729D01*
X59826222Y-66034991D01*
X59742557Y-65878466D01*
X59691037Y-65708627D01*
X59673641Y-65532000D01*
X59691037Y-65355373D01*
X59742557Y-65185534D01*
X59826222Y-65029009D01*
X59855552Y-64993271D01*
X59938814Y-64891814D01*
X60040271Y-64808552D01*
X60076009Y-64779222D01*
X60232534Y-64695557D01*
X60402373Y-64644037D01*
X60468557Y-64637519D01*
X60534740Y-64631000D01*
X60623260Y-64631000D01*
X60689443Y-64637519D01*
X60689443Y-64637519D01*
G37*
G36*
X63229443Y-64637519D02*
G01*
X63295627Y-64644037D01*
X63465466Y-64695557D01*
X63621991Y-64779222D01*
X63657729Y-64808552D01*
X63759186Y-64891814D01*
X63842448Y-64993271D01*
X63871778Y-65029009D01*
X63955443Y-65185534D01*
X64006963Y-65355373D01*
X64024359Y-65532000D01*
X64006963Y-65708627D01*
X63955443Y-65878466D01*
X63871778Y-66034991D01*
X63842448Y-66070729D01*
X63759186Y-66172186D01*
X63657729Y-66255448D01*
X63621991Y-66284778D01*
X63465466Y-66368443D01*
X63295627Y-66419963D01*
X63229443Y-66426481D01*
X63163260Y-66433000D01*
X63074740Y-66433000D01*
X63008557Y-66426481D01*
X62942373Y-66419963D01*
X62772534Y-66368443D01*
X62616009Y-66284778D01*
X62580271Y-66255448D01*
X62478814Y-66172186D01*
X62395552Y-66070729D01*
X62366222Y-66034991D01*
X62282557Y-65878466D01*
X62231037Y-65708627D01*
X62213641Y-65532000D01*
X62231037Y-65355373D01*
X62282557Y-65185534D01*
X62366222Y-65029009D01*
X62395552Y-64993271D01*
X62478814Y-64891814D01*
X62580271Y-64808552D01*
X62616009Y-64779222D01*
X62772534Y-64695557D01*
X62942373Y-64644037D01*
X63008557Y-64637519D01*
X63074740Y-64631000D01*
X63163260Y-64631000D01*
X63229443Y-64637519D01*
X63229443Y-64637519D01*
G37*
G36*
X65769443Y-64637519D02*
G01*
X65835627Y-64644037D01*
X66005466Y-64695557D01*
X66161991Y-64779222D01*
X66197729Y-64808552D01*
X66299186Y-64891814D01*
X66382448Y-64993271D01*
X66411778Y-65029009D01*
X66495443Y-65185534D01*
X66546963Y-65355373D01*
X66564359Y-65532000D01*
X66546963Y-65708627D01*
X66495443Y-65878466D01*
X66411778Y-66034991D01*
X66382448Y-66070729D01*
X66299186Y-66172186D01*
X66197729Y-66255448D01*
X66161991Y-66284778D01*
X66005466Y-66368443D01*
X65835627Y-66419963D01*
X65769443Y-66426481D01*
X65703260Y-66433000D01*
X65614740Y-66433000D01*
X65548557Y-66426481D01*
X65482373Y-66419963D01*
X65312534Y-66368443D01*
X65156009Y-66284778D01*
X65120271Y-66255448D01*
X65018814Y-66172186D01*
X64935552Y-66070729D01*
X64906222Y-66034991D01*
X64822557Y-65878466D01*
X64771037Y-65708627D01*
X64753641Y-65532000D01*
X64771037Y-65355373D01*
X64822557Y-65185534D01*
X64906222Y-65029009D01*
X64935552Y-64993271D01*
X65018814Y-64891814D01*
X65120271Y-64808552D01*
X65156009Y-64779222D01*
X65312534Y-64695557D01*
X65482373Y-64644037D01*
X65548557Y-64637519D01*
X65614740Y-64631000D01*
X65703260Y-64631000D01*
X65769443Y-64637519D01*
X65769443Y-64637519D01*
G37*
G36*
X53069443Y-64637519D02*
G01*
X53135627Y-64644037D01*
X53305466Y-64695557D01*
X53461991Y-64779222D01*
X53497729Y-64808552D01*
X53599186Y-64891814D01*
X53682448Y-64993271D01*
X53711778Y-65029009D01*
X53795443Y-65185534D01*
X53846963Y-65355373D01*
X53864359Y-65532000D01*
X53846963Y-65708627D01*
X53795443Y-65878466D01*
X53711778Y-66034991D01*
X53682448Y-66070729D01*
X53599186Y-66172186D01*
X53497729Y-66255448D01*
X53461991Y-66284778D01*
X53305466Y-66368443D01*
X53135627Y-66419963D01*
X53069443Y-66426481D01*
X53003260Y-66433000D01*
X52914740Y-66433000D01*
X52848557Y-66426481D01*
X52782373Y-66419963D01*
X52612534Y-66368443D01*
X52456009Y-66284778D01*
X52420271Y-66255448D01*
X52318814Y-66172186D01*
X52235552Y-66070729D01*
X52206222Y-66034991D01*
X52122557Y-65878466D01*
X52071037Y-65708627D01*
X52053641Y-65532000D01*
X52071037Y-65355373D01*
X52122557Y-65185534D01*
X52206222Y-65029009D01*
X52235552Y-64993271D01*
X52318814Y-64891814D01*
X52420271Y-64808552D01*
X52456009Y-64779222D01*
X52612534Y-64695557D01*
X52782373Y-64644037D01*
X52848557Y-64637519D01*
X52914740Y-64631000D01*
X53003260Y-64631000D01*
X53069443Y-64637519D01*
X53069443Y-64637519D01*
G37*
G36*
X50529443Y-64637519D02*
G01*
X50595627Y-64644037D01*
X50765466Y-64695557D01*
X50921991Y-64779222D01*
X50957729Y-64808552D01*
X51059186Y-64891814D01*
X51142448Y-64993271D01*
X51171778Y-65029009D01*
X51255443Y-65185534D01*
X51306963Y-65355373D01*
X51324359Y-65532000D01*
X51306963Y-65708627D01*
X51255443Y-65878466D01*
X51171778Y-66034991D01*
X51142448Y-66070729D01*
X51059186Y-66172186D01*
X50957729Y-66255448D01*
X50921991Y-66284778D01*
X50765466Y-66368443D01*
X50595627Y-66419963D01*
X50529443Y-66426481D01*
X50463260Y-66433000D01*
X50374740Y-66433000D01*
X50308557Y-66426481D01*
X50242373Y-66419963D01*
X50072534Y-66368443D01*
X49916009Y-66284778D01*
X49880271Y-66255448D01*
X49778814Y-66172186D01*
X49695552Y-66070729D01*
X49666222Y-66034991D01*
X49582557Y-65878466D01*
X49531037Y-65708627D01*
X49513641Y-65532000D01*
X49531037Y-65355373D01*
X49582557Y-65185534D01*
X49666222Y-65029009D01*
X49695552Y-64993271D01*
X49778814Y-64891814D01*
X49880271Y-64808552D01*
X49916009Y-64779222D01*
X50072534Y-64695557D01*
X50242373Y-64644037D01*
X50308557Y-64637519D01*
X50374740Y-64631000D01*
X50463260Y-64631000D01*
X50529443Y-64637519D01*
X50529443Y-64637519D01*
G37*
G36*
X47989443Y-64637519D02*
G01*
X48055627Y-64644037D01*
X48225466Y-64695557D01*
X48381991Y-64779222D01*
X48417729Y-64808552D01*
X48519186Y-64891814D01*
X48602448Y-64993271D01*
X48631778Y-65029009D01*
X48715443Y-65185534D01*
X48766963Y-65355373D01*
X48784359Y-65532000D01*
X48766963Y-65708627D01*
X48715443Y-65878466D01*
X48631778Y-66034991D01*
X48602448Y-66070729D01*
X48519186Y-66172186D01*
X48417729Y-66255448D01*
X48381991Y-66284778D01*
X48225466Y-66368443D01*
X48055627Y-66419963D01*
X47989443Y-66426481D01*
X47923260Y-66433000D01*
X47834740Y-66433000D01*
X47768557Y-66426481D01*
X47702373Y-66419963D01*
X47532534Y-66368443D01*
X47376009Y-66284778D01*
X47340271Y-66255448D01*
X47238814Y-66172186D01*
X47155552Y-66070729D01*
X47126222Y-66034991D01*
X47042557Y-65878466D01*
X46991037Y-65708627D01*
X46973641Y-65532000D01*
X46991037Y-65355373D01*
X47042557Y-65185534D01*
X47126222Y-65029009D01*
X47155552Y-64993271D01*
X47238814Y-64891814D01*
X47340271Y-64808552D01*
X47376009Y-64779222D01*
X47532534Y-64695557D01*
X47702373Y-64644037D01*
X47768557Y-64637519D01*
X47834740Y-64631000D01*
X47923260Y-64631000D01*
X47989443Y-64637519D01*
X47989443Y-64637519D01*
G37*
G36*
X68309443Y-64637519D02*
G01*
X68375627Y-64644037D01*
X68545466Y-64695557D01*
X68701991Y-64779222D01*
X68737729Y-64808552D01*
X68839186Y-64891814D01*
X68922448Y-64993271D01*
X68951778Y-65029009D01*
X69035443Y-65185534D01*
X69086963Y-65355373D01*
X69104359Y-65532000D01*
X69086963Y-65708627D01*
X69035443Y-65878466D01*
X68951778Y-66034991D01*
X68922448Y-66070729D01*
X68839186Y-66172186D01*
X68737729Y-66255448D01*
X68701991Y-66284778D01*
X68545466Y-66368443D01*
X68375627Y-66419963D01*
X68309443Y-66426481D01*
X68243260Y-66433000D01*
X68154740Y-66433000D01*
X68088557Y-66426481D01*
X68022373Y-66419963D01*
X67852534Y-66368443D01*
X67696009Y-66284778D01*
X67660271Y-66255448D01*
X67558814Y-66172186D01*
X67475552Y-66070729D01*
X67446222Y-66034991D01*
X67362557Y-65878466D01*
X67311037Y-65708627D01*
X67293641Y-65532000D01*
X67311037Y-65355373D01*
X67362557Y-65185534D01*
X67446222Y-65029009D01*
X67475552Y-64993271D01*
X67558814Y-64891814D01*
X67660271Y-64808552D01*
X67696009Y-64779222D01*
X67852534Y-64695557D01*
X68022373Y-64644037D01*
X68088557Y-64637519D01*
X68154740Y-64631000D01*
X68243260Y-64631000D01*
X68309443Y-64637519D01*
X68309443Y-64637519D01*
G37*
G36*
X42909443Y-64637519D02*
G01*
X42975627Y-64644037D01*
X43145466Y-64695557D01*
X43301991Y-64779222D01*
X43337729Y-64808552D01*
X43439186Y-64891814D01*
X43522448Y-64993271D01*
X43551778Y-65029009D01*
X43635443Y-65185534D01*
X43686963Y-65355373D01*
X43704359Y-65532000D01*
X43686963Y-65708627D01*
X43635443Y-65878466D01*
X43551778Y-66034991D01*
X43522448Y-66070729D01*
X43439186Y-66172186D01*
X43337729Y-66255448D01*
X43301991Y-66284778D01*
X43145466Y-66368443D01*
X42975627Y-66419963D01*
X42909443Y-66426481D01*
X42843260Y-66433000D01*
X42754740Y-66433000D01*
X42688557Y-66426481D01*
X42622373Y-66419963D01*
X42452534Y-66368443D01*
X42296009Y-66284778D01*
X42260271Y-66255448D01*
X42158814Y-66172186D01*
X42075552Y-66070729D01*
X42046222Y-66034991D01*
X41962557Y-65878466D01*
X41911037Y-65708627D01*
X41893641Y-65532000D01*
X41911037Y-65355373D01*
X41962557Y-65185534D01*
X42046222Y-65029009D01*
X42075552Y-64993271D01*
X42158814Y-64891814D01*
X42260271Y-64808552D01*
X42296009Y-64779222D01*
X42452534Y-64695557D01*
X42622373Y-64644037D01*
X42688557Y-64637519D01*
X42754740Y-64631000D01*
X42843260Y-64631000D01*
X42909443Y-64637519D01*
X42909443Y-64637519D01*
G37*
G36*
X40369443Y-64637519D02*
G01*
X40435627Y-64644037D01*
X40605466Y-64695557D01*
X40761991Y-64779222D01*
X40797729Y-64808552D01*
X40899186Y-64891814D01*
X40982448Y-64993271D01*
X41011778Y-65029009D01*
X41095443Y-65185534D01*
X41146963Y-65355373D01*
X41164359Y-65532000D01*
X41146963Y-65708627D01*
X41095443Y-65878466D01*
X41011778Y-66034991D01*
X40982448Y-66070729D01*
X40899186Y-66172186D01*
X40797729Y-66255448D01*
X40761991Y-66284778D01*
X40605466Y-66368443D01*
X40435627Y-66419963D01*
X40369443Y-66426481D01*
X40303260Y-66433000D01*
X40214740Y-66433000D01*
X40148557Y-66426481D01*
X40082373Y-66419963D01*
X39912534Y-66368443D01*
X39756009Y-66284778D01*
X39720271Y-66255448D01*
X39618814Y-66172186D01*
X39535552Y-66070729D01*
X39506222Y-66034991D01*
X39422557Y-65878466D01*
X39371037Y-65708627D01*
X39353641Y-65532000D01*
X39371037Y-65355373D01*
X39422557Y-65185534D01*
X39506222Y-65029009D01*
X39535552Y-64993271D01*
X39618814Y-64891814D01*
X39720271Y-64808552D01*
X39756009Y-64779222D01*
X39912534Y-64695557D01*
X40082373Y-64644037D01*
X40148557Y-64637519D01*
X40214740Y-64631000D01*
X40303260Y-64631000D01*
X40369443Y-64637519D01*
X40369443Y-64637519D01*
G37*
G36*
X37829443Y-64637519D02*
G01*
X37895627Y-64644037D01*
X38065466Y-64695557D01*
X38221991Y-64779222D01*
X38257729Y-64808552D01*
X38359186Y-64891814D01*
X38442448Y-64993271D01*
X38471778Y-65029009D01*
X38555443Y-65185534D01*
X38606963Y-65355373D01*
X38624359Y-65532000D01*
X38606963Y-65708627D01*
X38555443Y-65878466D01*
X38471778Y-66034991D01*
X38442448Y-66070729D01*
X38359186Y-66172186D01*
X38257729Y-66255448D01*
X38221991Y-66284778D01*
X38065466Y-66368443D01*
X37895627Y-66419963D01*
X37829443Y-66426481D01*
X37763260Y-66433000D01*
X37674740Y-66433000D01*
X37608557Y-66426481D01*
X37542373Y-66419963D01*
X37372534Y-66368443D01*
X37216009Y-66284778D01*
X37180271Y-66255448D01*
X37078814Y-66172186D01*
X36995552Y-66070729D01*
X36966222Y-66034991D01*
X36882557Y-65878466D01*
X36831037Y-65708627D01*
X36813641Y-65532000D01*
X36831037Y-65355373D01*
X36882557Y-65185534D01*
X36966222Y-65029009D01*
X36995552Y-64993271D01*
X37078814Y-64891814D01*
X37180271Y-64808552D01*
X37216009Y-64779222D01*
X37372534Y-64695557D01*
X37542373Y-64644037D01*
X37608557Y-64637519D01*
X37674740Y-64631000D01*
X37763260Y-64631000D01*
X37829443Y-64637519D01*
X37829443Y-64637519D01*
G37*
G36*
X35289443Y-64637519D02*
G01*
X35355627Y-64644037D01*
X35525466Y-64695557D01*
X35681991Y-64779222D01*
X35717729Y-64808552D01*
X35819186Y-64891814D01*
X35902448Y-64993271D01*
X35931778Y-65029009D01*
X36015443Y-65185534D01*
X36066963Y-65355373D01*
X36084359Y-65532000D01*
X36066963Y-65708627D01*
X36015443Y-65878466D01*
X35931778Y-66034991D01*
X35902448Y-66070729D01*
X35819186Y-66172186D01*
X35717729Y-66255448D01*
X35681991Y-66284778D01*
X35525466Y-66368443D01*
X35355627Y-66419963D01*
X35289443Y-66426481D01*
X35223260Y-66433000D01*
X35134740Y-66433000D01*
X35068557Y-66426481D01*
X35002373Y-66419963D01*
X34832534Y-66368443D01*
X34676009Y-66284778D01*
X34640271Y-66255448D01*
X34538814Y-66172186D01*
X34455552Y-66070729D01*
X34426222Y-66034991D01*
X34342557Y-65878466D01*
X34291037Y-65708627D01*
X34273641Y-65532000D01*
X34291037Y-65355373D01*
X34342557Y-65185534D01*
X34426222Y-65029009D01*
X34455552Y-64993271D01*
X34538814Y-64891814D01*
X34640271Y-64808552D01*
X34676009Y-64779222D01*
X34832534Y-64695557D01*
X35002373Y-64644037D01*
X35068557Y-64637519D01*
X35134740Y-64631000D01*
X35223260Y-64631000D01*
X35289443Y-64637519D01*
X35289443Y-64637519D01*
G37*
G36*
X32749443Y-64637519D02*
G01*
X32815627Y-64644037D01*
X32985466Y-64695557D01*
X33141991Y-64779222D01*
X33177729Y-64808552D01*
X33279186Y-64891814D01*
X33362448Y-64993271D01*
X33391778Y-65029009D01*
X33475443Y-65185534D01*
X33526963Y-65355373D01*
X33544359Y-65532000D01*
X33526963Y-65708627D01*
X33475443Y-65878466D01*
X33391778Y-66034991D01*
X33362448Y-66070729D01*
X33279186Y-66172186D01*
X33177729Y-66255448D01*
X33141991Y-66284778D01*
X32985466Y-66368443D01*
X32815627Y-66419963D01*
X32749443Y-66426481D01*
X32683260Y-66433000D01*
X32594740Y-66433000D01*
X32528557Y-66426481D01*
X32462373Y-66419963D01*
X32292534Y-66368443D01*
X32136009Y-66284778D01*
X32100271Y-66255448D01*
X31998814Y-66172186D01*
X31915552Y-66070729D01*
X31886222Y-66034991D01*
X31802557Y-65878466D01*
X31751037Y-65708627D01*
X31733641Y-65532000D01*
X31751037Y-65355373D01*
X31802557Y-65185534D01*
X31886222Y-65029009D01*
X31915552Y-64993271D01*
X31998814Y-64891814D01*
X32100271Y-64808552D01*
X32136009Y-64779222D01*
X32292534Y-64695557D01*
X32462373Y-64644037D01*
X32528557Y-64637519D01*
X32594740Y-64631000D01*
X32683260Y-64631000D01*
X32749443Y-64637519D01*
X32749443Y-64637519D01*
G37*
G36*
X30209443Y-64637519D02*
G01*
X30275627Y-64644037D01*
X30445466Y-64695557D01*
X30601991Y-64779222D01*
X30637729Y-64808552D01*
X30739186Y-64891814D01*
X30822448Y-64993271D01*
X30851778Y-65029009D01*
X30935443Y-65185534D01*
X30986963Y-65355373D01*
X31004359Y-65532000D01*
X30986963Y-65708627D01*
X30935443Y-65878466D01*
X30851778Y-66034991D01*
X30822448Y-66070729D01*
X30739186Y-66172186D01*
X30637729Y-66255448D01*
X30601991Y-66284778D01*
X30445466Y-66368443D01*
X30275627Y-66419963D01*
X30209443Y-66426481D01*
X30143260Y-66433000D01*
X30054740Y-66433000D01*
X29988557Y-66426481D01*
X29922373Y-66419963D01*
X29752534Y-66368443D01*
X29596009Y-66284778D01*
X29560271Y-66255448D01*
X29458814Y-66172186D01*
X29375552Y-66070729D01*
X29346222Y-66034991D01*
X29262557Y-65878466D01*
X29211037Y-65708627D01*
X29193641Y-65532000D01*
X29211037Y-65355373D01*
X29262557Y-65185534D01*
X29346222Y-65029009D01*
X29375552Y-64993271D01*
X29458814Y-64891814D01*
X29560271Y-64808552D01*
X29596009Y-64779222D01*
X29752534Y-64695557D01*
X29922373Y-64644037D01*
X29988557Y-64637519D01*
X30054740Y-64631000D01*
X30143260Y-64631000D01*
X30209443Y-64637519D01*
X30209443Y-64637519D01*
G37*
G36*
X27669443Y-64637519D02*
G01*
X27735627Y-64644037D01*
X27905466Y-64695557D01*
X28061991Y-64779222D01*
X28097729Y-64808552D01*
X28199186Y-64891814D01*
X28282448Y-64993271D01*
X28311778Y-65029009D01*
X28395443Y-65185534D01*
X28446963Y-65355373D01*
X28464359Y-65532000D01*
X28446963Y-65708627D01*
X28395443Y-65878466D01*
X28311778Y-66034991D01*
X28282448Y-66070729D01*
X28199186Y-66172186D01*
X28097729Y-66255448D01*
X28061991Y-66284778D01*
X27905466Y-66368443D01*
X27735627Y-66419963D01*
X27669443Y-66426481D01*
X27603260Y-66433000D01*
X27514740Y-66433000D01*
X27448557Y-66426481D01*
X27382373Y-66419963D01*
X27212534Y-66368443D01*
X27056009Y-66284778D01*
X27020271Y-66255448D01*
X26918814Y-66172186D01*
X26835552Y-66070729D01*
X26806222Y-66034991D01*
X26722557Y-65878466D01*
X26671037Y-65708627D01*
X26653641Y-65532000D01*
X26671037Y-65355373D01*
X26722557Y-65185534D01*
X26806222Y-65029009D01*
X26835552Y-64993271D01*
X26918814Y-64891814D01*
X27020271Y-64808552D01*
X27056009Y-64779222D01*
X27212534Y-64695557D01*
X27382373Y-64644037D01*
X27448557Y-64637519D01*
X27514740Y-64631000D01*
X27603260Y-64631000D01*
X27669443Y-64637519D01*
X27669443Y-64637519D01*
G37*
G36*
X25129443Y-64637519D02*
G01*
X25195627Y-64644037D01*
X25365466Y-64695557D01*
X25521991Y-64779222D01*
X25557729Y-64808552D01*
X25659186Y-64891814D01*
X25742448Y-64993271D01*
X25771778Y-65029009D01*
X25855443Y-65185534D01*
X25906963Y-65355373D01*
X25924359Y-65532000D01*
X25906963Y-65708627D01*
X25855443Y-65878466D01*
X25771778Y-66034991D01*
X25742448Y-66070729D01*
X25659186Y-66172186D01*
X25557729Y-66255448D01*
X25521991Y-66284778D01*
X25365466Y-66368443D01*
X25195627Y-66419963D01*
X25129443Y-66426481D01*
X25063260Y-66433000D01*
X24974740Y-66433000D01*
X24908557Y-66426481D01*
X24842373Y-66419963D01*
X24672534Y-66368443D01*
X24516009Y-66284778D01*
X24480271Y-66255448D01*
X24378814Y-66172186D01*
X24295552Y-66070729D01*
X24266222Y-66034991D01*
X24182557Y-65878466D01*
X24131037Y-65708627D01*
X24113641Y-65532000D01*
X24131037Y-65355373D01*
X24182557Y-65185534D01*
X24266222Y-65029009D01*
X24295552Y-64993271D01*
X24378814Y-64891814D01*
X24480271Y-64808552D01*
X24516009Y-64779222D01*
X24672534Y-64695557D01*
X24842373Y-64644037D01*
X24908557Y-64637519D01*
X24974740Y-64631000D01*
X25063260Y-64631000D01*
X25129443Y-64637519D01*
X25129443Y-64637519D01*
G37*
G36*
X23380000Y-66433000D02*
G01*
X21578000Y-66433000D01*
X21578000Y-64631000D01*
X23380000Y-64631000D01*
X23380000Y-66433000D01*
X23380000Y-66433000D01*
G37*
G36*
X32876442Y-60573518D02*
G01*
X32942627Y-60580037D01*
X33112466Y-60631557D01*
X33268991Y-60715222D01*
X33304729Y-60744552D01*
X33406186Y-60827814D01*
X33489448Y-60929271D01*
X33518778Y-60965009D01*
X33602443Y-61121534D01*
X33653963Y-61291373D01*
X33671359Y-61468000D01*
X33653963Y-61644627D01*
X33602443Y-61814466D01*
X33518778Y-61970991D01*
X33489448Y-62006729D01*
X33406186Y-62108186D01*
X33304729Y-62191448D01*
X33268991Y-62220778D01*
X33112466Y-62304443D01*
X32942627Y-62355963D01*
X32876442Y-62362482D01*
X32810260Y-62369000D01*
X32721740Y-62369000D01*
X32655558Y-62362482D01*
X32589373Y-62355963D01*
X32419534Y-62304443D01*
X32263009Y-62220778D01*
X32227271Y-62191448D01*
X32125814Y-62108186D01*
X32042552Y-62006729D01*
X32013222Y-61970991D01*
X31929557Y-61814466D01*
X31878037Y-61644627D01*
X31860641Y-61468000D01*
X31878037Y-61291373D01*
X31929557Y-61121534D01*
X32013222Y-60965009D01*
X32042552Y-60929271D01*
X32125814Y-60827814D01*
X32227271Y-60744552D01*
X32263009Y-60715222D01*
X32419534Y-60631557D01*
X32589373Y-60580037D01*
X32655558Y-60573518D01*
X32721740Y-60567000D01*
X32810260Y-60567000D01*
X32876442Y-60573518D01*
X32876442Y-60573518D01*
G37*
G36*
X27796442Y-60573518D02*
G01*
X27862627Y-60580037D01*
X28032466Y-60631557D01*
X28188991Y-60715222D01*
X28224729Y-60744552D01*
X28326186Y-60827814D01*
X28409448Y-60929271D01*
X28438778Y-60965009D01*
X28522443Y-61121534D01*
X28573963Y-61291373D01*
X28591359Y-61468000D01*
X28573963Y-61644627D01*
X28522443Y-61814466D01*
X28438778Y-61970991D01*
X28409448Y-62006729D01*
X28326186Y-62108186D01*
X28224729Y-62191448D01*
X28188991Y-62220778D01*
X28032466Y-62304443D01*
X27862627Y-62355963D01*
X27796442Y-62362482D01*
X27730260Y-62369000D01*
X27641740Y-62369000D01*
X27575558Y-62362482D01*
X27509373Y-62355963D01*
X27339534Y-62304443D01*
X27183009Y-62220778D01*
X27147271Y-62191448D01*
X27045814Y-62108186D01*
X26962552Y-62006729D01*
X26933222Y-61970991D01*
X26849557Y-61814466D01*
X26798037Y-61644627D01*
X26780641Y-61468000D01*
X26798037Y-61291373D01*
X26849557Y-61121534D01*
X26933222Y-60965009D01*
X26962552Y-60929271D01*
X27045814Y-60827814D01*
X27147271Y-60744552D01*
X27183009Y-60715222D01*
X27339534Y-60631557D01*
X27509373Y-60580037D01*
X27575558Y-60573518D01*
X27641740Y-60567000D01*
X27730260Y-60567000D01*
X27796442Y-60573518D01*
X27796442Y-60573518D01*
G37*
G36*
X30336442Y-60573518D02*
G01*
X30402627Y-60580037D01*
X30572466Y-60631557D01*
X30728991Y-60715222D01*
X30764729Y-60744552D01*
X30866186Y-60827814D01*
X30949448Y-60929271D01*
X30978778Y-60965009D01*
X31062443Y-61121534D01*
X31113963Y-61291373D01*
X31131359Y-61468000D01*
X31113963Y-61644627D01*
X31062443Y-61814466D01*
X30978778Y-61970991D01*
X30949448Y-62006729D01*
X30866186Y-62108186D01*
X30764729Y-62191448D01*
X30728991Y-62220778D01*
X30572466Y-62304443D01*
X30402627Y-62355963D01*
X30336442Y-62362482D01*
X30270260Y-62369000D01*
X30181740Y-62369000D01*
X30115558Y-62362482D01*
X30049373Y-62355963D01*
X29879534Y-62304443D01*
X29723009Y-62220778D01*
X29687271Y-62191448D01*
X29585814Y-62108186D01*
X29502552Y-62006729D01*
X29473222Y-61970991D01*
X29389557Y-61814466D01*
X29338037Y-61644627D01*
X29320641Y-61468000D01*
X29338037Y-61291373D01*
X29389557Y-61121534D01*
X29473222Y-60965009D01*
X29502552Y-60929271D01*
X29585814Y-60827814D01*
X29687271Y-60744552D01*
X29723009Y-60715222D01*
X29879534Y-60631557D01*
X30049373Y-60580037D01*
X30115558Y-60573518D01*
X30181740Y-60567000D01*
X30270260Y-60567000D01*
X30336442Y-60573518D01*
X30336442Y-60573518D01*
G37*
G36*
X26047000Y-62369000D02*
G01*
X24245000Y-62369000D01*
X24245000Y-60567000D01*
X26047000Y-60567000D01*
X26047000Y-62369000D01*
X26047000Y-62369000D01*
G37*
G36*
X22627715Y-57868058D02*
G01*
X22723753Y-57897191D01*
X22738935Y-57901796D01*
X22745722Y-57903855D01*
X22854468Y-57961981D01*
X22949790Y-58040210D01*
X23028019Y-58135532D01*
X23086145Y-58244278D01*
X23121942Y-58362285D01*
X23134028Y-58485000D01*
X23121942Y-58607715D01*
X23086145Y-58725722D01*
X23028019Y-58834468D01*
X22949790Y-58929790D01*
X22854468Y-59008019D01*
X22745722Y-59066145D01*
X22627715Y-59101942D01*
X22535746Y-59111000D01*
X21824254Y-59111000D01*
X21732285Y-59101942D01*
X21614278Y-59066145D01*
X21505532Y-59008019D01*
X21410210Y-58929790D01*
X21331981Y-58834468D01*
X21273855Y-58725722D01*
X21238058Y-58607715D01*
X21225972Y-58485000D01*
X21238058Y-58362285D01*
X21273855Y-58244278D01*
X21331981Y-58135532D01*
X21410210Y-58040210D01*
X21505532Y-57961981D01*
X21614278Y-57903855D01*
X21621066Y-57901796D01*
X21636247Y-57897191D01*
X21732285Y-57868058D01*
X21824254Y-57859000D01*
X22535746Y-57859000D01*
X22627715Y-57868058D01*
X22627715Y-57868058D01*
G37*
G36*
X25018410Y-56665525D02*
G01*
X25103426Y-56691314D01*
X25181775Y-56733193D01*
X25250449Y-56789551D01*
X25306807Y-56858225D01*
X25348686Y-56936574D01*
X25374475Y-57021590D01*
X25383182Y-57110000D01*
X25374475Y-57198410D01*
X25348686Y-57283426D01*
X25306807Y-57361775D01*
X25257851Y-57421428D01*
X25244238Y-57441802D01*
X25234860Y-57464441D01*
X25230080Y-57488474D01*
X25230080Y-57512978D01*
X25234861Y-57537012D01*
X25244238Y-57559650D01*
X25257852Y-57580025D01*
X25275179Y-57597352D01*
X25295553Y-57610965D01*
X25318192Y-57620343D01*
X25342225Y-57625123D01*
X25366729Y-57625123D01*
X25390763Y-57620342D01*
X25399216Y-57616841D01*
X25552879Y-57570228D01*
X25666882Y-57559000D01*
X26293118Y-57559000D01*
X26407121Y-57570228D01*
X26533319Y-57608510D01*
X26541413Y-57610965D01*
X26553402Y-57614602D01*
X26688204Y-57686655D01*
X26688207Y-57686657D01*
X26688208Y-57686658D01*
X26806369Y-57783631D01*
X26836217Y-57820000D01*
X26903345Y-57901796D01*
X26975398Y-58036598D01*
X27019772Y-58182879D01*
X27034754Y-58335000D01*
X27019772Y-58487121D01*
X26975398Y-58633402D01*
X26903345Y-58768204D01*
X26903343Y-58768207D01*
X26903342Y-58768208D01*
X26806369Y-58886369D01*
X26688204Y-58983345D01*
X26553402Y-59055398D01*
X26407121Y-59099772D01*
X26293118Y-59111000D01*
X25666882Y-59111000D01*
X25552879Y-59099772D01*
X25406598Y-59055398D01*
X25271796Y-58983345D01*
X25153631Y-58886369D01*
X25056658Y-58768208D01*
X25056657Y-58768207D01*
X25056655Y-58768204D01*
X24984602Y-58633402D01*
X24940228Y-58487121D01*
X24925246Y-58335000D01*
X24940228Y-58182879D01*
X24984602Y-58036598D01*
X25056655Y-57901796D01*
X25091777Y-57859000D01*
X25153631Y-57783631D01*
X25163272Y-57775719D01*
X25190105Y-57753697D01*
X25207432Y-57736370D01*
X25221046Y-57715996D01*
X25230423Y-57693357D01*
X25235204Y-57669324D01*
X25235204Y-57644820D01*
X25230424Y-57620787D01*
X25221047Y-57598148D01*
X25207433Y-57577773D01*
X25190106Y-57560446D01*
X25169732Y-57546832D01*
X25147093Y-57537455D01*
X25123060Y-57532674D01*
X25098556Y-57532674D01*
X25074523Y-57537454D01*
X25018412Y-57554475D01*
X24952158Y-57561000D01*
X24907842Y-57561000D01*
X24841590Y-57554475D01*
X24756574Y-57528686D01*
X24678225Y-57486807D01*
X24609551Y-57430449D01*
X24553193Y-57361775D01*
X24511314Y-57283426D01*
X24485525Y-57198410D01*
X24476818Y-57110000D01*
X24485525Y-57021590D01*
X24511314Y-56936574D01*
X24553193Y-56858225D01*
X24609551Y-56789551D01*
X24678225Y-56733193D01*
X24756574Y-56691314D01*
X24841590Y-56665525D01*
X24907842Y-56659000D01*
X24952158Y-56659000D01*
X25018410Y-56665525D01*
X25018410Y-56665525D01*
G37*
G36*
X70929852Y-55721840D02*
G01*
X70961443Y-55731423D01*
X70990557Y-55746985D01*
X71016074Y-55767926D01*
X71037015Y-55793443D01*
X71052577Y-55822557D01*
X71062160Y-55854148D01*
X71066000Y-55893140D01*
X71066000Y-57644860D01*
X71062160Y-57683852D01*
X71052577Y-57715443D01*
X71037015Y-57744557D01*
X71016074Y-57770074D01*
X70990557Y-57791015D01*
X70961443Y-57806577D01*
X70929852Y-57816160D01*
X70890860Y-57820000D01*
X67539140Y-57820000D01*
X67500148Y-57816160D01*
X67468557Y-57806577D01*
X67439443Y-57791015D01*
X67413926Y-57770074D01*
X67392985Y-57744557D01*
X67377423Y-57715443D01*
X67367840Y-57683852D01*
X67364000Y-57644860D01*
X67364000Y-55893140D01*
X67367840Y-55854148D01*
X67377423Y-55822557D01*
X67392985Y-55793443D01*
X67413926Y-55767926D01*
X67439443Y-55746985D01*
X67468557Y-55731423D01*
X67500148Y-55721840D01*
X67539140Y-55718000D01*
X70890860Y-55718000D01*
X70929852Y-55721840D01*
X70929852Y-55721840D01*
G37*
G36*
X70118097Y-50723069D02*
G01*
X70221032Y-50733207D01*
X70419146Y-50793305D01*
X70419149Y-50793306D01*
X70515975Y-50845061D01*
X70601729Y-50890897D01*
X70761765Y-51022235D01*
X70893103Y-51182271D01*
X70933590Y-51258018D01*
X70990694Y-51364851D01*
X70990695Y-51364854D01*
X71050793Y-51562968D01*
X71071085Y-51769000D01*
X71050793Y-51975032D01*
X71009850Y-52110000D01*
X70990694Y-52173149D01*
X70977191Y-52198411D01*
X70893103Y-52355729D01*
X70761765Y-52515765D01*
X70601729Y-52647103D01*
X70515975Y-52692939D01*
X70419149Y-52744694D01*
X70419146Y-52744695D01*
X70221032Y-52804793D01*
X70118097Y-52814931D01*
X70066631Y-52820000D01*
X68363369Y-52820000D01*
X68311903Y-52814931D01*
X68208968Y-52804793D01*
X68010854Y-52744695D01*
X68010851Y-52744694D01*
X67914025Y-52692939D01*
X67828271Y-52647103D01*
X67668235Y-52515765D01*
X67536897Y-52355729D01*
X67452809Y-52198411D01*
X67439306Y-52173149D01*
X67420150Y-52110000D01*
X67379207Y-51975032D01*
X67358915Y-51769000D01*
X67379207Y-51562968D01*
X67439305Y-51364854D01*
X67439306Y-51364851D01*
X67496410Y-51258018D01*
X67536897Y-51182271D01*
X67668235Y-51022235D01*
X67828271Y-50890897D01*
X67914025Y-50845061D01*
X68010851Y-50793306D01*
X68010854Y-50793305D01*
X68208968Y-50733207D01*
X68311903Y-50723069D01*
X68363369Y-50718000D01*
X70066631Y-50718000D01*
X70118097Y-50723069D01*
X70118097Y-50723069D01*
G37*
G36*
X26407121Y-50120228D02*
G01*
X26553402Y-50164602D01*
X26688204Y-50236655D01*
X26688207Y-50236657D01*
X26688208Y-50236658D01*
X26806369Y-50333631D01*
X26848963Y-50385531D01*
X26903345Y-50451796D01*
X26975398Y-50586598D01*
X27019772Y-50732879D01*
X27034754Y-50885000D01*
X27019772Y-51037121D01*
X26975398Y-51183402D01*
X26903345Y-51318204D01*
X26903343Y-51318207D01*
X26903342Y-51318208D01*
X26806369Y-51436369D01*
X26696371Y-51526643D01*
X26688204Y-51533345D01*
X26553402Y-51605398D01*
X26407121Y-51649772D01*
X26293118Y-51661000D01*
X25666882Y-51661000D01*
X25552879Y-51649772D01*
X25399210Y-51603157D01*
X25390751Y-51599654D01*
X25366717Y-51594876D01*
X25342213Y-51594878D01*
X25318180Y-51599661D01*
X25295542Y-51609041D01*
X25275169Y-51622656D01*
X25257844Y-51639985D01*
X25244232Y-51660361D01*
X25234857Y-51683000D01*
X25230079Y-51707034D01*
X25230081Y-51731538D01*
X25234864Y-51755571D01*
X25244244Y-51778209D01*
X25257851Y-51798572D01*
X25306807Y-51858225D01*
X25348686Y-51936574D01*
X25374475Y-52021590D01*
X25383182Y-52110000D01*
X25374475Y-52198410D01*
X25348686Y-52283426D01*
X25306807Y-52361775D01*
X25250449Y-52430449D01*
X25181775Y-52486807D01*
X25103426Y-52528686D01*
X25018410Y-52554475D01*
X24952158Y-52561000D01*
X24907842Y-52561000D01*
X24841590Y-52554475D01*
X24756574Y-52528686D01*
X24678225Y-52486807D01*
X24609551Y-52430449D01*
X24553193Y-52361775D01*
X24511314Y-52283426D01*
X24485525Y-52198410D01*
X24476818Y-52110000D01*
X24485525Y-52021590D01*
X24511314Y-51936574D01*
X24553193Y-51858225D01*
X24609551Y-51789551D01*
X24678225Y-51733193D01*
X24756574Y-51691314D01*
X24841590Y-51665525D01*
X24907842Y-51659000D01*
X24952158Y-51659000D01*
X25018412Y-51665525D01*
X25074523Y-51682546D01*
X25098556Y-51687326D01*
X25123060Y-51687326D01*
X25147093Y-51682545D01*
X25169732Y-51673168D01*
X25190106Y-51659554D01*
X25207433Y-51642227D01*
X25221047Y-51621852D01*
X25230424Y-51599213D01*
X25235204Y-51575180D01*
X25235204Y-51550676D01*
X25230423Y-51526643D01*
X25221046Y-51504004D01*
X25207432Y-51483630D01*
X25190105Y-51466303D01*
X25153633Y-51436371D01*
X25094938Y-51364851D01*
X25056658Y-51318208D01*
X25056657Y-51318207D01*
X25056655Y-51318204D01*
X24984602Y-51183402D01*
X24940228Y-51037121D01*
X24925246Y-50885000D01*
X24940228Y-50732879D01*
X24984602Y-50586598D01*
X25056655Y-50451796D01*
X25111038Y-50385531D01*
X25153631Y-50333631D01*
X25271792Y-50236658D01*
X25271793Y-50236657D01*
X25271796Y-50236655D01*
X25406598Y-50164602D01*
X25552879Y-50120228D01*
X25666882Y-50109000D01*
X26293118Y-50109000D01*
X26407121Y-50120228D01*
X26407121Y-50120228D01*
G37*
G36*
X22627715Y-50118058D02*
G01*
X22745722Y-50153855D01*
X22854468Y-50211981D01*
X22949790Y-50290210D01*
X23028019Y-50385532D01*
X23086145Y-50494278D01*
X23121942Y-50612285D01*
X23134028Y-50735000D01*
X23121942Y-50857715D01*
X23086145Y-50975722D01*
X23028019Y-51084468D01*
X22949790Y-51179790D01*
X22854468Y-51258019D01*
X22745722Y-51316145D01*
X22745719Y-51316146D01*
X22738921Y-51318208D01*
X22627715Y-51351942D01*
X22535746Y-51361000D01*
X21824254Y-51361000D01*
X21732285Y-51351942D01*
X21621079Y-51318208D01*
X21614281Y-51316146D01*
X21614278Y-51316145D01*
X21505532Y-51258019D01*
X21410210Y-51179790D01*
X21331981Y-51084468D01*
X21273855Y-50975722D01*
X21238058Y-50857715D01*
X21225972Y-50735000D01*
X21238058Y-50612285D01*
X21273855Y-50494278D01*
X21331981Y-50385532D01*
X21410210Y-50290210D01*
X21505532Y-50211981D01*
X21614278Y-50153855D01*
X21732285Y-50118058D01*
X21824254Y-50109000D01*
X22535746Y-50109000D01*
X22627715Y-50118058D01*
X22627715Y-50118058D01*
G37*
G36*
X60287000Y-49492000D02*
G01*
X58585000Y-49492000D01*
X58585000Y-47790000D01*
X60287000Y-47790000D01*
X60287000Y-49492000D01*
X60287000Y-49492000D01*
G37*
G36*
X51982823Y-47802313D02*
G01*
X52143242Y-47850976D01*
X52275906Y-47921886D01*
X52291078Y-47929996D01*
X52420659Y-48036341D01*
X52527004Y-48165922D01*
X52527005Y-48165924D01*
X52606024Y-48313758D01*
X52654687Y-48474177D01*
X52671117Y-48641000D01*
X52654687Y-48807823D01*
X52606024Y-48968242D01*
X52535114Y-49100906D01*
X52527004Y-49116078D01*
X52420659Y-49245659D01*
X52291078Y-49352004D01*
X52291076Y-49352005D01*
X52143242Y-49431024D01*
X51982823Y-49479687D01*
X51857804Y-49492000D01*
X51774196Y-49492000D01*
X51649177Y-49479687D01*
X51488758Y-49431024D01*
X51340924Y-49352005D01*
X51340922Y-49352004D01*
X51211341Y-49245659D01*
X51104996Y-49116078D01*
X51096886Y-49100906D01*
X51025976Y-48968242D01*
X50977313Y-48807823D01*
X50960883Y-48641000D01*
X50977313Y-48474177D01*
X51025976Y-48313758D01*
X51104995Y-48165924D01*
X51104996Y-48165922D01*
X51211341Y-48036341D01*
X51340922Y-47929996D01*
X51356094Y-47921886D01*
X51488758Y-47850976D01*
X51649177Y-47802313D01*
X51774196Y-47790000D01*
X51857804Y-47790000D01*
X51982823Y-47802313D01*
X51982823Y-47802313D01*
G37*
G36*
X55609443Y-42920519D02*
G01*
X55675627Y-42927037D01*
X55845466Y-42978557D01*
X56001991Y-43062222D01*
X56037729Y-43091552D01*
X56139186Y-43174814D01*
X56222448Y-43276271D01*
X56251778Y-43312009D01*
X56335443Y-43468534D01*
X56386963Y-43638373D01*
X56404359Y-43815000D01*
X56386963Y-43991627D01*
X56335443Y-44161466D01*
X56251778Y-44317991D01*
X56222448Y-44353729D01*
X56139186Y-44455186D01*
X56037729Y-44538448D01*
X56001991Y-44567778D01*
X55845466Y-44651443D01*
X55675627Y-44702963D01*
X55609443Y-44709481D01*
X55543260Y-44716000D01*
X55454740Y-44716000D01*
X55388557Y-44709481D01*
X55322373Y-44702963D01*
X55152534Y-44651443D01*
X54996009Y-44567778D01*
X54960271Y-44538448D01*
X54858814Y-44455186D01*
X54775552Y-44353729D01*
X54746222Y-44317991D01*
X54662557Y-44161466D01*
X54611037Y-43991627D01*
X54593641Y-43815000D01*
X54611037Y-43638373D01*
X54662557Y-43468534D01*
X54746222Y-43312009D01*
X54775552Y-43276271D01*
X54858814Y-43174814D01*
X54960271Y-43091552D01*
X54996009Y-43062222D01*
X55152534Y-42978557D01*
X55322373Y-42927037D01*
X55388557Y-42920519D01*
X55454740Y-42914000D01*
X55543260Y-42914000D01*
X55609443Y-42920519D01*
X55609443Y-42920519D01*
G37*
G36*
X58149443Y-42920519D02*
G01*
X58215627Y-42927037D01*
X58385466Y-42978557D01*
X58541991Y-43062222D01*
X58577729Y-43091552D01*
X58679186Y-43174814D01*
X58762448Y-43276271D01*
X58791778Y-43312009D01*
X58875443Y-43468534D01*
X58926963Y-43638373D01*
X58944359Y-43815000D01*
X58926963Y-43991627D01*
X58875443Y-44161466D01*
X58791778Y-44317991D01*
X58762448Y-44353729D01*
X58679186Y-44455186D01*
X58577729Y-44538448D01*
X58541991Y-44567778D01*
X58385466Y-44651443D01*
X58215627Y-44702963D01*
X58149443Y-44709481D01*
X58083260Y-44716000D01*
X57994740Y-44716000D01*
X57928557Y-44709481D01*
X57862373Y-44702963D01*
X57692534Y-44651443D01*
X57536009Y-44567778D01*
X57500271Y-44538448D01*
X57398814Y-44455186D01*
X57315552Y-44353729D01*
X57286222Y-44317991D01*
X57202557Y-44161466D01*
X57151037Y-43991627D01*
X57133641Y-43815000D01*
X57151037Y-43638373D01*
X57202557Y-43468534D01*
X57286222Y-43312009D01*
X57315552Y-43276271D01*
X57398814Y-43174814D01*
X57500271Y-43091552D01*
X57536009Y-43062222D01*
X57692534Y-42978557D01*
X57862373Y-42927037D01*
X57928557Y-42920519D01*
X57994740Y-42914000D01*
X58083260Y-42914000D01*
X58149443Y-42920519D01*
X58149443Y-42920519D01*
G37*
G36*
X60689443Y-42920519D02*
G01*
X60755627Y-42927037D01*
X60925466Y-42978557D01*
X61081991Y-43062222D01*
X61117729Y-43091552D01*
X61219186Y-43174814D01*
X61302448Y-43276271D01*
X61331778Y-43312009D01*
X61415443Y-43468534D01*
X61466963Y-43638373D01*
X61484359Y-43815000D01*
X61466963Y-43991627D01*
X61415443Y-44161466D01*
X61331778Y-44317991D01*
X61302448Y-44353729D01*
X61219186Y-44455186D01*
X61117729Y-44538448D01*
X61081991Y-44567778D01*
X60925466Y-44651443D01*
X60755627Y-44702963D01*
X60689443Y-44709481D01*
X60623260Y-44716000D01*
X60534740Y-44716000D01*
X60468557Y-44709481D01*
X60402373Y-44702963D01*
X60232534Y-44651443D01*
X60076009Y-44567778D01*
X60040271Y-44538448D01*
X59938814Y-44455186D01*
X59855552Y-44353729D01*
X59826222Y-44317991D01*
X59742557Y-44161466D01*
X59691037Y-43991627D01*
X59673641Y-43815000D01*
X59691037Y-43638373D01*
X59742557Y-43468534D01*
X59826222Y-43312009D01*
X59855552Y-43276271D01*
X59938814Y-43174814D01*
X60040271Y-43091552D01*
X60076009Y-43062222D01*
X60232534Y-42978557D01*
X60402373Y-42927037D01*
X60468557Y-42920519D01*
X60534740Y-42914000D01*
X60623260Y-42914000D01*
X60689443Y-42920519D01*
X60689443Y-42920519D01*
G37*
G36*
X63229443Y-42920519D02*
G01*
X63295627Y-42927037D01*
X63465466Y-42978557D01*
X63621991Y-43062222D01*
X63657729Y-43091552D01*
X63759186Y-43174814D01*
X63842448Y-43276271D01*
X63871778Y-43312009D01*
X63955443Y-43468534D01*
X64006963Y-43638373D01*
X64024359Y-43815000D01*
X64006963Y-43991627D01*
X63955443Y-44161466D01*
X63871778Y-44317991D01*
X63842448Y-44353729D01*
X63759186Y-44455186D01*
X63657729Y-44538448D01*
X63621991Y-44567778D01*
X63465466Y-44651443D01*
X63295627Y-44702963D01*
X63229443Y-44709481D01*
X63163260Y-44716000D01*
X63074740Y-44716000D01*
X63008557Y-44709481D01*
X62942373Y-44702963D01*
X62772534Y-44651443D01*
X62616009Y-44567778D01*
X62580271Y-44538448D01*
X62478814Y-44455186D01*
X62395552Y-44353729D01*
X62366222Y-44317991D01*
X62282557Y-44161466D01*
X62231037Y-43991627D01*
X62213641Y-43815000D01*
X62231037Y-43638373D01*
X62282557Y-43468534D01*
X62366222Y-43312009D01*
X62395552Y-43276271D01*
X62478814Y-43174814D01*
X62580271Y-43091552D01*
X62616009Y-43062222D01*
X62772534Y-42978557D01*
X62942373Y-42927037D01*
X63008557Y-42920519D01*
X63074740Y-42914000D01*
X63163260Y-42914000D01*
X63229443Y-42920519D01*
X63229443Y-42920519D01*
G37*
G36*
X65769443Y-42920519D02*
G01*
X65835627Y-42927037D01*
X66005466Y-42978557D01*
X66161991Y-43062222D01*
X66197729Y-43091552D01*
X66299186Y-43174814D01*
X66382448Y-43276271D01*
X66411778Y-43312009D01*
X66495443Y-43468534D01*
X66546963Y-43638373D01*
X66564359Y-43815000D01*
X66546963Y-43991627D01*
X66495443Y-44161466D01*
X66411778Y-44317991D01*
X66382448Y-44353729D01*
X66299186Y-44455186D01*
X66197729Y-44538448D01*
X66161991Y-44567778D01*
X66005466Y-44651443D01*
X65835627Y-44702963D01*
X65769443Y-44709481D01*
X65703260Y-44716000D01*
X65614740Y-44716000D01*
X65548557Y-44709481D01*
X65482373Y-44702963D01*
X65312534Y-44651443D01*
X65156009Y-44567778D01*
X65120271Y-44538448D01*
X65018814Y-44455186D01*
X64935552Y-44353729D01*
X64906222Y-44317991D01*
X64822557Y-44161466D01*
X64771037Y-43991627D01*
X64753641Y-43815000D01*
X64771037Y-43638373D01*
X64822557Y-43468534D01*
X64906222Y-43312009D01*
X64935552Y-43276271D01*
X65018814Y-43174814D01*
X65120271Y-43091552D01*
X65156009Y-43062222D01*
X65312534Y-42978557D01*
X65482373Y-42927037D01*
X65548557Y-42920519D01*
X65614740Y-42914000D01*
X65703260Y-42914000D01*
X65769443Y-42920519D01*
X65769443Y-42920519D01*
G37*
G36*
X68309443Y-42920519D02*
G01*
X68375627Y-42927037D01*
X68545466Y-42978557D01*
X68701991Y-43062222D01*
X68737729Y-43091552D01*
X68839186Y-43174814D01*
X68922448Y-43276271D01*
X68951778Y-43312009D01*
X69035443Y-43468534D01*
X69086963Y-43638373D01*
X69104359Y-43815000D01*
X69086963Y-43991627D01*
X69035443Y-44161466D01*
X68951778Y-44317991D01*
X68922448Y-44353729D01*
X68839186Y-44455186D01*
X68737729Y-44538448D01*
X68701991Y-44567778D01*
X68545466Y-44651443D01*
X68375627Y-44702963D01*
X68309443Y-44709481D01*
X68243260Y-44716000D01*
X68154740Y-44716000D01*
X68088557Y-44709481D01*
X68022373Y-44702963D01*
X67852534Y-44651443D01*
X67696009Y-44567778D01*
X67660271Y-44538448D01*
X67558814Y-44455186D01*
X67475552Y-44353729D01*
X67446222Y-44317991D01*
X67362557Y-44161466D01*
X67311037Y-43991627D01*
X67293641Y-43815000D01*
X67311037Y-43638373D01*
X67362557Y-43468534D01*
X67446222Y-43312009D01*
X67475552Y-43276271D01*
X67558814Y-43174814D01*
X67660271Y-43091552D01*
X67696009Y-43062222D01*
X67852534Y-42978557D01*
X68022373Y-42927037D01*
X68088557Y-42920519D01*
X68154740Y-42914000D01*
X68243260Y-42914000D01*
X68309443Y-42920519D01*
X68309443Y-42920519D01*
G37*
G36*
X70849443Y-42920519D02*
G01*
X70915627Y-42927037D01*
X71085466Y-42978557D01*
X71241991Y-43062222D01*
X71277729Y-43091552D01*
X71379186Y-43174814D01*
X71462448Y-43276271D01*
X71491778Y-43312009D01*
X71575443Y-43468534D01*
X71626963Y-43638373D01*
X71644359Y-43815000D01*
X71626963Y-43991627D01*
X71575443Y-44161466D01*
X71491778Y-44317991D01*
X71462448Y-44353729D01*
X71379186Y-44455186D01*
X71277729Y-44538448D01*
X71241991Y-44567778D01*
X71085466Y-44651443D01*
X70915627Y-44702963D01*
X70849443Y-44709481D01*
X70783260Y-44716000D01*
X70694740Y-44716000D01*
X70628557Y-44709481D01*
X70562373Y-44702963D01*
X70392534Y-44651443D01*
X70236009Y-44567778D01*
X70200271Y-44538448D01*
X70098814Y-44455186D01*
X70015552Y-44353729D01*
X69986222Y-44317991D01*
X69902557Y-44161466D01*
X69851037Y-43991627D01*
X69833641Y-43815000D01*
X69851037Y-43638373D01*
X69902557Y-43468534D01*
X69986222Y-43312009D01*
X70015552Y-43276271D01*
X70098814Y-43174814D01*
X70200271Y-43091552D01*
X70236009Y-43062222D01*
X70392534Y-42978557D01*
X70562373Y-42927037D01*
X70628557Y-42920519D01*
X70694740Y-42914000D01*
X70783260Y-42914000D01*
X70849443Y-42920519D01*
X70849443Y-42920519D01*
G37*
G36*
X53069443Y-42920519D02*
G01*
X53135627Y-42927037D01*
X53305466Y-42978557D01*
X53461991Y-43062222D01*
X53497729Y-43091552D01*
X53599186Y-43174814D01*
X53682448Y-43276271D01*
X53711778Y-43312009D01*
X53795443Y-43468534D01*
X53846963Y-43638373D01*
X53864359Y-43815000D01*
X53846963Y-43991627D01*
X53795443Y-44161466D01*
X53711778Y-44317991D01*
X53682448Y-44353729D01*
X53599186Y-44455186D01*
X53497729Y-44538448D01*
X53461991Y-44567778D01*
X53305466Y-44651443D01*
X53135627Y-44702963D01*
X53069443Y-44709481D01*
X53003260Y-44716000D01*
X52914740Y-44716000D01*
X52848557Y-44709481D01*
X52782373Y-44702963D01*
X52612534Y-44651443D01*
X52456009Y-44567778D01*
X52420271Y-44538448D01*
X52318814Y-44455186D01*
X52235552Y-44353729D01*
X52206222Y-44317991D01*
X52122557Y-44161466D01*
X52071037Y-43991627D01*
X52053641Y-43815000D01*
X52071037Y-43638373D01*
X52122557Y-43468534D01*
X52206222Y-43312009D01*
X52235552Y-43276271D01*
X52318814Y-43174814D01*
X52420271Y-43091552D01*
X52456009Y-43062222D01*
X52612534Y-42978557D01*
X52782373Y-42927037D01*
X52848557Y-42920519D01*
X52914740Y-42914000D01*
X53003260Y-42914000D01*
X53069443Y-42920519D01*
X53069443Y-42920519D01*
G37*
G36*
X47989443Y-42920519D02*
G01*
X48055627Y-42927037D01*
X48225466Y-42978557D01*
X48381991Y-43062222D01*
X48417729Y-43091552D01*
X48519186Y-43174814D01*
X48602448Y-43276271D01*
X48631778Y-43312009D01*
X48715443Y-43468534D01*
X48766963Y-43638373D01*
X48784359Y-43815000D01*
X48766963Y-43991627D01*
X48715443Y-44161466D01*
X48631778Y-44317991D01*
X48602448Y-44353729D01*
X48519186Y-44455186D01*
X48417729Y-44538448D01*
X48381991Y-44567778D01*
X48225466Y-44651443D01*
X48055627Y-44702963D01*
X47989443Y-44709481D01*
X47923260Y-44716000D01*
X47834740Y-44716000D01*
X47768557Y-44709481D01*
X47702373Y-44702963D01*
X47532534Y-44651443D01*
X47376009Y-44567778D01*
X47340271Y-44538448D01*
X47238814Y-44455186D01*
X47155552Y-44353729D01*
X47126222Y-44317991D01*
X47042557Y-44161466D01*
X46991037Y-43991627D01*
X46973641Y-43815000D01*
X46991037Y-43638373D01*
X47042557Y-43468534D01*
X47126222Y-43312009D01*
X47155552Y-43276271D01*
X47238814Y-43174814D01*
X47340271Y-43091552D01*
X47376009Y-43062222D01*
X47532534Y-42978557D01*
X47702373Y-42927037D01*
X47768557Y-42920519D01*
X47834740Y-42914000D01*
X47923260Y-42914000D01*
X47989443Y-42920519D01*
X47989443Y-42920519D01*
G37*
G36*
X50529443Y-42920519D02*
G01*
X50595627Y-42927037D01*
X50765466Y-42978557D01*
X50921991Y-43062222D01*
X50957729Y-43091552D01*
X51059186Y-43174814D01*
X51142448Y-43276271D01*
X51171778Y-43312009D01*
X51255443Y-43468534D01*
X51306963Y-43638373D01*
X51324359Y-43815000D01*
X51306963Y-43991627D01*
X51255443Y-44161466D01*
X51171778Y-44317991D01*
X51142448Y-44353729D01*
X51059186Y-44455186D01*
X50957729Y-44538448D01*
X50921991Y-44567778D01*
X50765466Y-44651443D01*
X50595627Y-44702963D01*
X50529443Y-44709481D01*
X50463260Y-44716000D01*
X50374740Y-44716000D01*
X50308557Y-44709481D01*
X50242373Y-44702963D01*
X50072534Y-44651443D01*
X49916009Y-44567778D01*
X49880271Y-44538448D01*
X49778814Y-44455186D01*
X49695552Y-44353729D01*
X49666222Y-44317991D01*
X49582557Y-44161466D01*
X49531037Y-43991627D01*
X49513641Y-43815000D01*
X49531037Y-43638373D01*
X49582557Y-43468534D01*
X49666222Y-43312009D01*
X49695552Y-43276271D01*
X49778814Y-43174814D01*
X49880271Y-43091552D01*
X49916009Y-43062222D01*
X50072534Y-42978557D01*
X50242373Y-42927037D01*
X50308557Y-42920519D01*
X50374740Y-42914000D01*
X50463260Y-42914000D01*
X50529443Y-42920519D01*
X50529443Y-42920519D01*
G37*
G36*
X23380000Y-44716000D02*
G01*
X21578000Y-44716000D01*
X21578000Y-42914000D01*
X23380000Y-42914000D01*
X23380000Y-44716000D01*
X23380000Y-44716000D01*
G37*
G36*
X25129443Y-42920519D02*
G01*
X25195627Y-42927037D01*
X25365466Y-42978557D01*
X25521991Y-43062222D01*
X25557729Y-43091552D01*
X25659186Y-43174814D01*
X25742448Y-43276271D01*
X25771778Y-43312009D01*
X25855443Y-43468534D01*
X25906963Y-43638373D01*
X25924359Y-43815000D01*
X25906963Y-43991627D01*
X25855443Y-44161466D01*
X25771778Y-44317991D01*
X25742448Y-44353729D01*
X25659186Y-44455186D01*
X25557729Y-44538448D01*
X25521991Y-44567778D01*
X25365466Y-44651443D01*
X25195627Y-44702963D01*
X25129443Y-44709481D01*
X25063260Y-44716000D01*
X24974740Y-44716000D01*
X24908557Y-44709481D01*
X24842373Y-44702963D01*
X24672534Y-44651443D01*
X24516009Y-44567778D01*
X24480271Y-44538448D01*
X24378814Y-44455186D01*
X24295552Y-44353729D01*
X24266222Y-44317991D01*
X24182557Y-44161466D01*
X24131037Y-43991627D01*
X24113641Y-43815000D01*
X24131037Y-43638373D01*
X24182557Y-43468534D01*
X24266222Y-43312009D01*
X24295552Y-43276271D01*
X24378814Y-43174814D01*
X24480271Y-43091552D01*
X24516009Y-43062222D01*
X24672534Y-42978557D01*
X24842373Y-42927037D01*
X24908557Y-42920519D01*
X24974740Y-42914000D01*
X25063260Y-42914000D01*
X25129443Y-42920519D01*
X25129443Y-42920519D01*
G37*
G36*
X27669443Y-42920519D02*
G01*
X27735627Y-42927037D01*
X27905466Y-42978557D01*
X28061991Y-43062222D01*
X28097729Y-43091552D01*
X28199186Y-43174814D01*
X28282448Y-43276271D01*
X28311778Y-43312009D01*
X28395443Y-43468534D01*
X28446963Y-43638373D01*
X28464359Y-43815000D01*
X28446963Y-43991627D01*
X28395443Y-44161466D01*
X28311778Y-44317991D01*
X28282448Y-44353729D01*
X28199186Y-44455186D01*
X28097729Y-44538448D01*
X28061991Y-44567778D01*
X27905466Y-44651443D01*
X27735627Y-44702963D01*
X27669443Y-44709481D01*
X27603260Y-44716000D01*
X27514740Y-44716000D01*
X27448557Y-44709481D01*
X27382373Y-44702963D01*
X27212534Y-44651443D01*
X27056009Y-44567778D01*
X27020271Y-44538448D01*
X26918814Y-44455186D01*
X26835552Y-44353729D01*
X26806222Y-44317991D01*
X26722557Y-44161466D01*
X26671037Y-43991627D01*
X26653641Y-43815000D01*
X26671037Y-43638373D01*
X26722557Y-43468534D01*
X26806222Y-43312009D01*
X26835552Y-43276271D01*
X26918814Y-43174814D01*
X27020271Y-43091552D01*
X27056009Y-43062222D01*
X27212534Y-42978557D01*
X27382373Y-42927037D01*
X27448557Y-42920519D01*
X27514740Y-42914000D01*
X27603260Y-42914000D01*
X27669443Y-42920519D01*
X27669443Y-42920519D01*
G37*
G36*
X30209443Y-42920519D02*
G01*
X30275627Y-42927037D01*
X30445466Y-42978557D01*
X30601991Y-43062222D01*
X30637729Y-43091552D01*
X30739186Y-43174814D01*
X30822448Y-43276271D01*
X30851778Y-43312009D01*
X30935443Y-43468534D01*
X30986963Y-43638373D01*
X31004359Y-43815000D01*
X30986963Y-43991627D01*
X30935443Y-44161466D01*
X30851778Y-44317991D01*
X30822448Y-44353729D01*
X30739186Y-44455186D01*
X30637729Y-44538448D01*
X30601991Y-44567778D01*
X30445466Y-44651443D01*
X30275627Y-44702963D01*
X30209443Y-44709481D01*
X30143260Y-44716000D01*
X30054740Y-44716000D01*
X29988557Y-44709481D01*
X29922373Y-44702963D01*
X29752534Y-44651443D01*
X29596009Y-44567778D01*
X29560271Y-44538448D01*
X29458814Y-44455186D01*
X29375552Y-44353729D01*
X29346222Y-44317991D01*
X29262557Y-44161466D01*
X29211037Y-43991627D01*
X29193641Y-43815000D01*
X29211037Y-43638373D01*
X29262557Y-43468534D01*
X29346222Y-43312009D01*
X29375552Y-43276271D01*
X29458814Y-43174814D01*
X29560271Y-43091552D01*
X29596009Y-43062222D01*
X29752534Y-42978557D01*
X29922373Y-42927037D01*
X29988557Y-42920519D01*
X30054740Y-42914000D01*
X30143260Y-42914000D01*
X30209443Y-42920519D01*
X30209443Y-42920519D01*
G37*
G36*
X32749443Y-42920519D02*
G01*
X32815627Y-42927037D01*
X32985466Y-42978557D01*
X33141991Y-43062222D01*
X33177729Y-43091552D01*
X33279186Y-43174814D01*
X33362448Y-43276271D01*
X33391778Y-43312009D01*
X33475443Y-43468534D01*
X33526963Y-43638373D01*
X33544359Y-43815000D01*
X33526963Y-43991627D01*
X33475443Y-44161466D01*
X33391778Y-44317991D01*
X33362448Y-44353729D01*
X33279186Y-44455186D01*
X33177729Y-44538448D01*
X33141991Y-44567778D01*
X32985466Y-44651443D01*
X32815627Y-44702963D01*
X32749443Y-44709481D01*
X32683260Y-44716000D01*
X32594740Y-44716000D01*
X32528557Y-44709481D01*
X32462373Y-44702963D01*
X32292534Y-44651443D01*
X32136009Y-44567778D01*
X32100271Y-44538448D01*
X31998814Y-44455186D01*
X31915552Y-44353729D01*
X31886222Y-44317991D01*
X31802557Y-44161466D01*
X31751037Y-43991627D01*
X31733641Y-43815000D01*
X31751037Y-43638373D01*
X31802557Y-43468534D01*
X31886222Y-43312009D01*
X31915552Y-43276271D01*
X31998814Y-43174814D01*
X32100271Y-43091552D01*
X32136009Y-43062222D01*
X32292534Y-42978557D01*
X32462373Y-42927037D01*
X32528557Y-42920519D01*
X32594740Y-42914000D01*
X32683260Y-42914000D01*
X32749443Y-42920519D01*
X32749443Y-42920519D01*
G37*
G36*
X35289443Y-42920519D02*
G01*
X35355627Y-42927037D01*
X35525466Y-42978557D01*
X35681991Y-43062222D01*
X35717729Y-43091552D01*
X35819186Y-43174814D01*
X35902448Y-43276271D01*
X35931778Y-43312009D01*
X36015443Y-43468534D01*
X36066963Y-43638373D01*
X36084359Y-43815000D01*
X36066963Y-43991627D01*
X36015443Y-44161466D01*
X35931778Y-44317991D01*
X35902448Y-44353729D01*
X35819186Y-44455186D01*
X35717729Y-44538448D01*
X35681991Y-44567778D01*
X35525466Y-44651443D01*
X35355627Y-44702963D01*
X35289443Y-44709481D01*
X35223260Y-44716000D01*
X35134740Y-44716000D01*
X35068557Y-44709481D01*
X35002373Y-44702963D01*
X34832534Y-44651443D01*
X34676009Y-44567778D01*
X34640271Y-44538448D01*
X34538814Y-44455186D01*
X34455552Y-44353729D01*
X34426222Y-44317991D01*
X34342557Y-44161466D01*
X34291037Y-43991627D01*
X34273641Y-43815000D01*
X34291037Y-43638373D01*
X34342557Y-43468534D01*
X34426222Y-43312009D01*
X34455552Y-43276271D01*
X34538814Y-43174814D01*
X34640271Y-43091552D01*
X34676009Y-43062222D01*
X34832534Y-42978557D01*
X35002373Y-42927037D01*
X35068557Y-42920519D01*
X35134740Y-42914000D01*
X35223260Y-42914000D01*
X35289443Y-42920519D01*
X35289443Y-42920519D01*
G37*
G36*
X37829443Y-42920519D02*
G01*
X37895627Y-42927037D01*
X38065466Y-42978557D01*
X38221991Y-43062222D01*
X38257729Y-43091552D01*
X38359186Y-43174814D01*
X38442448Y-43276271D01*
X38471778Y-43312009D01*
X38555443Y-43468534D01*
X38606963Y-43638373D01*
X38624359Y-43815000D01*
X38606963Y-43991627D01*
X38555443Y-44161466D01*
X38471778Y-44317991D01*
X38442448Y-44353729D01*
X38359186Y-44455186D01*
X38257729Y-44538448D01*
X38221991Y-44567778D01*
X38065466Y-44651443D01*
X37895627Y-44702963D01*
X37829443Y-44709481D01*
X37763260Y-44716000D01*
X37674740Y-44716000D01*
X37608557Y-44709481D01*
X37542373Y-44702963D01*
X37372534Y-44651443D01*
X37216009Y-44567778D01*
X37180271Y-44538448D01*
X37078814Y-44455186D01*
X36995552Y-44353729D01*
X36966222Y-44317991D01*
X36882557Y-44161466D01*
X36831037Y-43991627D01*
X36813641Y-43815000D01*
X36831037Y-43638373D01*
X36882557Y-43468534D01*
X36966222Y-43312009D01*
X36995552Y-43276271D01*
X37078814Y-43174814D01*
X37180271Y-43091552D01*
X37216009Y-43062222D01*
X37372534Y-42978557D01*
X37542373Y-42927037D01*
X37608557Y-42920519D01*
X37674740Y-42914000D01*
X37763260Y-42914000D01*
X37829443Y-42920519D01*
X37829443Y-42920519D01*
G37*
G36*
X40369443Y-42920519D02*
G01*
X40435627Y-42927037D01*
X40605466Y-42978557D01*
X40761991Y-43062222D01*
X40797729Y-43091552D01*
X40899186Y-43174814D01*
X40982448Y-43276271D01*
X41011778Y-43312009D01*
X41095443Y-43468534D01*
X41146963Y-43638373D01*
X41164359Y-43815000D01*
X41146963Y-43991627D01*
X41095443Y-44161466D01*
X41011778Y-44317991D01*
X40982448Y-44353729D01*
X40899186Y-44455186D01*
X40797729Y-44538448D01*
X40761991Y-44567778D01*
X40605466Y-44651443D01*
X40435627Y-44702963D01*
X40369443Y-44709481D01*
X40303260Y-44716000D01*
X40214740Y-44716000D01*
X40148557Y-44709481D01*
X40082373Y-44702963D01*
X39912534Y-44651443D01*
X39756009Y-44567778D01*
X39720271Y-44538448D01*
X39618814Y-44455186D01*
X39535552Y-44353729D01*
X39506222Y-44317991D01*
X39422557Y-44161466D01*
X39371037Y-43991627D01*
X39353641Y-43815000D01*
X39371037Y-43638373D01*
X39422557Y-43468534D01*
X39506222Y-43312009D01*
X39535552Y-43276271D01*
X39618814Y-43174814D01*
X39720271Y-43091552D01*
X39756009Y-43062222D01*
X39912534Y-42978557D01*
X40082373Y-42927037D01*
X40148557Y-42920519D01*
X40214740Y-42914000D01*
X40303260Y-42914000D01*
X40369443Y-42920519D01*
X40369443Y-42920519D01*
G37*
G36*
X45449443Y-42920519D02*
G01*
X45515627Y-42927037D01*
X45685466Y-42978557D01*
X45841991Y-43062222D01*
X45877729Y-43091552D01*
X45979186Y-43174814D01*
X46062448Y-43276271D01*
X46091778Y-43312009D01*
X46175443Y-43468534D01*
X46226963Y-43638373D01*
X46244359Y-43815000D01*
X46226963Y-43991627D01*
X46175443Y-44161466D01*
X46091778Y-44317991D01*
X46062448Y-44353729D01*
X45979186Y-44455186D01*
X45877729Y-44538448D01*
X45841991Y-44567778D01*
X45685466Y-44651443D01*
X45515627Y-44702963D01*
X45449443Y-44709481D01*
X45383260Y-44716000D01*
X45294740Y-44716000D01*
X45228557Y-44709481D01*
X45162373Y-44702963D01*
X44992534Y-44651443D01*
X44836009Y-44567778D01*
X44800271Y-44538448D01*
X44698814Y-44455186D01*
X44615552Y-44353729D01*
X44586222Y-44317991D01*
X44502557Y-44161466D01*
X44451037Y-43991627D01*
X44433641Y-43815000D01*
X44451037Y-43638373D01*
X44502557Y-43468534D01*
X44586222Y-43312009D01*
X44615552Y-43276271D01*
X44698814Y-43174814D01*
X44800271Y-43091552D01*
X44836009Y-43062222D01*
X44992534Y-42978557D01*
X45162373Y-42927037D01*
X45228557Y-42920519D01*
X45294740Y-42914000D01*
X45383260Y-42914000D01*
X45449443Y-42920519D01*
X45449443Y-42920519D01*
G37*
G36*
X42909443Y-42920519D02*
G01*
X42975627Y-42927037D01*
X43145466Y-42978557D01*
X43301991Y-43062222D01*
X43337729Y-43091552D01*
X43439186Y-43174814D01*
X43522448Y-43276271D01*
X43551778Y-43312009D01*
X43635443Y-43468534D01*
X43686963Y-43638373D01*
X43704359Y-43815000D01*
X43686963Y-43991627D01*
X43635443Y-44161466D01*
X43551778Y-44317991D01*
X43522448Y-44353729D01*
X43439186Y-44455186D01*
X43337729Y-44538448D01*
X43301991Y-44567778D01*
X43145466Y-44651443D01*
X42975627Y-44702963D01*
X42909443Y-44709481D01*
X42843260Y-44716000D01*
X42754740Y-44716000D01*
X42688557Y-44709481D01*
X42622373Y-44702963D01*
X42452534Y-44651443D01*
X42296009Y-44567778D01*
X42260271Y-44538448D01*
X42158814Y-44455186D01*
X42075552Y-44353729D01*
X42046222Y-44317991D01*
X41962557Y-44161466D01*
X41911037Y-43991627D01*
X41893641Y-43815000D01*
X41911037Y-43638373D01*
X41962557Y-43468534D01*
X42046222Y-43312009D01*
X42075552Y-43276271D01*
X42158814Y-43174814D01*
X42260271Y-43091552D01*
X42296009Y-43062222D01*
X42452534Y-42978557D01*
X42622373Y-42927037D01*
X42688557Y-42920519D01*
X42754740Y-42914000D01*
X42843260Y-42914000D01*
X42909443Y-42920519D01*
X42909443Y-42920519D01*
G37*
M02*
