G04 #@! TF.GenerationSoftware,KiCad,Pcbnew,5.1.4+dfsg1-2*
G04 #@! TF.CreationDate,2019-12-30T19:47:55+08:00*
G04 #@! TF.ProjectId,usb2can,75736232-6361-46e2-9e6b-696361645f70,rev?*
G04 #@! TF.SameCoordinates,Original*
G04 #@! TF.FileFunction,Legend,Top*
G04 #@! TF.FilePolarity,Positive*
%FSLAX46Y46*%
G04 Gerber Fmt 4.6, Leading zero omitted, Abs format (unit mm)*
G04 Created by KiCad (PCBNEW 5.1.4+dfsg1-2) date 2019-12-30 19:47:55*
%MOMM*%
%LPD*%
G04 APERTURE LIST*
%ADD10C,0.150000*%
%ADD11C,0.120000*%
G04 APERTURE END LIST*
D10*
X35567904Y-61730000D02*
X35472666Y-61682380D01*
X35329809Y-61682380D01*
X35186952Y-61730000D01*
X35091714Y-61825238D01*
X35044095Y-61920476D01*
X34996476Y-62110952D01*
X34996476Y-62253809D01*
X35044095Y-62444285D01*
X35091714Y-62539523D01*
X35186952Y-62634761D01*
X35329809Y-62682380D01*
X35425047Y-62682380D01*
X35567904Y-62634761D01*
X35615523Y-62587142D01*
X35615523Y-62253809D01*
X35425047Y-62253809D01*
D11*
X34798000Y-61468000D02*
X35306000Y-61468000D01*
X34798000Y-62992000D02*
X34798000Y-61468000D01*
X44704000Y-62992000D02*
X34798000Y-62992000D01*
X44704000Y-61468000D02*
X44704000Y-62992000D01*
X35052000Y-61468000D02*
X44704000Y-61468000D01*
D10*
X42386380Y-61682380D02*
X43005428Y-61682380D01*
X42672095Y-62063333D01*
X42814952Y-62063333D01*
X42910190Y-62110952D01*
X42957809Y-62158571D01*
X43005428Y-62253809D01*
X43005428Y-62491904D01*
X42957809Y-62587142D01*
X42910190Y-62634761D01*
X42814952Y-62682380D01*
X42529238Y-62682380D01*
X42434000Y-62634761D01*
X42386380Y-62587142D01*
X43434000Y-62587142D02*
X43481619Y-62634761D01*
X43434000Y-62682380D01*
X43386380Y-62634761D01*
X43434000Y-62587142D01*
X43434000Y-62682380D01*
X43814952Y-61682380D02*
X44434000Y-61682380D01*
X44100666Y-62063333D01*
X44243523Y-62063333D01*
X44338761Y-62110952D01*
X44386380Y-62158571D01*
X44434000Y-62253809D01*
X44434000Y-62491904D01*
X44386380Y-62587142D01*
X44338761Y-62634761D01*
X44243523Y-62682380D01*
X43957809Y-62682380D01*
X43862571Y-62634761D01*
X43814952Y-62587142D01*
X39616190Y-62682380D02*
X39616190Y-61682380D01*
X39854285Y-61682380D01*
X39997142Y-61730000D01*
X40092380Y-61825238D01*
X40140000Y-61920476D01*
X40187619Y-62110952D01*
X40187619Y-62253809D01*
X40140000Y-62444285D01*
X40092380Y-62539523D01*
X39997142Y-62634761D01*
X39854285Y-62682380D01*
X39616190Y-62682380D01*
X40616190Y-62682380D02*
X40616190Y-61682380D01*
X41282857Y-61682380D02*
X41473333Y-61682380D01*
X41568571Y-61730000D01*
X41663809Y-61825238D01*
X41711428Y-62015714D01*
X41711428Y-62349047D01*
X41663809Y-62539523D01*
X41568571Y-62634761D01*
X41473333Y-62682380D01*
X41282857Y-62682380D01*
X41187619Y-62634761D01*
X41092380Y-62539523D01*
X41044761Y-62349047D01*
X41044761Y-62015714D01*
X41092380Y-61825238D01*
X41187619Y-61730000D01*
X41282857Y-61682380D01*
X36996761Y-62587142D02*
X36949142Y-62634761D01*
X36806285Y-62682380D01*
X36711047Y-62682380D01*
X36568190Y-62634761D01*
X36472952Y-62539523D01*
X36425333Y-62444285D01*
X36377714Y-62253809D01*
X36377714Y-62110952D01*
X36425333Y-61920476D01*
X36472952Y-61825238D01*
X36568190Y-61730000D01*
X36711047Y-61682380D01*
X36806285Y-61682380D01*
X36949142Y-61730000D01*
X36996761Y-61777619D01*
X37901523Y-62682380D02*
X37425333Y-62682380D01*
X37425333Y-61682380D01*
X38234857Y-62682380D02*
X38234857Y-61682380D01*
X38806285Y-62682380D02*
X38377714Y-62110952D01*
X38806285Y-61682380D02*
X38234857Y-62253809D01*
X63222142Y-52284285D02*
X63269761Y-52331904D01*
X63317380Y-52474761D01*
X63317380Y-52570000D01*
X63269761Y-52712857D01*
X63174523Y-52808095D01*
X63079285Y-52855714D01*
X62888809Y-52903333D01*
X62745952Y-52903333D01*
X62555476Y-52855714D01*
X62460238Y-52808095D01*
X62365000Y-52712857D01*
X62317380Y-52570000D01*
X62317380Y-52474761D01*
X62365000Y-52331904D01*
X62412619Y-52284285D01*
X63317380Y-51855714D02*
X62317380Y-51855714D01*
X62793571Y-51855714D02*
X62793571Y-51284285D01*
X63317380Y-51284285D02*
X62317380Y-51284285D01*
X63158642Y-56737238D02*
X63206261Y-56784857D01*
X63253880Y-56927714D01*
X63253880Y-57022952D01*
X63206261Y-57165809D01*
X63111023Y-57261047D01*
X63015785Y-57308666D01*
X62825309Y-57356285D01*
X62682452Y-57356285D01*
X62491976Y-57308666D01*
X62396738Y-57261047D01*
X62301500Y-57165809D01*
X62253880Y-57022952D01*
X62253880Y-56927714D01*
X62301500Y-56784857D01*
X62349119Y-56737238D01*
X63253880Y-55832476D02*
X63253880Y-56308666D01*
X62253880Y-56308666D01*
D11*
X21149000Y-66862000D02*
X21149000Y-65532000D01*
X22479000Y-66862000D02*
X21149000Y-66862000D01*
X23749000Y-66862000D02*
X23749000Y-64202000D01*
X23749000Y-64202000D02*
X72069000Y-64202000D01*
X23749000Y-66862000D02*
X72069000Y-66862000D01*
X72069000Y-66862000D02*
X72069000Y-64202000D01*
X21149000Y-45145000D02*
X21149000Y-43815000D01*
X22479000Y-45145000D02*
X21149000Y-45145000D01*
X23749000Y-45145000D02*
X23749000Y-42485000D01*
X23749000Y-42485000D02*
X72069000Y-42485000D01*
X23749000Y-45145000D02*
X72069000Y-45145000D01*
X72069000Y-45145000D02*
X72069000Y-42485000D01*
X52359779Y-58418000D02*
X52034221Y-58418000D01*
X52359779Y-59438000D02*
X52034221Y-59438000D01*
X53593000Y-57499000D02*
X53593000Y-53499000D01*
X50293000Y-57499000D02*
X53593000Y-57499000D01*
X32344000Y-52716000D02*
X32344000Y-50266000D01*
X29124000Y-50916000D02*
X29124000Y-52716000D01*
X55479000Y-55880000D02*
X55479000Y-59330000D01*
X55479000Y-55880000D02*
X55479000Y-53930000D01*
X60599000Y-55880000D02*
X60599000Y-57830000D01*
X60599000Y-55880000D02*
X60599000Y-53930000D01*
X46790000Y-57770000D02*
X48080000Y-57770000D01*
X46790000Y-58220000D02*
X46790000Y-57770000D01*
X46340000Y-58220000D02*
X46790000Y-58220000D01*
X39570000Y-58220000D02*
X39570000Y-57770000D01*
X40020000Y-58220000D02*
X39570000Y-58220000D01*
X46790000Y-51000000D02*
X46790000Y-51450000D01*
X46340000Y-51000000D02*
X46790000Y-51000000D01*
X39570000Y-51000000D02*
X39570000Y-51450000D01*
X40020000Y-51000000D02*
X39570000Y-51000000D01*
X56302667Y-49276000D02*
X56302667Y-48006000D01*
X57656000Y-48076000D02*
X56302667Y-48076000D01*
X57656000Y-48196000D02*
X56302667Y-48196000D01*
X57656000Y-48316000D02*
X56302667Y-48316000D01*
X57656000Y-48436000D02*
X56302667Y-48436000D01*
X57656000Y-48556000D02*
X56302667Y-48556000D01*
X57656000Y-48676000D02*
X56302667Y-48676000D01*
X57656000Y-48796000D02*
X56302667Y-48796000D01*
X57656000Y-48916000D02*
X56302667Y-48916000D01*
X57656000Y-49036000D02*
X56302667Y-49036000D01*
X57656000Y-49156000D02*
X56302667Y-49156000D01*
X53596000Y-49276000D02*
X57656000Y-49276000D01*
X53596000Y-48006000D02*
X53596000Y-49276000D01*
X57656000Y-48006000D02*
X53596000Y-48006000D01*
X57656000Y-49276000D02*
X57656000Y-48006000D01*
X60816000Y-51301000D02*
X60816000Y-49918000D01*
X60816000Y-51301000D02*
X59432000Y-51301000D01*
X50676000Y-51061000D02*
X50676000Y-46221000D01*
X60576000Y-51061000D02*
X60576000Y-46221000D01*
X60576000Y-46221000D02*
X50676000Y-46221000D01*
X60576000Y-51061000D02*
X50676000Y-51061000D01*
X26796000Y-46352000D02*
X26796000Y-46652000D01*
X23496000Y-46352000D02*
X26796000Y-46352000D01*
X23496000Y-46652000D02*
X23496000Y-46352000D01*
X26796000Y-49152000D02*
X26796000Y-48852000D01*
X23496000Y-49152000D02*
X26796000Y-49152000D01*
X23496000Y-48852000D02*
X23496000Y-49152000D01*
X55407779Y-61085000D02*
X55082221Y-61085000D01*
X55407779Y-62105000D02*
X55082221Y-62105000D01*
X30190221Y-49151000D02*
X30515779Y-49151000D01*
X30190221Y-48131000D02*
X30515779Y-48131000D01*
X59146221Y-62105000D02*
X59471779Y-62105000D01*
X59146221Y-61085000D02*
X59471779Y-61085000D01*
X34381221Y-58041000D02*
X34706779Y-58041000D01*
X34381221Y-57021000D02*
X34706779Y-57021000D01*
X29207000Y-57039000D02*
X32007000Y-57039000D01*
X32007000Y-57039000D02*
X32007000Y-59039000D01*
X32007000Y-59039000D02*
X29207000Y-59039000D01*
X29207000Y-59039000D02*
X29207000Y-57039000D01*
X63505000Y-57069000D02*
X63505000Y-56469000D01*
X64105000Y-56769000D02*
X63505000Y-57069000D01*
X63505000Y-56469000D02*
X64105000Y-56769000D01*
X71415000Y-49069000D02*
X71415000Y-49769000D01*
X66115000Y-49069000D02*
X71415000Y-49069000D01*
X66115000Y-59469000D02*
X66115000Y-49069000D01*
X71415000Y-59469000D02*
X66115000Y-59469000D01*
X71415000Y-58769000D02*
X71415000Y-59469000D01*
X71415000Y-54769000D02*
X71415000Y-53769000D01*
X66115000Y-50769000D02*
X66115000Y-52769000D01*
X64305000Y-50769000D02*
X66115000Y-50769000D01*
X64305000Y-52769000D02*
X64305000Y-50769000D01*
X66115000Y-52769000D02*
X64305000Y-52769000D01*
X66115000Y-55769000D02*
X66115000Y-57769000D01*
X64305000Y-55769000D02*
X66115000Y-55769000D01*
X64305000Y-57769000D02*
X64305000Y-55769000D01*
X66115000Y-57769000D02*
X64305000Y-57769000D01*
X65115000Y-55769000D02*
X65115000Y-52769000D01*
X65115000Y-48159000D02*
X65115000Y-50659000D01*
X65115000Y-60379000D02*
X65115000Y-57879000D01*
X64305000Y-48159000D02*
X64305000Y-60379000D01*
X73125000Y-48159000D02*
X64305000Y-48159000D01*
X73125000Y-60379000D02*
X73125000Y-48159000D01*
X64305000Y-60379000D02*
X73125000Y-60379000D01*
X71430821Y-49782159D02*
G75*
G02X71415000Y-53769000I-1665821J-1986841D01*
G01*
X71430821Y-54782159D02*
G75*
G02X71415000Y-58769000I-1665821J-1986841D01*
G01*
X23816000Y-62798000D02*
X23816000Y-61468000D01*
X25146000Y-62798000D02*
X23816000Y-62798000D01*
X26416000Y-62798000D02*
X26416000Y-60138000D01*
X26416000Y-60138000D02*
X34096000Y-60138000D01*
X26416000Y-62798000D02*
X34096000Y-62798000D01*
X34096000Y-62798000D02*
X34096000Y-60138000D01*
D10*
X26530000Y-56410000D02*
X26530000Y-57410000D01*
X26530000Y-52810000D02*
X26530000Y-51810000D01*
X26955000Y-52810000D02*
X26530000Y-52810000D01*
X26955000Y-53535000D02*
X26955000Y-52810000D01*
X23380000Y-58760000D02*
X24780000Y-58760000D01*
X20830000Y-58760000D02*
X20980000Y-58760000D01*
X20830000Y-58460000D02*
X20830000Y-58760000D01*
X20380000Y-58460000D02*
X20830000Y-58460000D01*
X20830000Y-50760000D02*
X20380000Y-50760000D01*
X20830000Y-50460000D02*
X20830000Y-50760000D01*
X20980000Y-50460000D02*
X20830000Y-50460000D01*
X24780000Y-50460000D02*
X23380000Y-50460000D01*
D11*
X33059000Y-49376000D02*
X35344000Y-49376000D01*
X33059000Y-47906000D02*
X33059000Y-49376000D01*
X35344000Y-47906000D02*
X33059000Y-47906000D01*
X34381221Y-53469000D02*
X34706779Y-53469000D01*
X34381221Y-52449000D02*
X34706779Y-52449000D01*
X34381221Y-51183000D02*
X34706779Y-51183000D01*
X34381221Y-50163000D02*
X34706779Y-50163000D01*
X49057779Y-58418000D02*
X48732221Y-58418000D01*
X49057779Y-59438000D02*
X48732221Y-59438000D01*
X41437779Y-46988000D02*
X41112221Y-46988000D01*
X41437779Y-48008000D02*
X41112221Y-48008000D01*
X49057779Y-60196000D02*
X48732221Y-60196000D01*
X49057779Y-61216000D02*
X48732221Y-61216000D01*
X34381221Y-56136000D02*
X34706779Y-56136000D01*
X34381221Y-55116000D02*
X34706779Y-55116000D01*
X30190221Y-47373000D02*
X30515779Y-47373000D01*
X30190221Y-46353000D02*
X30515779Y-46353000D01*
X52034221Y-52961000D02*
X52359779Y-52961000D01*
X52034221Y-51941000D02*
X52359779Y-51941000D01*
X30348422Y-56463000D02*
X30865578Y-56463000D01*
X30348422Y-55043000D02*
X30865578Y-55043000D01*
D10*
X19327880Y-65674833D02*
X20042166Y-65674833D01*
X20185023Y-65722452D01*
X20280261Y-65817690D01*
X20327880Y-65960547D01*
X20327880Y-66055785D01*
X19327880Y-65293880D02*
X19327880Y-64674833D01*
X19708833Y-65008166D01*
X19708833Y-64865309D01*
X19756452Y-64770071D01*
X19804071Y-64722452D01*
X19899309Y-64674833D01*
X20137404Y-64674833D01*
X20232642Y-64722452D01*
X20280261Y-64770071D01*
X20327880Y-64865309D01*
X20327880Y-65151023D01*
X20280261Y-65246261D01*
X20232642Y-65293880D01*
X19601380Y-44148333D02*
X20315666Y-44148333D01*
X20458523Y-44195952D01*
X20553761Y-44291190D01*
X20601380Y-44434047D01*
X20601380Y-44529285D01*
X19934714Y-43243571D02*
X20601380Y-43243571D01*
X19553761Y-43481666D02*
X20268047Y-43719761D01*
X20268047Y-43100714D01*
X51395333Y-60809142D02*
X51347714Y-60856761D01*
X51204857Y-60904380D01*
X51109619Y-60904380D01*
X50966761Y-60856761D01*
X50871523Y-60761523D01*
X50823904Y-60666285D01*
X50776285Y-60475809D01*
X50776285Y-60332952D01*
X50823904Y-60142476D01*
X50871523Y-60047238D01*
X50966761Y-59952000D01*
X51109619Y-59904380D01*
X51204857Y-59904380D01*
X51347714Y-59952000D01*
X51395333Y-59999619D01*
X52347714Y-60904380D02*
X51776285Y-60904380D01*
X52062000Y-60904380D02*
X52062000Y-59904380D01*
X51966761Y-60047238D01*
X51871523Y-60142476D01*
X51776285Y-60190095D01*
X49469190Y-55975190D02*
X49945380Y-55975190D01*
X48945380Y-56308523D02*
X49469190Y-55975190D01*
X48945380Y-55641857D01*
X49945380Y-54784714D02*
X49945380Y-55356142D01*
X49945380Y-55070428D02*
X48945380Y-55070428D01*
X49088238Y-55165666D01*
X49183476Y-55260904D01*
X49231095Y-55356142D01*
X27646380Y-53593904D02*
X28455904Y-53593904D01*
X28551142Y-53546285D01*
X28598761Y-53498666D01*
X28646380Y-53403428D01*
X28646380Y-53212952D01*
X28598761Y-53117714D01*
X28551142Y-53070095D01*
X28455904Y-53022476D01*
X27646380Y-53022476D01*
X27646380Y-52641523D02*
X27646380Y-52022476D01*
X28027333Y-52355809D01*
X28027333Y-52212952D01*
X28074952Y-52117714D01*
X28122571Y-52070095D01*
X28217809Y-52022476D01*
X28455904Y-52022476D01*
X28551142Y-52070095D01*
X28598761Y-52117714D01*
X28646380Y-52212952D01*
X28646380Y-52498666D01*
X28598761Y-52593904D01*
X28551142Y-52641523D01*
X54125880Y-59499404D02*
X54935404Y-59499404D01*
X55030642Y-59451785D01*
X55078261Y-59404166D01*
X55125880Y-59308928D01*
X55125880Y-59118452D01*
X55078261Y-59023214D01*
X55030642Y-58975595D01*
X54935404Y-58927976D01*
X54125880Y-58927976D01*
X54221119Y-58499404D02*
X54173500Y-58451785D01*
X54125880Y-58356547D01*
X54125880Y-58118452D01*
X54173500Y-58023214D01*
X54221119Y-57975595D01*
X54316357Y-57927976D01*
X54411595Y-57927976D01*
X54554452Y-57975595D01*
X55125880Y-58547023D01*
X55125880Y-57927976D01*
X46990095Y-49617380D02*
X46990095Y-50426904D01*
X47037714Y-50522142D01*
X47085333Y-50569761D01*
X47180571Y-50617380D01*
X47371047Y-50617380D01*
X47466285Y-50569761D01*
X47513904Y-50522142D01*
X47561523Y-50426904D01*
X47561523Y-49617380D01*
X48561523Y-50617380D02*
X47990095Y-50617380D01*
X48275809Y-50617380D02*
X48275809Y-49617380D01*
X48180571Y-49760238D01*
X48085333Y-49855476D01*
X47990095Y-49903095D01*
X50236380Y-49196547D02*
X49760190Y-49529880D01*
X50236380Y-49767976D02*
X49236380Y-49767976D01*
X49236380Y-49387023D01*
X49284000Y-49291785D01*
X49331619Y-49244166D01*
X49426857Y-49196547D01*
X49569714Y-49196547D01*
X49664952Y-49244166D01*
X49712571Y-49291785D01*
X49760190Y-49387023D01*
X49760190Y-49767976D01*
X49712571Y-48767976D02*
X49712571Y-48434642D01*
X50236380Y-48291785D02*
X50236380Y-48767976D01*
X49236380Y-48767976D01*
X49236380Y-48291785D01*
X50188761Y-47910833D02*
X50236380Y-47767976D01*
X50236380Y-47529880D01*
X50188761Y-47434642D01*
X50141142Y-47387023D01*
X50045904Y-47339404D01*
X49950666Y-47339404D01*
X49855428Y-47387023D01*
X49807809Y-47434642D01*
X49760190Y-47529880D01*
X49712571Y-47720357D01*
X49664952Y-47815595D01*
X49617333Y-47863214D01*
X49522095Y-47910833D01*
X49426857Y-47910833D01*
X49331619Y-47863214D01*
X49284000Y-47815595D01*
X49236380Y-47720357D01*
X49236380Y-47482261D01*
X49284000Y-47339404D01*
X22312261Y-48831333D02*
X22359880Y-48688476D01*
X22359880Y-48450380D01*
X22312261Y-48355142D01*
X22264642Y-48307523D01*
X22169404Y-48259904D01*
X22074166Y-48259904D01*
X21978928Y-48307523D01*
X21931309Y-48355142D01*
X21883690Y-48450380D01*
X21836071Y-48640857D01*
X21788452Y-48736095D01*
X21740833Y-48783714D01*
X21645595Y-48831333D01*
X21550357Y-48831333D01*
X21455119Y-48783714D01*
X21407500Y-48736095D01*
X21359880Y-48640857D01*
X21359880Y-48402761D01*
X21407500Y-48259904D01*
X21359880Y-47926571D02*
X22359880Y-47688476D01*
X21645595Y-47498000D01*
X22359880Y-47307523D01*
X21359880Y-47069428D01*
X22359880Y-46164666D02*
X22359880Y-46736095D01*
X22359880Y-46450380D02*
X21359880Y-46450380D01*
X21502738Y-46545619D01*
X21597976Y-46640857D01*
X21645595Y-46736095D01*
X53538380Y-61888666D02*
X53062190Y-62222000D01*
X53538380Y-62460095D02*
X52538380Y-62460095D01*
X52538380Y-62079142D01*
X52586000Y-61983904D01*
X52633619Y-61936285D01*
X52728857Y-61888666D01*
X52871714Y-61888666D01*
X52966952Y-61936285D01*
X53014571Y-61983904D01*
X53062190Y-62079142D01*
X53062190Y-62460095D01*
X52871714Y-61031523D02*
X53538380Y-61031523D01*
X52490761Y-61269619D02*
X53205047Y-61507714D01*
X53205047Y-60888666D01*
X28773380Y-48871166D02*
X28297190Y-49204500D01*
X28773380Y-49442595D02*
X27773380Y-49442595D01*
X27773380Y-49061642D01*
X27821000Y-48966404D01*
X27868619Y-48918785D01*
X27963857Y-48871166D01*
X28106714Y-48871166D01*
X28201952Y-48918785D01*
X28249571Y-48966404D01*
X28297190Y-49061642D01*
X28297190Y-49442595D01*
X27773380Y-48537833D02*
X27773380Y-47918785D01*
X28154333Y-48252119D01*
X28154333Y-48109261D01*
X28201952Y-48014023D01*
X28249571Y-47966404D01*
X28344809Y-47918785D01*
X28582904Y-47918785D01*
X28678142Y-47966404D01*
X28725761Y-48014023D01*
X28773380Y-48109261D01*
X28773380Y-48394976D01*
X28725761Y-48490214D01*
X28678142Y-48537833D01*
X62237880Y-61698166D02*
X61761690Y-62031500D01*
X62237880Y-62269595D02*
X61237880Y-62269595D01*
X61237880Y-61888642D01*
X61285500Y-61793404D01*
X61333119Y-61745785D01*
X61428357Y-61698166D01*
X61571214Y-61698166D01*
X61666452Y-61745785D01*
X61714071Y-61793404D01*
X61761690Y-61888642D01*
X61761690Y-62269595D01*
X61333119Y-61317214D02*
X61285500Y-61269595D01*
X61237880Y-61174357D01*
X61237880Y-60936261D01*
X61285500Y-60841023D01*
X61333119Y-60793404D01*
X61428357Y-60745785D01*
X61523595Y-60745785D01*
X61666452Y-60793404D01*
X62237880Y-61364833D01*
X62237880Y-60745785D01*
X37345880Y-57634166D02*
X36869690Y-57967500D01*
X37345880Y-58205595D02*
X36345880Y-58205595D01*
X36345880Y-57824642D01*
X36393500Y-57729404D01*
X36441119Y-57681785D01*
X36536357Y-57634166D01*
X36679214Y-57634166D01*
X36774452Y-57681785D01*
X36822071Y-57729404D01*
X36869690Y-57824642D01*
X36869690Y-58205595D01*
X37345880Y-56681785D02*
X37345880Y-57253214D01*
X37345880Y-56967500D02*
X36345880Y-56967500D01*
X36488738Y-57062738D01*
X36583976Y-57157976D01*
X36631595Y-57253214D01*
X27709880Y-58808833D02*
X28424166Y-58808833D01*
X28567023Y-58856452D01*
X28662261Y-58951690D01*
X28709880Y-59094547D01*
X28709880Y-59189785D01*
X28709880Y-58332642D02*
X27709880Y-58332642D01*
X27709880Y-57951690D01*
X27757500Y-57856452D01*
X27805119Y-57808833D01*
X27900357Y-57761214D01*
X28043214Y-57761214D01*
X28138452Y-57808833D01*
X28186071Y-57856452D01*
X28233690Y-57951690D01*
X28233690Y-58332642D01*
X28709880Y-56808833D02*
X28709880Y-57380261D01*
X28709880Y-57094547D02*
X27709880Y-57094547D01*
X27852738Y-57189785D01*
X27947976Y-57285023D01*
X27995595Y-57380261D01*
X62634880Y-60213833D02*
X63349166Y-60213833D01*
X63492023Y-60261452D01*
X63587261Y-60356690D01*
X63634880Y-60499547D01*
X63634880Y-60594785D01*
X62634880Y-59261452D02*
X62634880Y-59737642D01*
X63111071Y-59785261D01*
X63063452Y-59737642D01*
X63015833Y-59642404D01*
X63015833Y-59404309D01*
X63063452Y-59309071D01*
X63111071Y-59261452D01*
X63206309Y-59213833D01*
X63444404Y-59213833D01*
X63539642Y-59261452D01*
X63587261Y-59309071D01*
X63634880Y-59404309D01*
X63634880Y-59642404D01*
X63587261Y-59737642D01*
X63539642Y-59785261D01*
X21931380Y-61864833D02*
X22645666Y-61864833D01*
X22788523Y-61912452D01*
X22883761Y-62007690D01*
X22931380Y-62150547D01*
X22931380Y-62245785D01*
X22026619Y-61436261D02*
X21979000Y-61388642D01*
X21931380Y-61293404D01*
X21931380Y-61055309D01*
X21979000Y-60960071D01*
X22026619Y-60912452D01*
X22121857Y-60864833D01*
X22217095Y-60864833D01*
X22359952Y-60912452D01*
X22931380Y-61483880D01*
X22931380Y-60864833D01*
X21550380Y-55070333D02*
X22264666Y-55070333D01*
X22407523Y-55117952D01*
X22502761Y-55213190D01*
X22550380Y-55356047D01*
X22550380Y-55451285D01*
X22550380Y-54070333D02*
X22550380Y-54641761D01*
X22550380Y-54356047D02*
X21550380Y-54356047D01*
X21693238Y-54451285D01*
X21788476Y-54546523D01*
X21836095Y-54641761D01*
X32980404Y-47632880D02*
X32980404Y-46632880D01*
X33218500Y-46632880D01*
X33361357Y-46680500D01*
X33456595Y-46775738D01*
X33504214Y-46870976D01*
X33551833Y-47061452D01*
X33551833Y-47204309D01*
X33504214Y-47394785D01*
X33456595Y-47490023D01*
X33361357Y-47585261D01*
X33218500Y-47632880D01*
X32980404Y-47632880D01*
X34504214Y-47632880D02*
X33932785Y-47632880D01*
X34218500Y-47632880D02*
X34218500Y-46632880D01*
X34123261Y-46775738D01*
X34028023Y-46870976D01*
X33932785Y-46918595D01*
X37187142Y-53728857D02*
X37234761Y-53776476D01*
X37282380Y-53919333D01*
X37282380Y-54014571D01*
X37234761Y-54157428D01*
X37139523Y-54252666D01*
X37044285Y-54300285D01*
X36853809Y-54347904D01*
X36710952Y-54347904D01*
X36520476Y-54300285D01*
X36425238Y-54252666D01*
X36330000Y-54157428D01*
X36282380Y-54014571D01*
X36282380Y-53919333D01*
X36330000Y-53776476D01*
X36377619Y-53728857D01*
X37282380Y-52776476D02*
X37282380Y-53347904D01*
X37282380Y-53062190D02*
X36282380Y-53062190D01*
X36425238Y-53157428D01*
X36520476Y-53252666D01*
X36568095Y-53347904D01*
X36282380Y-52157428D02*
X36282380Y-52062190D01*
X36330000Y-51966952D01*
X36377619Y-51919333D01*
X36472857Y-51871714D01*
X36663333Y-51824095D01*
X36901428Y-51824095D01*
X37091904Y-51871714D01*
X37187142Y-51919333D01*
X37234761Y-51966952D01*
X37282380Y-52062190D01*
X37282380Y-52157428D01*
X37234761Y-52252666D01*
X37187142Y-52300285D01*
X37091904Y-52347904D01*
X36901428Y-52395523D01*
X36663333Y-52395523D01*
X36472857Y-52347904D01*
X36377619Y-52300285D01*
X36330000Y-52252666D01*
X36282380Y-52157428D01*
X37250642Y-50903166D02*
X37298261Y-50950785D01*
X37345880Y-51093642D01*
X37345880Y-51188880D01*
X37298261Y-51331738D01*
X37203023Y-51426976D01*
X37107785Y-51474595D01*
X36917309Y-51522214D01*
X36774452Y-51522214D01*
X36583976Y-51474595D01*
X36488738Y-51426976D01*
X36393500Y-51331738D01*
X36345880Y-51188880D01*
X36345880Y-51093642D01*
X36393500Y-50950785D01*
X36441119Y-50903166D01*
X37345880Y-50426976D02*
X37345880Y-50236500D01*
X37298261Y-50141261D01*
X37250642Y-50093642D01*
X37107785Y-49998404D01*
X36917309Y-49950785D01*
X36536357Y-49950785D01*
X36441119Y-49998404D01*
X36393500Y-50046023D01*
X36345880Y-50141261D01*
X36345880Y-50331738D01*
X36393500Y-50426976D01*
X36441119Y-50474595D01*
X36536357Y-50522214D01*
X36774452Y-50522214D01*
X36869690Y-50474595D01*
X36917309Y-50426976D01*
X36964928Y-50331738D01*
X36964928Y-50141261D01*
X36917309Y-50046023D01*
X36869690Y-49998404D01*
X36774452Y-49950785D01*
X45680333Y-61698142D02*
X45632714Y-61745761D01*
X45489857Y-61793380D01*
X45394619Y-61793380D01*
X45251761Y-61745761D01*
X45156523Y-61650523D01*
X45108904Y-61555285D01*
X45061285Y-61364809D01*
X45061285Y-61221952D01*
X45108904Y-61031476D01*
X45156523Y-60936238D01*
X45251761Y-60841000D01*
X45394619Y-60793380D01*
X45489857Y-60793380D01*
X45632714Y-60841000D01*
X45680333Y-60888619D01*
X46251761Y-61221952D02*
X46156523Y-61174333D01*
X46108904Y-61126714D01*
X46061285Y-61031476D01*
X46061285Y-60983857D01*
X46108904Y-60888619D01*
X46156523Y-60841000D01*
X46251761Y-60793380D01*
X46442238Y-60793380D01*
X46537476Y-60841000D01*
X46585095Y-60888619D01*
X46632714Y-60983857D01*
X46632714Y-61031476D01*
X46585095Y-61126714D01*
X46537476Y-61174333D01*
X46442238Y-61221952D01*
X46251761Y-61221952D01*
X46156523Y-61269571D01*
X46108904Y-61317190D01*
X46061285Y-61412428D01*
X46061285Y-61602904D01*
X46108904Y-61698142D01*
X46156523Y-61745761D01*
X46251761Y-61793380D01*
X46442238Y-61793380D01*
X46537476Y-61745761D01*
X46585095Y-61698142D01*
X46632714Y-61602904D01*
X46632714Y-61412428D01*
X46585095Y-61317190D01*
X46537476Y-61269571D01*
X46442238Y-61221952D01*
X38504833Y-47855142D02*
X38457214Y-47902761D01*
X38314357Y-47950380D01*
X38219119Y-47950380D01*
X38076261Y-47902761D01*
X37981023Y-47807523D01*
X37933404Y-47712285D01*
X37885785Y-47521809D01*
X37885785Y-47378952D01*
X37933404Y-47188476D01*
X37981023Y-47093238D01*
X38076261Y-46998000D01*
X38219119Y-46950380D01*
X38314357Y-46950380D01*
X38457214Y-46998000D01*
X38504833Y-47045619D01*
X38838166Y-46950380D02*
X39504833Y-46950380D01*
X39076261Y-47950380D01*
X45743833Y-63158642D02*
X45696214Y-63206261D01*
X45553357Y-63253880D01*
X45458119Y-63253880D01*
X45315261Y-63206261D01*
X45220023Y-63111023D01*
X45172404Y-63015785D01*
X45124785Y-62825309D01*
X45124785Y-62682452D01*
X45172404Y-62491976D01*
X45220023Y-62396738D01*
X45315261Y-62301500D01*
X45458119Y-62253880D01*
X45553357Y-62253880D01*
X45696214Y-62301500D01*
X45743833Y-62349119D01*
X46600976Y-62253880D02*
X46410500Y-62253880D01*
X46315261Y-62301500D01*
X46267642Y-62349119D01*
X46172404Y-62491976D01*
X46124785Y-62682452D01*
X46124785Y-63063404D01*
X46172404Y-63158642D01*
X46220023Y-63206261D01*
X46315261Y-63253880D01*
X46505738Y-63253880D01*
X46600976Y-63206261D01*
X46648595Y-63158642D01*
X46696214Y-63063404D01*
X46696214Y-62825309D01*
X46648595Y-62730071D01*
X46600976Y-62682452D01*
X46505738Y-62634833D01*
X46315261Y-62634833D01*
X46220023Y-62682452D01*
X46172404Y-62730071D01*
X46124785Y-62825309D01*
X37250642Y-55856166D02*
X37298261Y-55903785D01*
X37345880Y-56046642D01*
X37345880Y-56141880D01*
X37298261Y-56284738D01*
X37203023Y-56379976D01*
X37107785Y-56427595D01*
X36917309Y-56475214D01*
X36774452Y-56475214D01*
X36583976Y-56427595D01*
X36488738Y-56379976D01*
X36393500Y-56284738D01*
X36345880Y-56141880D01*
X36345880Y-56046642D01*
X36393500Y-55903785D01*
X36441119Y-55856166D01*
X36345880Y-54951404D02*
X36345880Y-55427595D01*
X36822071Y-55475214D01*
X36774452Y-55427595D01*
X36726833Y-55332357D01*
X36726833Y-55094261D01*
X36774452Y-54999023D01*
X36822071Y-54951404D01*
X36917309Y-54903785D01*
X37155404Y-54903785D01*
X37250642Y-54951404D01*
X37298261Y-54999023D01*
X37345880Y-55094261D01*
X37345880Y-55332357D01*
X37298261Y-55427595D01*
X37250642Y-55475214D01*
X28678142Y-47029666D02*
X28725761Y-47077285D01*
X28773380Y-47220142D01*
X28773380Y-47315380D01*
X28725761Y-47458238D01*
X28630523Y-47553476D01*
X28535285Y-47601095D01*
X28344809Y-47648714D01*
X28201952Y-47648714D01*
X28011476Y-47601095D01*
X27916238Y-47553476D01*
X27821000Y-47458238D01*
X27773380Y-47315380D01*
X27773380Y-47220142D01*
X27821000Y-47077285D01*
X27868619Y-47029666D01*
X28106714Y-46172523D02*
X28773380Y-46172523D01*
X27725761Y-46410619D02*
X28440047Y-46648714D01*
X28440047Y-46029666D01*
X49950642Y-52490666D02*
X49998261Y-52538285D01*
X50045880Y-52681142D01*
X50045880Y-52776380D01*
X49998261Y-52919238D01*
X49903023Y-53014476D01*
X49807785Y-53062095D01*
X49617309Y-53109714D01*
X49474452Y-53109714D01*
X49283976Y-53062095D01*
X49188738Y-53014476D01*
X49093500Y-52919238D01*
X49045880Y-52776380D01*
X49045880Y-52681142D01*
X49093500Y-52538285D01*
X49141119Y-52490666D01*
X49045880Y-52157333D02*
X49045880Y-51538285D01*
X49426833Y-51871619D01*
X49426833Y-51728761D01*
X49474452Y-51633523D01*
X49522071Y-51585904D01*
X49617309Y-51538285D01*
X49855404Y-51538285D01*
X49950642Y-51585904D01*
X49998261Y-51633523D01*
X50045880Y-51728761D01*
X50045880Y-52014476D01*
X49998261Y-52109714D01*
X49950642Y-52157333D01*
X28614642Y-55792666D02*
X28662261Y-55840285D01*
X28709880Y-55983142D01*
X28709880Y-56078380D01*
X28662261Y-56221238D01*
X28567023Y-56316476D01*
X28471785Y-56364095D01*
X28281309Y-56411714D01*
X28138452Y-56411714D01*
X27947976Y-56364095D01*
X27852738Y-56316476D01*
X27757500Y-56221238D01*
X27709880Y-56078380D01*
X27709880Y-55983142D01*
X27757500Y-55840285D01*
X27805119Y-55792666D01*
X27805119Y-55411714D02*
X27757500Y-55364095D01*
X27709880Y-55268857D01*
X27709880Y-55030761D01*
X27757500Y-54935523D01*
X27805119Y-54887904D01*
X27900357Y-54840285D01*
X27995595Y-54840285D01*
X28138452Y-54887904D01*
X28709880Y-55459333D01*
X28709880Y-54840285D01*
M02*
