M48
; DRILL file {KiCad 5.1.4+dfsg1-2} date Mon Dec 30 19:47:59 2019
; FORMAT={-:-/ absolute / inch / decimal}
; #@! TF.CreationDate,2019-12-30T19:47:59+08:00
; #@! TF.GenerationSoftware,Kicad,Pcbnew,5.1.4+dfsg1-2
; #@! TF.FileFunction,Plated,1,2,PTH
FMAT,2
INCH
T1C0.0120
T2C0.0157
T3C0.0200
T4C0.0217
T5C0.0315
T6C0.0335
T7C0.0394
T8C0.0551
%
G90
G05
T1
X1.2875Y-2.265
X1.4325Y-2.11
X1.465Y-2.11
X1.4675Y-2.225
X1.4825Y-1.9725
X1.535Y-2.0
X1.55Y-1.835
X1.59Y-2.105
X1.5975Y-2.0775
X1.605Y-2.135
X1.63Y-1.915
X1.64Y-2.0475
X1.6625Y-1.915
X1.6725Y-2.0425
X1.7Y-1.9125
X1.7075Y-2.0725
X1.725Y-2.2175
X1.73Y-2.265
X1.7725Y-2.14
X1.8425Y-1.865
X1.8475Y-2.385
X1.86Y-1.9625
X1.865Y-2.0025
X1.8775Y-1.8675
X1.8975Y-1.8975
X1.9125Y-1.935
X1.9275Y-2.045
X1.9275Y-2.0825
X1.9337Y-2.1262
X1.94Y-2.2675
X1.955Y-2.2025
X1.955Y-2.2375
X2.0125Y-2.39
X2.11Y-2.435
X2.115Y-2.5025
X2.4175Y-2.065
T2
X1.12Y-1.995
X1.12Y-2.195
T3
X0.8575Y-1.88
X1.3575Y-2.3375
X1.5475Y-1.9075
X1.62Y-2.215
X1.74Y-1.84
X2.085Y-1.9975
X2.1675Y-2.0275
X2.2125Y-2.1925
X2.265Y-2.1925
X2.4725Y-2.1975
X2.685Y-1.8375
T5
X2.04Y-1.915
X2.34Y-1.915
T7
X0.99Y-2.42
X1.09Y-2.42
X1.19Y-2.42
X1.29Y-2.42
X0.885Y-1.725
X0.985Y-1.725
X1.085Y-1.725
X1.185Y-1.725
X1.285Y-1.725
X1.385Y-1.725
X1.485Y-1.725
X1.585Y-1.725
X1.685Y-1.725
X1.785Y-1.725
X1.885Y-1.725
X1.985Y-1.725
X2.085Y-1.725
X2.185Y-1.725
X2.285Y-1.725
X2.385Y-1.725
X2.485Y-1.725
X2.585Y-1.725
X2.685Y-1.725
X2.785Y-1.725
X0.885Y-2.58
X0.985Y-2.58
X1.085Y-2.58
X1.185Y-2.58
X1.285Y-2.58
X1.385Y-2.58
X1.485Y-2.58
X1.585Y-2.58
X1.685Y-2.58
X1.785Y-2.58
X1.885Y-2.58
X1.985Y-2.58
X2.085Y-2.58
X2.185Y-2.58
X2.285Y-2.58
X2.385Y-2.58
X2.485Y-2.58
X2.585Y-2.58
X2.685Y-2.58
X2.785Y-2.58
T8
X2.725Y-2.0381
X2.725Y-2.235
T4
G00X0.886Y-1.9974
M15
G01X0.8604Y-1.9974
M16
G05
G00X0.886Y-2.3026
M15
G01X0.8604Y-2.3026
M16
G05
T6
G00X1.0337Y-2.0033
M15
G01X1.012Y-2.0033
M16
G05
G00X1.0337Y-2.2967
M15
G01X1.012Y-2.2967
M16
G05
T0
M30
