G04 #@! TF.GenerationSoftware,KiCad,Pcbnew,5.1.4+dfsg1-2*
G04 #@! TF.CreationDate,2019-12-30T19:47:55+08:00*
G04 #@! TF.ProjectId,usb2can,75736232-6361-46e2-9e6b-696361645f70,rev?*
G04 #@! TF.SameCoordinates,Original*
G04 #@! TF.FileFunction,Copper,L2,Bot*
G04 #@! TF.FilePolarity,Positive*
%FSLAX46Y46*%
G04 Gerber Fmt 4.6, Leading zero omitted, Abs format (unit mm)*
G04 Created by KiCad (PCBNEW 5.1.4+dfsg1-2) date 2019-12-30 19:47:55*
%MOMM*%
%LPD*%
G04 APERTURE LIST*
%ADD10O,1.700000X1.700000*%
%ADD11R,1.700000X1.700000*%
%ADD12O,1.600000X1.600000*%
%ADD13R,1.600000X1.600000*%
%ADD14O,3.600000X2.000000*%
%ADD15C,0.100000*%
%ADD16C,2.000000*%
%ADD17O,1.800000X1.150000*%
%ADD18O,2.000000X1.450000*%
%ADD19C,0.762000*%
%ADD20C,0.508000*%
%ADD21C,0.800000*%
%ADD22C,0.250000*%
%ADD23C,0.254000*%
G04 APERTURE END LIST*
D10*
X70739000Y-65532000D03*
X68199000Y-65532000D03*
X65659000Y-65532000D03*
X63119000Y-65532000D03*
X60579000Y-65532000D03*
X58039000Y-65532000D03*
X55499000Y-65532000D03*
X52959000Y-65532000D03*
X50419000Y-65532000D03*
X47879000Y-65532000D03*
X45339000Y-65532000D03*
X42799000Y-65532000D03*
X40259000Y-65532000D03*
X37719000Y-65532000D03*
X35179000Y-65532000D03*
X32639000Y-65532000D03*
X30099000Y-65532000D03*
X27559000Y-65532000D03*
X25019000Y-65532000D03*
D11*
X22479000Y-65532000D03*
D10*
X70739000Y-43815000D03*
X68199000Y-43815000D03*
X65659000Y-43815000D03*
X63119000Y-43815000D03*
X60579000Y-43815000D03*
X58039000Y-43815000D03*
X55499000Y-43815000D03*
X52959000Y-43815000D03*
X50419000Y-43815000D03*
X47879000Y-43815000D03*
X45339000Y-43815000D03*
X42799000Y-43815000D03*
X40259000Y-43815000D03*
X37719000Y-43815000D03*
X35179000Y-43815000D03*
X32639000Y-43815000D03*
X30099000Y-43815000D03*
X27559000Y-43815000D03*
X25019000Y-43815000D03*
D11*
X22479000Y-43815000D03*
D12*
X51816000Y-48641000D03*
D13*
X59436000Y-48641000D03*
D14*
X69215000Y-51769000D03*
D15*
G36*
X70789504Y-55770204D02*
G01*
X70813773Y-55773804D01*
X70837571Y-55779765D01*
X70860671Y-55788030D01*
X70882849Y-55798520D01*
X70903893Y-55811133D01*
X70923598Y-55825747D01*
X70941777Y-55842223D01*
X70958253Y-55860402D01*
X70972867Y-55880107D01*
X70985480Y-55901151D01*
X70995970Y-55923329D01*
X71004235Y-55946429D01*
X71010196Y-55970227D01*
X71013796Y-55994496D01*
X71015000Y-56019000D01*
X71015000Y-57519000D01*
X71013796Y-57543504D01*
X71010196Y-57567773D01*
X71004235Y-57591571D01*
X70995970Y-57614671D01*
X70985480Y-57636849D01*
X70972867Y-57657893D01*
X70958253Y-57677598D01*
X70941777Y-57695777D01*
X70923598Y-57712253D01*
X70903893Y-57726867D01*
X70882849Y-57739480D01*
X70860671Y-57749970D01*
X70837571Y-57758235D01*
X70813773Y-57764196D01*
X70789504Y-57767796D01*
X70765000Y-57769000D01*
X67665000Y-57769000D01*
X67640496Y-57767796D01*
X67616227Y-57764196D01*
X67592429Y-57758235D01*
X67569329Y-57749970D01*
X67547151Y-57739480D01*
X67526107Y-57726867D01*
X67506402Y-57712253D01*
X67488223Y-57695777D01*
X67471747Y-57677598D01*
X67457133Y-57657893D01*
X67444520Y-57636849D01*
X67434030Y-57614671D01*
X67425765Y-57591571D01*
X67419804Y-57567773D01*
X67416204Y-57543504D01*
X67415000Y-57519000D01*
X67415000Y-56019000D01*
X67416204Y-55994496D01*
X67419804Y-55970227D01*
X67425765Y-55946429D01*
X67434030Y-55923329D01*
X67444520Y-55901151D01*
X67457133Y-55880107D01*
X67471747Y-55860402D01*
X67488223Y-55842223D01*
X67506402Y-55825747D01*
X67526107Y-55811133D01*
X67547151Y-55798520D01*
X67569329Y-55788030D01*
X67592429Y-55779765D01*
X67616227Y-55773804D01*
X67640496Y-55770204D01*
X67665000Y-55769000D01*
X70765000Y-55769000D01*
X70789504Y-55770204D01*
X70789504Y-55770204D01*
G37*
D16*
X69215000Y-56769000D03*
D10*
X32766000Y-61468000D03*
X30226000Y-61468000D03*
X27686000Y-61468000D03*
D11*
X25146000Y-61468000D03*
D17*
X22180000Y-58485000D03*
X22180000Y-50735000D03*
D18*
X25980000Y-58335000D03*
X25980000Y-50885000D03*
D19*
X68199000Y-46672500D03*
X62801500Y-55816500D03*
X44196000Y-46736000D03*
D20*
X51117500Y-60706000D03*
D19*
X34480500Y-59372500D03*
D20*
X45021500Y-54356000D03*
X43815000Y-56324500D03*
D19*
X41148000Y-56261000D03*
D20*
X41656000Y-52006500D03*
D19*
X52959000Y-50736500D03*
X57531000Y-55689500D03*
X56197500Y-55689500D03*
X21780500Y-47752000D03*
X39306500Y-48450500D03*
D20*
X53721000Y-63563500D03*
X53594000Y-61849000D03*
X39370000Y-46609000D03*
D21*
X28448000Y-55753000D03*
X28448000Y-50673000D03*
D20*
X49117250Y-54006750D03*
D19*
X55054500Y-51498500D03*
D20*
X37274500Y-56515000D03*
X49657000Y-55943500D03*
X49657000Y-56832500D03*
X49276000Y-57594500D03*
X36385500Y-53594000D03*
X37211000Y-53594000D03*
X40767000Y-54229000D03*
X46799500Y-47371000D03*
X47688500Y-47434500D03*
X48196500Y-48196500D03*
X48577500Y-49149000D03*
X47244000Y-49847500D03*
X47371000Y-50863500D03*
X48958500Y-51943000D03*
X48958500Y-52895500D03*
X40386000Y-53467000D03*
X40576500Y-52768500D03*
X37655500Y-50101500D03*
X38989000Y-50800000D03*
X41402000Y-48641000D03*
X42227500Y-48641000D03*
X46926500Y-60579000D03*
X43180000Y-48577500D03*
X42481500Y-51879500D03*
X43370500Y-52641500D03*
X43942000Y-57531000D03*
X32702500Y-57531000D03*
X61404500Y-52451000D03*
D22*
X28448000Y-55753000D02*
X28448000Y-50673000D01*
X60579000Y-65532000D02*
X49149000Y-54102000D01*
X62269001Y-44664999D02*
X63119000Y-43815000D01*
X60610499Y-44990001D02*
X61943999Y-44990001D01*
X61943999Y-44990001D02*
X62269001Y-44664999D01*
X55054500Y-50546000D02*
X60610499Y-44990001D01*
X55054500Y-51498500D02*
X55054500Y-50546000D01*
X27559000Y-64135000D02*
X27559000Y-65532000D01*
X30226000Y-61468000D02*
X27559000Y-64135000D01*
X37147500Y-56388000D02*
X37274500Y-56515000D01*
X31432500Y-56388000D02*
X37147500Y-56388000D01*
X30226000Y-57594500D02*
X31432500Y-56388000D01*
X30226000Y-61468000D02*
X30226000Y-57594500D01*
X58039000Y-64325500D02*
X58039000Y-65532000D01*
X49657000Y-55943500D02*
X58039000Y-64325500D01*
X55499000Y-62674500D02*
X55499000Y-65532000D01*
X49657000Y-56832500D02*
X55499000Y-62674500D01*
X52959000Y-61277500D02*
X52959000Y-65532000D01*
X49276000Y-57594500D02*
X52959000Y-61277500D01*
X32802999Y-49947999D02*
X27511999Y-49947999D01*
X27511999Y-49947999D02*
X22479000Y-44915000D01*
X22479000Y-44915000D02*
X22479000Y-43815000D01*
X32802999Y-50011499D02*
X36385500Y-53594000D01*
X32802999Y-49947999D02*
X32802999Y-50011499D01*
X33178489Y-49497989D02*
X28860489Y-49497989D01*
X25019000Y-45656500D02*
X25019000Y-43815000D01*
X28860489Y-49497989D02*
X25019000Y-45656500D01*
X33178489Y-49561489D02*
X37211000Y-53594000D01*
X33178489Y-49497989D02*
X33178489Y-49561489D01*
X27559000Y-45017081D02*
X28511500Y-45969581D01*
X27559000Y-43815000D02*
X27559000Y-45017081D01*
X28511500Y-45969581D02*
X30602581Y-45969581D01*
X30602581Y-45969581D02*
X37274500Y-52641500D01*
X37274500Y-52641500D02*
X38512750Y-53879750D01*
X38862000Y-54229000D02*
X38512750Y-53879750D01*
X40767000Y-54229000D02*
X38862000Y-54229000D01*
X52109001Y-44664999D02*
X52959000Y-43815000D01*
X51023988Y-45750012D02*
X52109001Y-44664999D01*
X48420488Y-45750012D02*
X48671012Y-45750012D01*
X46799500Y-47371000D02*
X48420488Y-45750012D01*
X48547488Y-45750012D02*
X48671012Y-45750012D01*
X48671012Y-45750012D02*
X51023988Y-45750012D01*
X54649001Y-44664999D02*
X55499000Y-43815000D01*
X53113978Y-46200022D02*
X54649001Y-44664999D01*
X48922978Y-46200022D02*
X53113978Y-46200022D01*
X47688500Y-47434500D02*
X48922978Y-46200022D01*
X55203968Y-46650032D02*
X57189001Y-44664999D01*
X57189001Y-44664999D02*
X58039000Y-43815000D01*
X49742968Y-46650032D02*
X55203968Y-46650032D01*
X48196500Y-48196500D02*
X49742968Y-46650032D01*
X57293958Y-47100042D02*
X59729001Y-44664999D01*
X48577500Y-48789790D02*
X50267248Y-47100042D01*
X59729001Y-44664999D02*
X60579000Y-43815000D01*
X50267248Y-47100042D02*
X57293958Y-47100042D01*
X48577500Y-49149000D02*
X48577500Y-48789790D01*
X70739000Y-65532000D02*
X65849500Y-60642500D01*
X65849500Y-60642500D02*
X59817000Y-60642500D01*
X59817000Y-60642500D02*
X49022000Y-49847500D01*
X49022000Y-49847500D02*
X47244000Y-49847500D01*
X47244000Y-49847500D02*
X47180500Y-49847500D01*
X68199000Y-65532000D02*
X64135000Y-61468000D01*
X64135000Y-61468000D02*
X59563000Y-61468000D01*
X59563000Y-61468000D02*
X48958500Y-50863500D01*
X48958500Y-50863500D02*
X47307500Y-50863500D01*
X48958500Y-51943000D02*
X59499500Y-62484000D01*
X62611000Y-62484000D02*
X65659000Y-65532000D01*
X59499500Y-62484000D02*
X62611000Y-62484000D01*
X48958500Y-52895500D02*
X59372500Y-63309500D01*
X60896500Y-63309500D02*
X63119000Y-65532000D01*
X59372500Y-63309500D02*
X60896500Y-63309500D01*
X30948999Y-44664999D02*
X30099000Y-43815000D01*
X39211578Y-53467000D02*
X30948999Y-45204421D01*
X30948999Y-45204421D02*
X30948999Y-44664999D01*
X40386000Y-53467000D02*
X39211578Y-53467000D01*
X32639000Y-45017081D02*
X32639000Y-43815000D01*
X32639000Y-45941922D02*
X32639000Y-45017081D01*
X39211579Y-52514501D02*
X32639000Y-45941922D01*
X40322501Y-52514501D02*
X39211579Y-52514501D01*
X40576500Y-52768500D02*
X40322501Y-52514501D01*
X35179000Y-47625000D02*
X35179000Y-43815000D01*
X37655500Y-50101500D02*
X35179000Y-47625000D01*
X38989000Y-50800000D02*
X38989000Y-49593500D01*
X37719000Y-48323500D02*
X37719000Y-43815000D01*
X38989000Y-49593500D02*
X37719000Y-48323500D01*
X41402000Y-44958000D02*
X40259000Y-43815000D01*
X41402000Y-44958000D02*
X41402000Y-48641000D01*
X42418000Y-44196000D02*
X42799000Y-43815000D01*
X42227500Y-44386500D02*
X42799000Y-43815000D01*
X42227500Y-48641000D02*
X42227500Y-44386500D01*
X46926500Y-62039500D02*
X50419000Y-65532000D01*
X46926500Y-60579000D02*
X46926500Y-62039500D01*
X43180000Y-45974000D02*
X43180000Y-48577500D01*
X45339000Y-43815000D02*
X43180000Y-45974000D01*
X47029001Y-44664999D02*
X47879000Y-43815000D01*
X47029001Y-45585421D02*
X47029001Y-44664999D01*
X42926000Y-49688422D02*
X47029001Y-45585421D01*
X42926000Y-51075790D02*
X42926000Y-49688422D01*
X42481500Y-51520290D02*
X42926000Y-51075790D01*
X42481500Y-51879500D02*
X42481500Y-51520290D01*
X43370500Y-52282290D02*
X43376010Y-52276780D01*
X43370500Y-52641500D02*
X43370500Y-52282290D01*
X43376010Y-52276780D02*
X43376010Y-50488010D01*
X43376010Y-50488010D02*
X43376010Y-50318568D01*
X49569001Y-44664999D02*
X50419000Y-43815000D01*
X43376010Y-49874822D02*
X43376010Y-50488010D01*
X47950830Y-45300002D02*
X43376010Y-49874822D01*
X50419000Y-43815000D02*
X48933998Y-45300002D01*
X48933998Y-45300002D02*
X47950830Y-45300002D01*
X43942000Y-57531000D02*
X32702500Y-57531000D01*
X32702500Y-57531000D02*
X32702500Y-57531000D01*
X60486000Y-48641000D02*
X59436000Y-48641000D01*
X61404500Y-52451000D02*
X61404500Y-49559500D01*
X61404500Y-49559500D02*
X60486000Y-48641000D01*
D23*
G36*
X73381001Y-67031000D02*
G01*
X19583000Y-67031000D01*
X19583000Y-62318000D01*
X23785542Y-62318000D01*
X23795350Y-62417585D01*
X23824398Y-62513344D01*
X23871570Y-62601595D01*
X23935052Y-62678948D01*
X24012405Y-62742430D01*
X24100656Y-62789602D01*
X24196415Y-62818650D01*
X24296000Y-62828458D01*
X24955500Y-62826000D01*
X25082500Y-62699000D01*
X25082500Y-61531500D01*
X23915000Y-61531500D01*
X23788000Y-61658500D01*
X23785542Y-62318000D01*
X19583000Y-62318000D01*
X19583000Y-60618000D01*
X23785542Y-60618000D01*
X23788000Y-61277500D01*
X23915000Y-61404500D01*
X25082500Y-61404500D01*
X25082500Y-60237000D01*
X24955500Y-60110000D01*
X24296000Y-60107542D01*
X24196415Y-60117350D01*
X24100656Y-60146398D01*
X24012405Y-60193570D01*
X23935052Y-60257052D01*
X23871570Y-60334405D01*
X23824398Y-60422656D01*
X23795350Y-60518415D01*
X23785542Y-60618000D01*
X19583000Y-60618000D01*
X19583000Y-58716845D01*
X20797107Y-58716845D01*
X20830138Y-58840780D01*
X20919240Y-59033884D01*
X21044302Y-59205895D01*
X21200519Y-59350203D01*
X21381887Y-59461261D01*
X21581437Y-59534802D01*
X21791500Y-59568000D01*
X22116500Y-59568000D01*
X22116500Y-58548500D01*
X22243500Y-58548500D01*
X22243500Y-59568000D01*
X22568500Y-59568000D01*
X22778563Y-59534802D01*
X22978113Y-59461261D01*
X23159481Y-59350203D01*
X23315698Y-59205895D01*
X23440760Y-59033884D01*
X23529862Y-58840780D01*
X23562893Y-58716845D01*
X23484742Y-58590346D01*
X24498730Y-58590346D01*
X24541557Y-58748183D01*
X24644520Y-58967220D01*
X24788237Y-59161961D01*
X24967184Y-59324923D01*
X25174485Y-59449843D01*
X25402174Y-59531920D01*
X25641500Y-59568000D01*
X25916500Y-59568000D01*
X25916500Y-58398500D01*
X26043500Y-58398500D01*
X26043500Y-59568000D01*
X26318500Y-59568000D01*
X26557826Y-59531920D01*
X26785515Y-59449843D01*
X26992816Y-59324923D01*
X27171763Y-59161961D01*
X27315480Y-58967220D01*
X27418443Y-58748183D01*
X27461270Y-58590346D01*
X27359176Y-58398500D01*
X26043500Y-58398500D01*
X25916500Y-58398500D01*
X24600824Y-58398500D01*
X24498730Y-58590346D01*
X23484742Y-58590346D01*
X23458889Y-58548500D01*
X22243500Y-58548500D01*
X22116500Y-58548500D01*
X20901111Y-58548500D01*
X20797107Y-58716845D01*
X19583000Y-58716845D01*
X19583000Y-58253155D01*
X20797107Y-58253155D01*
X20901111Y-58421500D01*
X22116500Y-58421500D01*
X22116500Y-57402000D01*
X22243500Y-57402000D01*
X22243500Y-58421500D01*
X23458889Y-58421500D01*
X23562893Y-58253155D01*
X23529862Y-58129220D01*
X23440760Y-57936116D01*
X23315698Y-57764105D01*
X23159481Y-57619797D01*
X22978113Y-57508739D01*
X22778563Y-57435198D01*
X22568500Y-57402000D01*
X22243500Y-57402000D01*
X22116500Y-57402000D01*
X21791500Y-57402000D01*
X21581437Y-57435198D01*
X21381887Y-57508739D01*
X21200519Y-57619797D01*
X21044302Y-57764105D01*
X20919240Y-57936116D01*
X20830138Y-58129220D01*
X20797107Y-58253155D01*
X19583000Y-58253155D01*
X19583000Y-57110000D01*
X24017607Y-57110000D01*
X24035138Y-57287999D01*
X24087059Y-57459158D01*
X24171373Y-57616898D01*
X24284841Y-57755159D01*
X24423102Y-57868627D01*
X24539158Y-57930660D01*
X24498730Y-58079654D01*
X24600824Y-58271500D01*
X25916500Y-58271500D01*
X25916500Y-57102000D01*
X26043500Y-57102000D01*
X26043500Y-58271500D01*
X27359176Y-58271500D01*
X27461270Y-58079654D01*
X27418443Y-57921817D01*
X27315480Y-57702780D01*
X27171763Y-57508039D01*
X26992816Y-57345077D01*
X26785515Y-57220157D01*
X26557826Y-57138080D01*
X26318500Y-57102000D01*
X26043500Y-57102000D01*
X25916500Y-57102000D01*
X25841605Y-57102000D01*
X25824862Y-56932001D01*
X25772941Y-56760842D01*
X25688627Y-56603102D01*
X25575159Y-56464841D01*
X25436898Y-56351373D01*
X25279158Y-56267059D01*
X25107999Y-56215138D01*
X24974604Y-56202000D01*
X24885396Y-56202000D01*
X24752001Y-56215138D01*
X24580842Y-56267059D01*
X24423102Y-56351373D01*
X24284841Y-56464841D01*
X24171373Y-56603102D01*
X24087059Y-56760842D01*
X24035138Y-56932001D01*
X24017607Y-57110000D01*
X19583000Y-57110000D01*
X19583000Y-52110000D01*
X24017607Y-52110000D01*
X24035138Y-52287999D01*
X24087059Y-52459158D01*
X24171373Y-52616898D01*
X24284841Y-52755159D01*
X24423102Y-52868627D01*
X24580842Y-52952941D01*
X24752001Y-53004862D01*
X24885396Y-53018000D01*
X24974604Y-53018000D01*
X25107999Y-53004862D01*
X25279158Y-52952941D01*
X25436898Y-52868627D01*
X25575159Y-52755159D01*
X25688627Y-52616898D01*
X25772941Y-52459158D01*
X25824862Y-52287999D01*
X25841605Y-52118000D01*
X25916500Y-52118000D01*
X25916500Y-50948500D01*
X26043500Y-50948500D01*
X26043500Y-52118000D01*
X26318500Y-52118000D01*
X26557826Y-52081920D01*
X26785515Y-51999843D01*
X26992816Y-51874923D01*
X27171763Y-51711961D01*
X27315480Y-51517220D01*
X27418443Y-51298183D01*
X27461270Y-51140346D01*
X27359176Y-50948500D01*
X26043500Y-50948500D01*
X25916500Y-50948500D01*
X24600824Y-50948500D01*
X24498730Y-51140346D01*
X24539158Y-51289340D01*
X24423102Y-51351373D01*
X24284841Y-51464841D01*
X24171373Y-51603102D01*
X24087059Y-51760842D01*
X24035138Y-51932001D01*
X24017607Y-52110000D01*
X19583000Y-52110000D01*
X19583000Y-50966845D01*
X20797107Y-50966845D01*
X20830138Y-51090780D01*
X20919240Y-51283884D01*
X21044302Y-51455895D01*
X21200519Y-51600203D01*
X21381887Y-51711261D01*
X21581437Y-51784802D01*
X21791500Y-51818000D01*
X22116500Y-51818000D01*
X22116500Y-50798500D01*
X22243500Y-50798500D01*
X22243500Y-51818000D01*
X22568500Y-51818000D01*
X22778563Y-51784802D01*
X22978113Y-51711261D01*
X23159481Y-51600203D01*
X23315698Y-51455895D01*
X23440760Y-51283884D01*
X23529862Y-51090780D01*
X23562893Y-50966845D01*
X23458889Y-50798500D01*
X22243500Y-50798500D01*
X22116500Y-50798500D01*
X20901111Y-50798500D01*
X20797107Y-50966845D01*
X19583000Y-50966845D01*
X19583000Y-50503155D01*
X20797107Y-50503155D01*
X20901111Y-50671500D01*
X22116500Y-50671500D01*
X22116500Y-49652000D01*
X22243500Y-49652000D01*
X22243500Y-50671500D01*
X23458889Y-50671500D01*
X23484741Y-50629654D01*
X24498730Y-50629654D01*
X24600824Y-50821500D01*
X25916500Y-50821500D01*
X25916500Y-49652000D01*
X25641500Y-49652000D01*
X25402174Y-49688080D01*
X25174485Y-49770157D01*
X24967184Y-49895077D01*
X24788237Y-50058039D01*
X24644520Y-50252780D01*
X24541557Y-50471817D01*
X24498730Y-50629654D01*
X23484741Y-50629654D01*
X23562893Y-50503155D01*
X23529862Y-50379220D01*
X23440760Y-50186116D01*
X23315698Y-50014105D01*
X23159481Y-49869797D01*
X22978113Y-49758739D01*
X22778563Y-49685198D01*
X22568500Y-49652000D01*
X22243500Y-49652000D01*
X22116500Y-49652000D01*
X21791500Y-49652000D01*
X21581437Y-49685198D01*
X21381887Y-49758739D01*
X21200519Y-49869797D01*
X21044302Y-50014105D01*
X20919240Y-50186116D01*
X20830138Y-50379220D01*
X20797107Y-50503155D01*
X19583000Y-50503155D01*
X19583000Y-42965000D01*
X21118543Y-42965000D01*
X21118543Y-44665000D01*
X21128351Y-44764585D01*
X21157399Y-44860343D01*
X21204571Y-44948595D01*
X21268052Y-45025948D01*
X21345405Y-45089429D01*
X21433657Y-45136601D01*
X21529415Y-45165649D01*
X21629000Y-45175457D01*
X21900467Y-45175457D01*
X21950134Y-45268376D01*
X22029236Y-45364764D01*
X22053387Y-45384584D01*
X26321212Y-49652409D01*
X26318500Y-49652000D01*
X26043500Y-49652000D01*
X26043500Y-50821500D01*
X27359176Y-50821500D01*
X27461270Y-50629654D01*
X27447166Y-50577675D01*
X27480911Y-50580999D01*
X27480912Y-50580999D01*
X27511998Y-50584061D01*
X27540460Y-50581257D01*
X27540000Y-50583570D01*
X27540000Y-50762430D01*
X27574894Y-50937854D01*
X27643341Y-51103099D01*
X27742711Y-51251816D01*
X27815001Y-51324106D01*
X27815000Y-55101895D01*
X27742711Y-55174184D01*
X27643341Y-55322901D01*
X27574894Y-55488146D01*
X27540000Y-55663570D01*
X27540000Y-55842430D01*
X27574894Y-56017854D01*
X27643341Y-56183099D01*
X27742711Y-56331816D01*
X27869184Y-56458289D01*
X28017901Y-56557659D01*
X28183146Y-56626106D01*
X28358570Y-56661000D01*
X28537430Y-56661000D01*
X28712854Y-56626106D01*
X28878099Y-56557659D01*
X29026816Y-56458289D01*
X29153289Y-56331816D01*
X29252659Y-56183099D01*
X29321106Y-56017854D01*
X29356000Y-55842430D01*
X29356000Y-55663570D01*
X29321106Y-55488146D01*
X29252659Y-55322901D01*
X29153289Y-55174184D01*
X29081000Y-55101895D01*
X29081000Y-51324105D01*
X29153289Y-51251816D01*
X29252659Y-51103099D01*
X29321106Y-50937854D01*
X29356000Y-50762430D01*
X29356000Y-50583570D01*
X29355489Y-50580999D01*
X32477302Y-50580999D01*
X35637938Y-53741635D01*
X35652783Y-53816267D01*
X35710224Y-53954942D01*
X35793616Y-54079747D01*
X35899753Y-54185884D01*
X36024558Y-54269276D01*
X36163233Y-54326717D01*
X36310450Y-54356000D01*
X36460550Y-54356000D01*
X36607767Y-54326717D01*
X36746442Y-54269276D01*
X36798250Y-54234659D01*
X36850058Y-54269276D01*
X36988733Y-54326717D01*
X37135950Y-54356000D01*
X37286050Y-54356000D01*
X37433267Y-54326717D01*
X37571942Y-54269276D01*
X37696747Y-54185884D01*
X37802884Y-54079747D01*
X37808758Y-54070956D01*
X38087133Y-54349331D01*
X38087139Y-54349336D01*
X38392416Y-54654613D01*
X38412236Y-54678764D01*
X38508623Y-54757866D01*
X38618590Y-54816645D01*
X38737910Y-54852840D01*
X38830912Y-54862000D01*
X38830913Y-54862000D01*
X38861999Y-54865062D01*
X38893085Y-54862000D01*
X40342787Y-54862000D01*
X40406058Y-54904276D01*
X40544733Y-54961717D01*
X40691950Y-54991000D01*
X40842050Y-54991000D01*
X40989267Y-54961717D01*
X41127942Y-54904276D01*
X41252747Y-54820884D01*
X41358884Y-54714747D01*
X41442276Y-54589942D01*
X41499717Y-54451267D01*
X41529000Y-54304050D01*
X41529000Y-54153950D01*
X41499717Y-54006733D01*
X41442276Y-53868058D01*
X41358884Y-53743253D01*
X41252747Y-53637116D01*
X41143597Y-53564184D01*
X41148000Y-53542050D01*
X41148000Y-53391950D01*
X41128536Y-53294095D01*
X41168384Y-53254247D01*
X41251776Y-53129442D01*
X41309217Y-52990767D01*
X41338500Y-52843550D01*
X41338500Y-52693450D01*
X41309217Y-52546233D01*
X41251776Y-52407558D01*
X41168384Y-52282753D01*
X41062247Y-52176616D01*
X40937442Y-52093224D01*
X40798767Y-52035783D01*
X40717219Y-52019562D01*
X40675878Y-51985635D01*
X40565911Y-51926856D01*
X40446591Y-51890661D01*
X40353589Y-51881501D01*
X40322501Y-51878439D01*
X40291413Y-51881501D01*
X39473776Y-51881501D01*
X39139306Y-51547031D01*
X39211267Y-51532717D01*
X39349942Y-51475276D01*
X39474747Y-51391884D01*
X39580884Y-51285747D01*
X39664276Y-51160942D01*
X39721717Y-51022267D01*
X39751000Y-50875050D01*
X39751000Y-50724950D01*
X39721717Y-50577733D01*
X39664276Y-50439058D01*
X39622000Y-50375787D01*
X39622000Y-49624585D01*
X39625062Y-49593499D01*
X39617965Y-49521445D01*
X39612840Y-49469410D01*
X39576645Y-49350090D01*
X39570985Y-49339500D01*
X39517866Y-49240123D01*
X39486038Y-49201340D01*
X39438764Y-49143736D01*
X39414613Y-49123916D01*
X38352000Y-48061303D01*
X38352000Y-45016473D01*
X38477114Y-44949598D01*
X38683897Y-44779897D01*
X38853598Y-44573114D01*
X38979698Y-44337198D01*
X38989000Y-44306533D01*
X38998302Y-44337198D01*
X39124402Y-44573114D01*
X39294103Y-44779897D01*
X39500886Y-44949598D01*
X39736802Y-45075698D01*
X39992786Y-45153350D01*
X40192294Y-45173000D01*
X40325706Y-45173000D01*
X40525214Y-45153350D01*
X40660971Y-45112169D01*
X40769000Y-45220198D01*
X40769001Y-48216786D01*
X40726724Y-48280058D01*
X40669283Y-48418733D01*
X40640000Y-48565950D01*
X40640000Y-48716050D01*
X40669283Y-48863267D01*
X40726724Y-49001942D01*
X40810116Y-49126747D01*
X40916253Y-49232884D01*
X41041058Y-49316276D01*
X41179733Y-49373717D01*
X41326950Y-49403000D01*
X41477050Y-49403000D01*
X41624267Y-49373717D01*
X41762942Y-49316276D01*
X41814750Y-49281659D01*
X41866558Y-49316276D01*
X42005233Y-49373717D01*
X42152450Y-49403000D01*
X42302550Y-49403000D01*
X42367743Y-49390032D01*
X42338356Y-49445012D01*
X42302160Y-49564333D01*
X42289938Y-49688422D01*
X42293001Y-49719520D01*
X42293000Y-50813592D01*
X42055882Y-51050711D01*
X42031737Y-51070526D01*
X41952634Y-51166913D01*
X41893855Y-51276880D01*
X41857660Y-51396200D01*
X41852418Y-51449424D01*
X41806224Y-51518558D01*
X41748783Y-51657233D01*
X41719500Y-51804450D01*
X41719500Y-51954550D01*
X41748783Y-52101767D01*
X41806224Y-52240442D01*
X41889616Y-52365247D01*
X41995753Y-52471384D01*
X42120558Y-52554776D01*
X42259233Y-52612217D01*
X42406450Y-52641500D01*
X42556550Y-52641500D01*
X42608500Y-52631167D01*
X42608500Y-52716550D01*
X42637783Y-52863767D01*
X42695224Y-53002442D01*
X42778616Y-53127247D01*
X42884753Y-53233384D01*
X43009558Y-53316776D01*
X43148233Y-53374217D01*
X43295450Y-53403500D01*
X43445550Y-53403500D01*
X43592767Y-53374217D01*
X43731442Y-53316776D01*
X43856247Y-53233384D01*
X43962384Y-53127247D01*
X44045776Y-53002442D01*
X44103217Y-52863767D01*
X44132500Y-52716550D01*
X44132500Y-52566450D01*
X44103217Y-52419233D01*
X44045776Y-52280558D01*
X44009010Y-52225534D01*
X44009010Y-50137019D01*
X46248449Y-47897580D01*
X46313753Y-47962884D01*
X46438558Y-48046276D01*
X46577233Y-48103717D01*
X46724450Y-48133000D01*
X46874550Y-48133000D01*
X47021767Y-48103717D01*
X47160442Y-48046276D01*
X47197730Y-48021361D01*
X47202753Y-48026384D01*
X47327558Y-48109776D01*
X47434500Y-48154073D01*
X47434500Y-48271550D01*
X47463783Y-48418767D01*
X47521224Y-48557442D01*
X47604616Y-48682247D01*
X47710753Y-48788384D01*
X47835558Y-48871776D01*
X47862862Y-48883086D01*
X47844783Y-48926733D01*
X47815500Y-49073950D01*
X47815500Y-49214500D01*
X47668213Y-49214500D01*
X47604942Y-49172224D01*
X47466267Y-49114783D01*
X47319050Y-49085500D01*
X47168950Y-49085500D01*
X47021733Y-49114783D01*
X46883058Y-49172224D01*
X46758253Y-49255616D01*
X46652116Y-49361753D01*
X46568724Y-49486558D01*
X46511283Y-49625233D01*
X46482000Y-49772450D01*
X46482000Y-49922550D01*
X46511283Y-50069767D01*
X46568724Y-50208442D01*
X46652116Y-50333247D01*
X46746074Y-50427205D01*
X46695724Y-50502558D01*
X46638283Y-50641233D01*
X46609000Y-50788450D01*
X46609000Y-50938550D01*
X46638283Y-51085767D01*
X46695724Y-51224442D01*
X46779116Y-51349247D01*
X46885253Y-51455384D01*
X47010058Y-51538776D01*
X47148733Y-51596217D01*
X47295950Y-51625500D01*
X47446050Y-51625500D01*
X47593267Y-51596217D01*
X47731942Y-51538776D01*
X47795213Y-51496500D01*
X48340392Y-51496500D01*
X48283224Y-51582058D01*
X48225783Y-51720733D01*
X48196500Y-51867950D01*
X48196500Y-52018050D01*
X48225783Y-52165267D01*
X48283224Y-52303942D01*
X48360270Y-52419250D01*
X48283224Y-52534558D01*
X48225783Y-52673233D01*
X48196500Y-52820450D01*
X48196500Y-52970550D01*
X48225783Y-53117767D01*
X48283224Y-53256442D01*
X48366616Y-53381247D01*
X48472753Y-53487384D01*
X48524657Y-53522065D01*
X48441974Y-53645808D01*
X48384533Y-53784483D01*
X48355250Y-53931700D01*
X48355250Y-54081800D01*
X48384533Y-54229017D01*
X48441974Y-54367692D01*
X48525366Y-54492497D01*
X48631503Y-54598634D01*
X48756308Y-54682026D01*
X48888644Y-54736842D01*
X49383717Y-55231914D01*
X49296058Y-55268224D01*
X49171253Y-55351616D01*
X49065116Y-55457753D01*
X48981724Y-55582558D01*
X48924283Y-55721233D01*
X48895000Y-55868450D01*
X48895000Y-56018550D01*
X48924283Y-56165767D01*
X48981724Y-56304442D01*
X49037556Y-56388000D01*
X48981724Y-56471558D01*
X48924283Y-56610233D01*
X48895000Y-56757450D01*
X48895000Y-56907550D01*
X48899403Y-56929684D01*
X48790253Y-57002616D01*
X48684116Y-57108753D01*
X48600724Y-57233558D01*
X48543283Y-57372233D01*
X48514000Y-57519450D01*
X48514000Y-57669550D01*
X48543283Y-57816767D01*
X48600724Y-57955442D01*
X48684116Y-58080247D01*
X48790253Y-58186384D01*
X48915058Y-58269776D01*
X49053733Y-58327217D01*
X49128365Y-58342062D01*
X52326000Y-61539697D01*
X52326001Y-64330527D01*
X52200886Y-64397402D01*
X51994103Y-64567103D01*
X51824402Y-64773886D01*
X51698302Y-65009802D01*
X51689000Y-65040467D01*
X51679698Y-65009802D01*
X51553598Y-64773886D01*
X51383897Y-64567103D01*
X51177114Y-64397402D01*
X50941198Y-64271302D01*
X50685214Y-64193650D01*
X50485706Y-64174000D01*
X50352294Y-64174000D01*
X50152786Y-64193650D01*
X50017029Y-64234832D01*
X47559500Y-61777303D01*
X47559500Y-61003213D01*
X47601776Y-60939942D01*
X47659217Y-60801267D01*
X47688500Y-60654050D01*
X47688500Y-60503950D01*
X47659217Y-60356733D01*
X47601776Y-60218058D01*
X47518384Y-60093253D01*
X47412247Y-59987116D01*
X47287442Y-59903724D01*
X47148767Y-59846283D01*
X47001550Y-59817000D01*
X46851450Y-59817000D01*
X46704233Y-59846283D01*
X46565558Y-59903724D01*
X46440753Y-59987116D01*
X46334616Y-60093253D01*
X46251224Y-60218058D01*
X46193783Y-60356733D01*
X46164500Y-60503950D01*
X46164500Y-60654050D01*
X46193783Y-60801267D01*
X46251224Y-60939942D01*
X46293500Y-61003213D01*
X46293501Y-62008402D01*
X46290438Y-62039500D01*
X46302660Y-62163589D01*
X46338856Y-62282910D01*
X46380014Y-62359910D01*
X46397635Y-62392877D01*
X46476737Y-62489264D01*
X46500883Y-62509080D01*
X48202974Y-64211171D01*
X48145214Y-64193650D01*
X47945706Y-64174000D01*
X47812294Y-64174000D01*
X47612786Y-64193650D01*
X47356802Y-64271302D01*
X47120886Y-64397402D01*
X46914103Y-64567103D01*
X46744402Y-64773886D01*
X46618302Y-65009802D01*
X46609000Y-65040467D01*
X46599698Y-65009802D01*
X46473598Y-64773886D01*
X46303897Y-64567103D01*
X46097114Y-64397402D01*
X45861198Y-64271302D01*
X45605214Y-64193650D01*
X45405706Y-64174000D01*
X45272294Y-64174000D01*
X45072786Y-64193650D01*
X44816802Y-64271302D01*
X44580886Y-64397402D01*
X44374103Y-64567103D01*
X44204402Y-64773886D01*
X44078302Y-65009802D01*
X44069000Y-65040467D01*
X44059698Y-65009802D01*
X43933598Y-64773886D01*
X43763897Y-64567103D01*
X43557114Y-64397402D01*
X43321198Y-64271302D01*
X43065214Y-64193650D01*
X42865706Y-64174000D01*
X42732294Y-64174000D01*
X42532786Y-64193650D01*
X42276802Y-64271302D01*
X42040886Y-64397402D01*
X41834103Y-64567103D01*
X41664402Y-64773886D01*
X41538302Y-65009802D01*
X41529000Y-65040467D01*
X41519698Y-65009802D01*
X41393598Y-64773886D01*
X41223897Y-64567103D01*
X41017114Y-64397402D01*
X40781198Y-64271302D01*
X40525214Y-64193650D01*
X40325706Y-64174000D01*
X40192294Y-64174000D01*
X39992786Y-64193650D01*
X39736802Y-64271302D01*
X39500886Y-64397402D01*
X39294103Y-64567103D01*
X39124402Y-64773886D01*
X38998302Y-65009802D01*
X38989000Y-65040467D01*
X38979698Y-65009802D01*
X38853598Y-64773886D01*
X38683897Y-64567103D01*
X38477114Y-64397402D01*
X38241198Y-64271302D01*
X37985214Y-64193650D01*
X37785706Y-64174000D01*
X37652294Y-64174000D01*
X37452786Y-64193650D01*
X37196802Y-64271302D01*
X36960886Y-64397402D01*
X36754103Y-64567103D01*
X36584402Y-64773886D01*
X36458302Y-65009802D01*
X36449000Y-65040467D01*
X36439698Y-65009802D01*
X36313598Y-64773886D01*
X36143897Y-64567103D01*
X35937114Y-64397402D01*
X35701198Y-64271302D01*
X35445214Y-64193650D01*
X35245706Y-64174000D01*
X35112294Y-64174000D01*
X34912786Y-64193650D01*
X34656802Y-64271302D01*
X34420886Y-64397402D01*
X34214103Y-64567103D01*
X34044402Y-64773886D01*
X33918302Y-65009802D01*
X33909000Y-65040467D01*
X33899698Y-65009802D01*
X33773598Y-64773886D01*
X33603897Y-64567103D01*
X33397114Y-64397402D01*
X33161198Y-64271302D01*
X32905214Y-64193650D01*
X32705706Y-64174000D01*
X32572294Y-64174000D01*
X32372786Y-64193650D01*
X32116802Y-64271302D01*
X31880886Y-64397402D01*
X31674103Y-64567103D01*
X31504402Y-64773886D01*
X31378302Y-65009802D01*
X31369000Y-65040467D01*
X31359698Y-65009802D01*
X31233598Y-64773886D01*
X31063897Y-64567103D01*
X30857114Y-64397402D01*
X30621198Y-64271302D01*
X30365214Y-64193650D01*
X30165706Y-64174000D01*
X30032294Y-64174000D01*
X29832786Y-64193650D01*
X29576802Y-64271302D01*
X29340886Y-64397402D01*
X29134103Y-64567103D01*
X28964402Y-64773886D01*
X28838302Y-65009802D01*
X28829000Y-65040467D01*
X28819698Y-65009802D01*
X28693598Y-64773886D01*
X28523897Y-64567103D01*
X28317114Y-64397402D01*
X28235447Y-64353750D01*
X29824029Y-62765168D01*
X29959786Y-62806350D01*
X30159294Y-62826000D01*
X30292706Y-62826000D01*
X30492214Y-62806350D01*
X30748198Y-62728698D01*
X30984114Y-62602598D01*
X31190897Y-62432897D01*
X31360598Y-62226114D01*
X31486698Y-61990198D01*
X31496000Y-61959533D01*
X31505302Y-61990198D01*
X31631402Y-62226114D01*
X31801103Y-62432897D01*
X32007886Y-62602598D01*
X32243802Y-62728698D01*
X32499786Y-62806350D01*
X32699294Y-62826000D01*
X32832706Y-62826000D01*
X33032214Y-62806350D01*
X33288198Y-62728698D01*
X33524114Y-62602598D01*
X33730897Y-62432897D01*
X33900598Y-62226114D01*
X34026698Y-61990198D01*
X34104350Y-61734214D01*
X34130570Y-61468000D01*
X34104350Y-61201786D01*
X34026698Y-60945802D01*
X33900598Y-60709886D01*
X33730897Y-60503103D01*
X33524114Y-60333402D01*
X33288198Y-60207302D01*
X33032214Y-60129650D01*
X32832706Y-60110000D01*
X32699294Y-60110000D01*
X32499786Y-60129650D01*
X32243802Y-60207302D01*
X32007886Y-60333402D01*
X31801103Y-60503103D01*
X31631402Y-60709886D01*
X31505302Y-60945802D01*
X31496000Y-60976467D01*
X31486698Y-60945802D01*
X31360598Y-60709886D01*
X31190897Y-60503103D01*
X30984114Y-60333402D01*
X30859000Y-60266527D01*
X30859000Y-57856697D01*
X31694697Y-57021000D01*
X32134869Y-57021000D01*
X32110616Y-57045253D01*
X32027224Y-57170058D01*
X31969783Y-57308733D01*
X31940500Y-57455950D01*
X31940500Y-57606050D01*
X31969783Y-57753267D01*
X32027224Y-57891942D01*
X32110616Y-58016747D01*
X32216753Y-58122884D01*
X32341558Y-58206276D01*
X32480233Y-58263717D01*
X32627450Y-58293000D01*
X32777550Y-58293000D01*
X32924767Y-58263717D01*
X33063442Y-58206276D01*
X33126713Y-58164000D01*
X43517787Y-58164000D01*
X43581058Y-58206276D01*
X43719733Y-58263717D01*
X43866950Y-58293000D01*
X44017050Y-58293000D01*
X44164267Y-58263717D01*
X44302942Y-58206276D01*
X44427747Y-58122884D01*
X44533884Y-58016747D01*
X44617276Y-57891942D01*
X44674717Y-57753267D01*
X44704000Y-57606050D01*
X44704000Y-57455950D01*
X44674717Y-57308733D01*
X44617276Y-57170058D01*
X44533884Y-57045253D01*
X44427747Y-56939116D01*
X44302942Y-56855724D01*
X44164267Y-56798283D01*
X44017050Y-56769000D01*
X43866950Y-56769000D01*
X43719733Y-56798283D01*
X43581058Y-56855724D01*
X43517787Y-56898000D01*
X37935037Y-56898000D01*
X37949776Y-56875942D01*
X38007217Y-56737267D01*
X38036500Y-56590050D01*
X38036500Y-56439950D01*
X38007217Y-56292733D01*
X37949776Y-56154058D01*
X37866384Y-56029253D01*
X37760247Y-55923116D01*
X37635442Y-55839724D01*
X37496767Y-55782283D01*
X37349550Y-55753000D01*
X37199450Y-55753000D01*
X37185816Y-55755712D01*
X37178588Y-55755000D01*
X37147500Y-55751938D01*
X37116412Y-55755000D01*
X31463588Y-55755000D01*
X31432500Y-55751938D01*
X31401412Y-55755000D01*
X31308410Y-55764160D01*
X31189090Y-55800355D01*
X31079123Y-55859134D01*
X30982736Y-55938236D01*
X30962916Y-55962387D01*
X29800384Y-57124919D01*
X29776237Y-57144736D01*
X29756421Y-57168882D01*
X29756419Y-57168884D01*
X29697134Y-57241124D01*
X29638356Y-57351090D01*
X29602160Y-57470411D01*
X29589938Y-57594500D01*
X29593001Y-57625598D01*
X29593000Y-60266527D01*
X29467886Y-60333402D01*
X29261103Y-60503103D01*
X29091402Y-60709886D01*
X28965302Y-60945802D01*
X28956000Y-60976467D01*
X28946698Y-60945802D01*
X28820598Y-60709886D01*
X28650897Y-60503103D01*
X28444114Y-60333402D01*
X28208198Y-60207302D01*
X27952214Y-60129650D01*
X27752706Y-60110000D01*
X27619294Y-60110000D01*
X27419786Y-60129650D01*
X27163802Y-60207302D01*
X26927886Y-60333402D01*
X26721103Y-60503103D01*
X26551402Y-60709886D01*
X26505798Y-60795206D01*
X26506458Y-60618000D01*
X26496650Y-60518415D01*
X26467602Y-60422656D01*
X26420430Y-60334405D01*
X26356948Y-60257052D01*
X26279595Y-60193570D01*
X26191344Y-60146398D01*
X26095585Y-60117350D01*
X25996000Y-60107542D01*
X25336500Y-60110000D01*
X25209500Y-60237000D01*
X25209500Y-61404500D01*
X25229500Y-61404500D01*
X25229500Y-61531500D01*
X25209500Y-61531500D01*
X25209500Y-62699000D01*
X25336500Y-62826000D01*
X25996000Y-62828458D01*
X26095585Y-62818650D01*
X26191344Y-62789602D01*
X26279595Y-62742430D01*
X26356948Y-62678948D01*
X26420430Y-62601595D01*
X26467602Y-62513344D01*
X26496650Y-62417585D01*
X26506458Y-62318000D01*
X26505798Y-62140794D01*
X26551402Y-62226114D01*
X26721103Y-62432897D01*
X26927886Y-62602598D01*
X27163802Y-62728698D01*
X27419786Y-62806350D01*
X27619294Y-62826000D01*
X27752706Y-62826000D01*
X27952214Y-62806350D01*
X28009974Y-62788829D01*
X27133387Y-63665416D01*
X27109236Y-63685236D01*
X27030134Y-63781624D01*
X26971355Y-63891591D01*
X26946926Y-63972123D01*
X26935160Y-64010911D01*
X26922938Y-64135000D01*
X26926000Y-64166089D01*
X26926000Y-64330527D01*
X26800886Y-64397402D01*
X26594103Y-64567103D01*
X26424402Y-64773886D01*
X26298302Y-65009802D01*
X26289000Y-65040467D01*
X26279698Y-65009802D01*
X26153598Y-64773886D01*
X25983897Y-64567103D01*
X25777114Y-64397402D01*
X25541198Y-64271302D01*
X25285214Y-64193650D01*
X25085706Y-64174000D01*
X24952294Y-64174000D01*
X24752786Y-64193650D01*
X24496802Y-64271302D01*
X24260886Y-64397402D01*
X24054103Y-64567103D01*
X23884402Y-64773886D01*
X23839457Y-64857972D01*
X23839457Y-64682000D01*
X23829649Y-64582415D01*
X23800601Y-64486657D01*
X23753429Y-64398405D01*
X23689948Y-64321052D01*
X23612595Y-64257571D01*
X23524343Y-64210399D01*
X23428585Y-64181351D01*
X23329000Y-64171543D01*
X21629000Y-64171543D01*
X21529415Y-64181351D01*
X21433657Y-64210399D01*
X21345405Y-64257571D01*
X21268052Y-64321052D01*
X21204571Y-64398405D01*
X21157399Y-64486657D01*
X21128351Y-64582415D01*
X21118543Y-64682000D01*
X21118543Y-66382000D01*
X21128351Y-66481585D01*
X21157399Y-66577343D01*
X21204571Y-66665595D01*
X21268052Y-66742948D01*
X21345405Y-66806429D01*
X21433657Y-66853601D01*
X21529415Y-66882649D01*
X21629000Y-66892457D01*
X23329000Y-66892457D01*
X23428585Y-66882649D01*
X23524343Y-66853601D01*
X23612595Y-66806429D01*
X23689948Y-66742948D01*
X23753429Y-66665595D01*
X23800601Y-66577343D01*
X23829649Y-66481585D01*
X23839457Y-66382000D01*
X23839457Y-66206028D01*
X23884402Y-66290114D01*
X24054103Y-66496897D01*
X24260886Y-66666598D01*
X24496802Y-66792698D01*
X24752786Y-66870350D01*
X24952294Y-66890000D01*
X25085706Y-66890000D01*
X25285214Y-66870350D01*
X25541198Y-66792698D01*
X25777114Y-66666598D01*
X25983897Y-66496897D01*
X26153598Y-66290114D01*
X26279698Y-66054198D01*
X26289000Y-66023533D01*
X26298302Y-66054198D01*
X26424402Y-66290114D01*
X26594103Y-66496897D01*
X26800886Y-66666598D01*
X27036802Y-66792698D01*
X27292786Y-66870350D01*
X27492294Y-66890000D01*
X27625706Y-66890000D01*
X27825214Y-66870350D01*
X28081198Y-66792698D01*
X28317114Y-66666598D01*
X28523897Y-66496897D01*
X28693598Y-66290114D01*
X28819698Y-66054198D01*
X28829000Y-66023533D01*
X28838302Y-66054198D01*
X28964402Y-66290114D01*
X29134103Y-66496897D01*
X29340886Y-66666598D01*
X29576802Y-66792698D01*
X29832786Y-66870350D01*
X30032294Y-66890000D01*
X30165706Y-66890000D01*
X30365214Y-66870350D01*
X30621198Y-66792698D01*
X30857114Y-66666598D01*
X31063897Y-66496897D01*
X31233598Y-66290114D01*
X31359698Y-66054198D01*
X31369000Y-66023533D01*
X31378302Y-66054198D01*
X31504402Y-66290114D01*
X31674103Y-66496897D01*
X31880886Y-66666598D01*
X32116802Y-66792698D01*
X32372786Y-66870350D01*
X32572294Y-66890000D01*
X32705706Y-66890000D01*
X32905214Y-66870350D01*
X33161198Y-66792698D01*
X33397114Y-66666598D01*
X33603897Y-66496897D01*
X33773598Y-66290114D01*
X33899698Y-66054198D01*
X33909000Y-66023533D01*
X33918302Y-66054198D01*
X34044402Y-66290114D01*
X34214103Y-66496897D01*
X34420886Y-66666598D01*
X34656802Y-66792698D01*
X34912786Y-66870350D01*
X35112294Y-66890000D01*
X35245706Y-66890000D01*
X35445214Y-66870350D01*
X35701198Y-66792698D01*
X35937114Y-66666598D01*
X36143897Y-66496897D01*
X36313598Y-66290114D01*
X36439698Y-66054198D01*
X36449000Y-66023533D01*
X36458302Y-66054198D01*
X36584402Y-66290114D01*
X36754103Y-66496897D01*
X36960886Y-66666598D01*
X37196802Y-66792698D01*
X37452786Y-66870350D01*
X37652294Y-66890000D01*
X37785706Y-66890000D01*
X37985214Y-66870350D01*
X38241198Y-66792698D01*
X38477114Y-66666598D01*
X38683897Y-66496897D01*
X38853598Y-66290114D01*
X38979698Y-66054198D01*
X38989000Y-66023533D01*
X38998302Y-66054198D01*
X39124402Y-66290114D01*
X39294103Y-66496897D01*
X39500886Y-66666598D01*
X39736802Y-66792698D01*
X39992786Y-66870350D01*
X40192294Y-66890000D01*
X40325706Y-66890000D01*
X40525214Y-66870350D01*
X40781198Y-66792698D01*
X41017114Y-66666598D01*
X41223897Y-66496897D01*
X41393598Y-66290114D01*
X41519698Y-66054198D01*
X41529000Y-66023533D01*
X41538302Y-66054198D01*
X41664402Y-66290114D01*
X41834103Y-66496897D01*
X42040886Y-66666598D01*
X42276802Y-66792698D01*
X42532786Y-66870350D01*
X42732294Y-66890000D01*
X42865706Y-66890000D01*
X43065214Y-66870350D01*
X43321198Y-66792698D01*
X43557114Y-66666598D01*
X43763897Y-66496897D01*
X43933598Y-66290114D01*
X44059698Y-66054198D01*
X44069000Y-66023533D01*
X44078302Y-66054198D01*
X44204402Y-66290114D01*
X44374103Y-66496897D01*
X44580886Y-66666598D01*
X44816802Y-66792698D01*
X45072786Y-66870350D01*
X45272294Y-66890000D01*
X45405706Y-66890000D01*
X45605214Y-66870350D01*
X45861198Y-66792698D01*
X46097114Y-66666598D01*
X46303897Y-66496897D01*
X46473598Y-66290114D01*
X46599698Y-66054198D01*
X46609000Y-66023533D01*
X46618302Y-66054198D01*
X46744402Y-66290114D01*
X46914103Y-66496897D01*
X47120886Y-66666598D01*
X47356802Y-66792698D01*
X47612786Y-66870350D01*
X47812294Y-66890000D01*
X47945706Y-66890000D01*
X48145214Y-66870350D01*
X48401198Y-66792698D01*
X48637114Y-66666598D01*
X48843897Y-66496897D01*
X49013598Y-66290114D01*
X49139698Y-66054198D01*
X49149000Y-66023533D01*
X49158302Y-66054198D01*
X49284402Y-66290114D01*
X49454103Y-66496897D01*
X49660886Y-66666598D01*
X49896802Y-66792698D01*
X50152786Y-66870350D01*
X50352294Y-66890000D01*
X50485706Y-66890000D01*
X50685214Y-66870350D01*
X50941198Y-66792698D01*
X51177114Y-66666598D01*
X51383897Y-66496897D01*
X51553598Y-66290114D01*
X51679698Y-66054198D01*
X51689000Y-66023533D01*
X51698302Y-66054198D01*
X51824402Y-66290114D01*
X51994103Y-66496897D01*
X52200886Y-66666598D01*
X52436802Y-66792698D01*
X52692786Y-66870350D01*
X52892294Y-66890000D01*
X53025706Y-66890000D01*
X53225214Y-66870350D01*
X53481198Y-66792698D01*
X53717114Y-66666598D01*
X53923897Y-66496897D01*
X54093598Y-66290114D01*
X54219698Y-66054198D01*
X54229000Y-66023533D01*
X54238302Y-66054198D01*
X54364402Y-66290114D01*
X54534103Y-66496897D01*
X54740886Y-66666598D01*
X54976802Y-66792698D01*
X55232786Y-66870350D01*
X55432294Y-66890000D01*
X55565706Y-66890000D01*
X55765214Y-66870350D01*
X56021198Y-66792698D01*
X56257114Y-66666598D01*
X56463897Y-66496897D01*
X56633598Y-66290114D01*
X56759698Y-66054198D01*
X56769000Y-66023533D01*
X56778302Y-66054198D01*
X56904402Y-66290114D01*
X57074103Y-66496897D01*
X57280886Y-66666598D01*
X57516802Y-66792698D01*
X57772786Y-66870350D01*
X57972294Y-66890000D01*
X58105706Y-66890000D01*
X58305214Y-66870350D01*
X58561198Y-66792698D01*
X58797114Y-66666598D01*
X59003897Y-66496897D01*
X59173598Y-66290114D01*
X59299698Y-66054198D01*
X59309000Y-66023533D01*
X59318302Y-66054198D01*
X59444402Y-66290114D01*
X59614103Y-66496897D01*
X59820886Y-66666598D01*
X60056802Y-66792698D01*
X60312786Y-66870350D01*
X60512294Y-66890000D01*
X60645706Y-66890000D01*
X60845214Y-66870350D01*
X61101198Y-66792698D01*
X61337114Y-66666598D01*
X61543897Y-66496897D01*
X61713598Y-66290114D01*
X61839698Y-66054198D01*
X61849000Y-66023533D01*
X61858302Y-66054198D01*
X61984402Y-66290114D01*
X62154103Y-66496897D01*
X62360886Y-66666598D01*
X62596802Y-66792698D01*
X62852786Y-66870350D01*
X63052294Y-66890000D01*
X63185706Y-66890000D01*
X63385214Y-66870350D01*
X63641198Y-66792698D01*
X63877114Y-66666598D01*
X64083897Y-66496897D01*
X64253598Y-66290114D01*
X64379698Y-66054198D01*
X64389000Y-66023533D01*
X64398302Y-66054198D01*
X64524402Y-66290114D01*
X64694103Y-66496897D01*
X64900886Y-66666598D01*
X65136802Y-66792698D01*
X65392786Y-66870350D01*
X65592294Y-66890000D01*
X65725706Y-66890000D01*
X65925214Y-66870350D01*
X66181198Y-66792698D01*
X66417114Y-66666598D01*
X66623897Y-66496897D01*
X66793598Y-66290114D01*
X66919698Y-66054198D01*
X66929000Y-66023533D01*
X66938302Y-66054198D01*
X67064402Y-66290114D01*
X67234103Y-66496897D01*
X67440886Y-66666598D01*
X67676802Y-66792698D01*
X67932786Y-66870350D01*
X68132294Y-66890000D01*
X68265706Y-66890000D01*
X68465214Y-66870350D01*
X68721198Y-66792698D01*
X68957114Y-66666598D01*
X69163897Y-66496897D01*
X69333598Y-66290114D01*
X69459698Y-66054198D01*
X69469000Y-66023533D01*
X69478302Y-66054198D01*
X69604402Y-66290114D01*
X69774103Y-66496897D01*
X69980886Y-66666598D01*
X70216802Y-66792698D01*
X70472786Y-66870350D01*
X70672294Y-66890000D01*
X70805706Y-66890000D01*
X71005214Y-66870350D01*
X71261198Y-66792698D01*
X71497114Y-66666598D01*
X71703897Y-66496897D01*
X71873598Y-66290114D01*
X71999698Y-66054198D01*
X72077350Y-65798214D01*
X72103570Y-65532000D01*
X72077350Y-65265786D01*
X71999698Y-65009802D01*
X71873598Y-64773886D01*
X71703897Y-64567103D01*
X71497114Y-64397402D01*
X71261198Y-64271302D01*
X71005214Y-64193650D01*
X70805706Y-64174000D01*
X70672294Y-64174000D01*
X70472786Y-64193650D01*
X70337029Y-64234832D01*
X66319084Y-60216887D01*
X66299264Y-60192736D01*
X66202877Y-60113634D01*
X66092910Y-60054855D01*
X65973590Y-60018660D01*
X65880588Y-60009500D01*
X65849500Y-60006438D01*
X65818412Y-60009500D01*
X60079197Y-60009500D01*
X56088697Y-56019000D01*
X66904543Y-56019000D01*
X66904543Y-57519000D01*
X66919155Y-57667358D01*
X66962429Y-57810014D01*
X67032703Y-57941487D01*
X67127276Y-58056724D01*
X67242513Y-58151297D01*
X67373986Y-58221571D01*
X67516642Y-58264845D01*
X67665000Y-58279457D01*
X70765000Y-58279457D01*
X70913358Y-58264845D01*
X71056014Y-58221571D01*
X71187487Y-58151297D01*
X71302724Y-58056724D01*
X71397297Y-57941487D01*
X71467571Y-57810014D01*
X71510845Y-57667358D01*
X71525457Y-57519000D01*
X71525457Y-56019000D01*
X71510845Y-55870642D01*
X71467571Y-55727986D01*
X71397297Y-55596513D01*
X71302724Y-55481276D01*
X71187487Y-55386703D01*
X71056014Y-55316429D01*
X70913358Y-55273155D01*
X70765000Y-55258543D01*
X67665000Y-55258543D01*
X67516642Y-55273155D01*
X67373986Y-55316429D01*
X67242513Y-55386703D01*
X67127276Y-55481276D01*
X67032703Y-55596513D01*
X66962429Y-55727986D01*
X66919155Y-55870642D01*
X66904543Y-56019000D01*
X56088697Y-56019000D01*
X49491584Y-49421887D01*
X49471764Y-49397736D01*
X49375377Y-49318634D01*
X49325942Y-49292210D01*
X49339500Y-49224050D01*
X49339500Y-49073950D01*
X49314454Y-48948033D01*
X50529445Y-47733042D01*
X50869058Y-47733042D01*
X50723176Y-47910798D01*
X50601719Y-48138028D01*
X50526926Y-48384587D01*
X50501672Y-48641000D01*
X50526926Y-48897413D01*
X50601719Y-49143972D01*
X50723176Y-49371202D01*
X50886630Y-49570370D01*
X51085798Y-49733824D01*
X51313028Y-49855281D01*
X51559587Y-49930074D01*
X51751750Y-49949000D01*
X51880250Y-49949000D01*
X52072413Y-49930074D01*
X52318972Y-49855281D01*
X52546202Y-49733824D01*
X52745370Y-49570370D01*
X52908824Y-49371202D01*
X53030281Y-49143972D01*
X53105074Y-48897413D01*
X53130328Y-48641000D01*
X53105074Y-48384587D01*
X53030281Y-48138028D01*
X52908824Y-47910798D01*
X52762942Y-47733042D01*
X56972261Y-47733042D01*
X54628882Y-50076420D01*
X54604737Y-50096236D01*
X54584921Y-50120382D01*
X54584919Y-50120384D01*
X54525634Y-50192624D01*
X54466856Y-50302590D01*
X54430660Y-50421911D01*
X54418438Y-50546000D01*
X54421501Y-50577098D01*
X54421501Y-50874264D01*
X54363969Y-50931796D01*
X54266679Y-51077401D01*
X54199664Y-51239188D01*
X54165500Y-51410941D01*
X54165500Y-51586059D01*
X54199664Y-51757812D01*
X54266679Y-51919599D01*
X54363969Y-52065204D01*
X54487796Y-52189031D01*
X54633401Y-52286321D01*
X54795188Y-52353336D01*
X54966941Y-52387500D01*
X55142059Y-52387500D01*
X55313812Y-52353336D01*
X55475599Y-52286321D01*
X55621204Y-52189031D01*
X55745031Y-52065204D01*
X55842321Y-51919599D01*
X55909336Y-51757812D01*
X55943500Y-51586059D01*
X55943500Y-51410941D01*
X55909336Y-51239188D01*
X55842321Y-51077401D01*
X55745031Y-50931796D01*
X55687500Y-50874265D01*
X55687500Y-50808197D01*
X58125543Y-48370154D01*
X58125543Y-49441000D01*
X58135351Y-49540585D01*
X58164399Y-49636343D01*
X58211571Y-49724595D01*
X58275052Y-49801948D01*
X58352405Y-49865429D01*
X58440657Y-49912601D01*
X58536415Y-49941649D01*
X58636000Y-49951457D01*
X60236000Y-49951457D01*
X60335585Y-49941649D01*
X60431343Y-49912601D01*
X60519595Y-49865429D01*
X60596948Y-49801948D01*
X60660429Y-49724595D01*
X60665295Y-49715492D01*
X60771501Y-49821699D01*
X60771500Y-52026787D01*
X60729224Y-52090058D01*
X60671783Y-52228733D01*
X60642500Y-52375950D01*
X60642500Y-52526050D01*
X60671783Y-52673267D01*
X60729224Y-52811942D01*
X60812616Y-52936747D01*
X60918753Y-53042884D01*
X61043558Y-53126276D01*
X61182233Y-53183717D01*
X61329450Y-53213000D01*
X61479550Y-53213000D01*
X61626767Y-53183717D01*
X61765442Y-53126276D01*
X61890247Y-53042884D01*
X61996384Y-52936747D01*
X62079776Y-52811942D01*
X62137217Y-52673267D01*
X62166500Y-52526050D01*
X62166500Y-52375950D01*
X62137217Y-52228733D01*
X62079776Y-52090058D01*
X62037500Y-52026787D01*
X62037500Y-51769000D01*
X66899704Y-51769000D01*
X66928820Y-52064620D01*
X67015049Y-52348879D01*
X67155077Y-52610853D01*
X67343524Y-52840476D01*
X67573147Y-53028923D01*
X67835121Y-53168951D01*
X68119380Y-53255180D01*
X68340922Y-53277000D01*
X70089078Y-53277000D01*
X70310620Y-53255180D01*
X70594879Y-53168951D01*
X70856853Y-53028923D01*
X71086476Y-52840476D01*
X71274923Y-52610853D01*
X71414951Y-52348879D01*
X71501180Y-52064620D01*
X71530296Y-51769000D01*
X71501180Y-51473380D01*
X71414951Y-51189121D01*
X71274923Y-50927147D01*
X71086476Y-50697524D01*
X70856853Y-50509077D01*
X70594879Y-50369049D01*
X70310620Y-50282820D01*
X70089078Y-50261000D01*
X68340922Y-50261000D01*
X68119380Y-50282820D01*
X67835121Y-50369049D01*
X67573147Y-50509077D01*
X67343524Y-50697524D01*
X67155077Y-50927147D01*
X67015049Y-51189121D01*
X66928820Y-51473380D01*
X66899704Y-51769000D01*
X62037500Y-51769000D01*
X62037500Y-49590585D01*
X62040562Y-49559499D01*
X62035681Y-49509942D01*
X62028340Y-49435410D01*
X61992145Y-49316090D01*
X61933366Y-49206123D01*
X61903611Y-49169866D01*
X61874081Y-49133883D01*
X61874080Y-49133882D01*
X61854264Y-49109736D01*
X61830118Y-49089920D01*
X60955584Y-48215387D01*
X60935764Y-48191236D01*
X60839377Y-48112134D01*
X60746457Y-48062467D01*
X60746457Y-47841000D01*
X60736649Y-47741415D01*
X60707601Y-47645657D01*
X60660429Y-47557405D01*
X60596948Y-47480052D01*
X60519595Y-47416571D01*
X60431343Y-47369399D01*
X60335585Y-47340351D01*
X60236000Y-47330543D01*
X59165155Y-47330543D01*
X60872697Y-45623001D01*
X61912911Y-45623001D01*
X61943999Y-45626063D01*
X61975087Y-45623001D01*
X62068089Y-45613841D01*
X62187409Y-45577646D01*
X62297376Y-45518867D01*
X62393763Y-45439765D01*
X62413584Y-45415613D01*
X62694612Y-45134584D01*
X62694617Y-45134580D01*
X62717029Y-45112168D01*
X62852786Y-45153350D01*
X63052294Y-45173000D01*
X63185706Y-45173000D01*
X63385214Y-45153350D01*
X63641198Y-45075698D01*
X63877114Y-44949598D01*
X64083897Y-44779897D01*
X64253598Y-44573114D01*
X64379698Y-44337198D01*
X64389000Y-44306533D01*
X64398302Y-44337198D01*
X64524402Y-44573114D01*
X64694103Y-44779897D01*
X64900886Y-44949598D01*
X65136802Y-45075698D01*
X65392786Y-45153350D01*
X65592294Y-45173000D01*
X65725706Y-45173000D01*
X65925214Y-45153350D01*
X66181198Y-45075698D01*
X66417114Y-44949598D01*
X66623897Y-44779897D01*
X66793598Y-44573114D01*
X66919698Y-44337198D01*
X66932752Y-44294166D01*
X66948306Y-44344089D01*
X67075558Y-44577921D01*
X67245983Y-44782434D01*
X67453032Y-44949769D01*
X67688748Y-45073496D01*
X67924076Y-45144880D01*
X68135500Y-45044361D01*
X68135500Y-43878500D01*
X68262500Y-43878500D01*
X68262500Y-45044361D01*
X68473924Y-45144880D01*
X68709252Y-45073496D01*
X68944968Y-44949769D01*
X69152017Y-44782434D01*
X69322442Y-44577921D01*
X69449694Y-44344089D01*
X69469000Y-44282124D01*
X69488306Y-44344089D01*
X69615558Y-44577921D01*
X69785983Y-44782434D01*
X69993032Y-44949769D01*
X70228748Y-45073496D01*
X70464076Y-45144880D01*
X70675500Y-45044361D01*
X70675500Y-43878500D01*
X70802500Y-43878500D01*
X70802500Y-45044361D01*
X71013924Y-45144880D01*
X71249252Y-45073496D01*
X71484968Y-44949769D01*
X71692017Y-44782434D01*
X71862442Y-44577921D01*
X71989694Y-44344089D01*
X72068882Y-44089924D01*
X71968517Y-43878500D01*
X70802500Y-43878500D01*
X70675500Y-43878500D01*
X69509483Y-43878500D01*
X69469000Y-43963780D01*
X69428517Y-43878500D01*
X68262500Y-43878500D01*
X68135500Y-43878500D01*
X68115500Y-43878500D01*
X68115500Y-43751500D01*
X68135500Y-43751500D01*
X68135500Y-42585639D01*
X68262500Y-42585639D01*
X68262500Y-43751500D01*
X69428517Y-43751500D01*
X69469000Y-43666220D01*
X69509483Y-43751500D01*
X70675500Y-43751500D01*
X70675500Y-42585639D01*
X70802500Y-42585639D01*
X70802500Y-43751500D01*
X71968517Y-43751500D01*
X72068882Y-43540076D01*
X71989694Y-43285911D01*
X71862442Y-43052079D01*
X71692017Y-42847566D01*
X71484968Y-42680231D01*
X71249252Y-42556504D01*
X71013924Y-42485120D01*
X70802500Y-42585639D01*
X70675500Y-42585639D01*
X70464076Y-42485120D01*
X70228748Y-42556504D01*
X69993032Y-42680231D01*
X69785983Y-42847566D01*
X69615558Y-43052079D01*
X69488306Y-43285911D01*
X69469000Y-43347876D01*
X69449694Y-43285911D01*
X69322442Y-43052079D01*
X69152017Y-42847566D01*
X68944968Y-42680231D01*
X68709252Y-42556504D01*
X68473924Y-42485120D01*
X68262500Y-42585639D01*
X68135500Y-42585639D01*
X67924076Y-42485120D01*
X67688748Y-42556504D01*
X67453032Y-42680231D01*
X67245983Y-42847566D01*
X67075558Y-43052079D01*
X66948306Y-43285911D01*
X66932752Y-43335834D01*
X66919698Y-43292802D01*
X66793598Y-43056886D01*
X66623897Y-42850103D01*
X66417114Y-42680402D01*
X66181198Y-42554302D01*
X65925214Y-42476650D01*
X65725706Y-42457000D01*
X65592294Y-42457000D01*
X65392786Y-42476650D01*
X65136802Y-42554302D01*
X64900886Y-42680402D01*
X64694103Y-42850103D01*
X64524402Y-43056886D01*
X64398302Y-43292802D01*
X64389000Y-43323467D01*
X64379698Y-43292802D01*
X64253598Y-43056886D01*
X64083897Y-42850103D01*
X63877114Y-42680402D01*
X63641198Y-42554302D01*
X63385214Y-42476650D01*
X63185706Y-42457000D01*
X63052294Y-42457000D01*
X62852786Y-42476650D01*
X62596802Y-42554302D01*
X62360886Y-42680402D01*
X62154103Y-42850103D01*
X61984402Y-43056886D01*
X61858302Y-43292802D01*
X61849000Y-43323467D01*
X61839698Y-43292802D01*
X61713598Y-43056886D01*
X61543897Y-42850103D01*
X61337114Y-42680402D01*
X61101198Y-42554302D01*
X60845214Y-42476650D01*
X60645706Y-42457000D01*
X60512294Y-42457000D01*
X60312786Y-42476650D01*
X60056802Y-42554302D01*
X59820886Y-42680402D01*
X59614103Y-42850103D01*
X59444402Y-43056886D01*
X59318302Y-43292802D01*
X59309000Y-43323467D01*
X59299698Y-43292802D01*
X59173598Y-43056886D01*
X59003897Y-42850103D01*
X58797114Y-42680402D01*
X58561198Y-42554302D01*
X58305214Y-42476650D01*
X58105706Y-42457000D01*
X57972294Y-42457000D01*
X57772786Y-42476650D01*
X57516802Y-42554302D01*
X57280886Y-42680402D01*
X57074103Y-42850103D01*
X56904402Y-43056886D01*
X56778302Y-43292802D01*
X56769000Y-43323467D01*
X56759698Y-43292802D01*
X56633598Y-43056886D01*
X56463897Y-42850103D01*
X56257114Y-42680402D01*
X56021198Y-42554302D01*
X55765214Y-42476650D01*
X55565706Y-42457000D01*
X55432294Y-42457000D01*
X55232786Y-42476650D01*
X54976802Y-42554302D01*
X54740886Y-42680402D01*
X54534103Y-42850103D01*
X54364402Y-43056886D01*
X54238302Y-43292802D01*
X54229000Y-43323467D01*
X54219698Y-43292802D01*
X54093598Y-43056886D01*
X53923897Y-42850103D01*
X53717114Y-42680402D01*
X53481198Y-42554302D01*
X53225214Y-42476650D01*
X53025706Y-42457000D01*
X52892294Y-42457000D01*
X52692786Y-42476650D01*
X52436802Y-42554302D01*
X52200886Y-42680402D01*
X51994103Y-42850103D01*
X51824402Y-43056886D01*
X51698302Y-43292802D01*
X51689000Y-43323467D01*
X51679698Y-43292802D01*
X51553598Y-43056886D01*
X51383897Y-42850103D01*
X51177114Y-42680402D01*
X50941198Y-42554302D01*
X50685214Y-42476650D01*
X50485706Y-42457000D01*
X50352294Y-42457000D01*
X50152786Y-42476650D01*
X49896802Y-42554302D01*
X49660886Y-42680402D01*
X49454103Y-42850103D01*
X49284402Y-43056886D01*
X49158302Y-43292802D01*
X49149000Y-43323467D01*
X49139698Y-43292802D01*
X49013598Y-43056886D01*
X48843897Y-42850103D01*
X48637114Y-42680402D01*
X48401198Y-42554302D01*
X48145214Y-42476650D01*
X47945706Y-42457000D01*
X47812294Y-42457000D01*
X47612786Y-42476650D01*
X47356802Y-42554302D01*
X47120886Y-42680402D01*
X46914103Y-42850103D01*
X46744402Y-43056886D01*
X46618302Y-43292802D01*
X46609000Y-43323467D01*
X46599698Y-43292802D01*
X46473598Y-43056886D01*
X46303897Y-42850103D01*
X46097114Y-42680402D01*
X45861198Y-42554302D01*
X45605214Y-42476650D01*
X45405706Y-42457000D01*
X45272294Y-42457000D01*
X45072786Y-42476650D01*
X44816802Y-42554302D01*
X44580886Y-42680402D01*
X44374103Y-42850103D01*
X44204402Y-43056886D01*
X44078302Y-43292802D01*
X44069000Y-43323467D01*
X44059698Y-43292802D01*
X43933598Y-43056886D01*
X43763897Y-42850103D01*
X43557114Y-42680402D01*
X43321198Y-42554302D01*
X43065214Y-42476650D01*
X42865706Y-42457000D01*
X42732294Y-42457000D01*
X42532786Y-42476650D01*
X42276802Y-42554302D01*
X42040886Y-42680402D01*
X41834103Y-42850103D01*
X41664402Y-43056886D01*
X41538302Y-43292802D01*
X41529000Y-43323467D01*
X41519698Y-43292802D01*
X41393598Y-43056886D01*
X41223897Y-42850103D01*
X41017114Y-42680402D01*
X40781198Y-42554302D01*
X40525214Y-42476650D01*
X40325706Y-42457000D01*
X40192294Y-42457000D01*
X39992786Y-42476650D01*
X39736802Y-42554302D01*
X39500886Y-42680402D01*
X39294103Y-42850103D01*
X39124402Y-43056886D01*
X38998302Y-43292802D01*
X38989000Y-43323467D01*
X38979698Y-43292802D01*
X38853598Y-43056886D01*
X38683897Y-42850103D01*
X38477114Y-42680402D01*
X38241198Y-42554302D01*
X37985214Y-42476650D01*
X37785706Y-42457000D01*
X37652294Y-42457000D01*
X37452786Y-42476650D01*
X37196802Y-42554302D01*
X36960886Y-42680402D01*
X36754103Y-42850103D01*
X36584402Y-43056886D01*
X36458302Y-43292802D01*
X36449000Y-43323467D01*
X36439698Y-43292802D01*
X36313598Y-43056886D01*
X36143897Y-42850103D01*
X35937114Y-42680402D01*
X35701198Y-42554302D01*
X35445214Y-42476650D01*
X35245706Y-42457000D01*
X35112294Y-42457000D01*
X34912786Y-42476650D01*
X34656802Y-42554302D01*
X34420886Y-42680402D01*
X34214103Y-42850103D01*
X34044402Y-43056886D01*
X33918302Y-43292802D01*
X33909000Y-43323467D01*
X33899698Y-43292802D01*
X33773598Y-43056886D01*
X33603897Y-42850103D01*
X33397114Y-42680402D01*
X33161198Y-42554302D01*
X32905214Y-42476650D01*
X32705706Y-42457000D01*
X32572294Y-42457000D01*
X32372786Y-42476650D01*
X32116802Y-42554302D01*
X31880886Y-42680402D01*
X31674103Y-42850103D01*
X31504402Y-43056886D01*
X31378302Y-43292802D01*
X31369000Y-43323467D01*
X31359698Y-43292802D01*
X31233598Y-43056886D01*
X31063897Y-42850103D01*
X30857114Y-42680402D01*
X30621198Y-42554302D01*
X30365214Y-42476650D01*
X30165706Y-42457000D01*
X30032294Y-42457000D01*
X29832786Y-42476650D01*
X29576802Y-42554302D01*
X29340886Y-42680402D01*
X29134103Y-42850103D01*
X28964402Y-43056886D01*
X28838302Y-43292802D01*
X28829000Y-43323467D01*
X28819698Y-43292802D01*
X28693598Y-43056886D01*
X28523897Y-42850103D01*
X28317114Y-42680402D01*
X28081198Y-42554302D01*
X27825214Y-42476650D01*
X27625706Y-42457000D01*
X27492294Y-42457000D01*
X27292786Y-42476650D01*
X27036802Y-42554302D01*
X26800886Y-42680402D01*
X26594103Y-42850103D01*
X26424402Y-43056886D01*
X26298302Y-43292802D01*
X26289000Y-43323467D01*
X26279698Y-43292802D01*
X26153598Y-43056886D01*
X25983897Y-42850103D01*
X25777114Y-42680402D01*
X25541198Y-42554302D01*
X25285214Y-42476650D01*
X25085706Y-42457000D01*
X24952294Y-42457000D01*
X24752786Y-42476650D01*
X24496802Y-42554302D01*
X24260886Y-42680402D01*
X24054103Y-42850103D01*
X23884402Y-43056886D01*
X23839457Y-43140972D01*
X23839457Y-42965000D01*
X23829649Y-42865415D01*
X23800601Y-42769657D01*
X23753429Y-42681405D01*
X23689948Y-42604052D01*
X23612595Y-42540571D01*
X23524343Y-42493399D01*
X23428585Y-42464351D01*
X23329000Y-42454543D01*
X21629000Y-42454543D01*
X21529415Y-42464351D01*
X21433657Y-42493399D01*
X21345405Y-42540571D01*
X21268052Y-42604052D01*
X21204571Y-42681405D01*
X21157399Y-42769657D01*
X21128351Y-42865415D01*
X21118543Y-42965000D01*
X19583000Y-42965000D01*
X19583000Y-42443000D01*
X73381000Y-42443000D01*
X73381001Y-67031000D01*
X73381001Y-67031000D01*
G37*
X73381001Y-67031000D02*
X19583000Y-67031000D01*
X19583000Y-62318000D01*
X23785542Y-62318000D01*
X23795350Y-62417585D01*
X23824398Y-62513344D01*
X23871570Y-62601595D01*
X23935052Y-62678948D01*
X24012405Y-62742430D01*
X24100656Y-62789602D01*
X24196415Y-62818650D01*
X24296000Y-62828458D01*
X24955500Y-62826000D01*
X25082500Y-62699000D01*
X25082500Y-61531500D01*
X23915000Y-61531500D01*
X23788000Y-61658500D01*
X23785542Y-62318000D01*
X19583000Y-62318000D01*
X19583000Y-60618000D01*
X23785542Y-60618000D01*
X23788000Y-61277500D01*
X23915000Y-61404500D01*
X25082500Y-61404500D01*
X25082500Y-60237000D01*
X24955500Y-60110000D01*
X24296000Y-60107542D01*
X24196415Y-60117350D01*
X24100656Y-60146398D01*
X24012405Y-60193570D01*
X23935052Y-60257052D01*
X23871570Y-60334405D01*
X23824398Y-60422656D01*
X23795350Y-60518415D01*
X23785542Y-60618000D01*
X19583000Y-60618000D01*
X19583000Y-58716845D01*
X20797107Y-58716845D01*
X20830138Y-58840780D01*
X20919240Y-59033884D01*
X21044302Y-59205895D01*
X21200519Y-59350203D01*
X21381887Y-59461261D01*
X21581437Y-59534802D01*
X21791500Y-59568000D01*
X22116500Y-59568000D01*
X22116500Y-58548500D01*
X22243500Y-58548500D01*
X22243500Y-59568000D01*
X22568500Y-59568000D01*
X22778563Y-59534802D01*
X22978113Y-59461261D01*
X23159481Y-59350203D01*
X23315698Y-59205895D01*
X23440760Y-59033884D01*
X23529862Y-58840780D01*
X23562893Y-58716845D01*
X23484742Y-58590346D01*
X24498730Y-58590346D01*
X24541557Y-58748183D01*
X24644520Y-58967220D01*
X24788237Y-59161961D01*
X24967184Y-59324923D01*
X25174485Y-59449843D01*
X25402174Y-59531920D01*
X25641500Y-59568000D01*
X25916500Y-59568000D01*
X25916500Y-58398500D01*
X26043500Y-58398500D01*
X26043500Y-59568000D01*
X26318500Y-59568000D01*
X26557826Y-59531920D01*
X26785515Y-59449843D01*
X26992816Y-59324923D01*
X27171763Y-59161961D01*
X27315480Y-58967220D01*
X27418443Y-58748183D01*
X27461270Y-58590346D01*
X27359176Y-58398500D01*
X26043500Y-58398500D01*
X25916500Y-58398500D01*
X24600824Y-58398500D01*
X24498730Y-58590346D01*
X23484742Y-58590346D01*
X23458889Y-58548500D01*
X22243500Y-58548500D01*
X22116500Y-58548500D01*
X20901111Y-58548500D01*
X20797107Y-58716845D01*
X19583000Y-58716845D01*
X19583000Y-58253155D01*
X20797107Y-58253155D01*
X20901111Y-58421500D01*
X22116500Y-58421500D01*
X22116500Y-57402000D01*
X22243500Y-57402000D01*
X22243500Y-58421500D01*
X23458889Y-58421500D01*
X23562893Y-58253155D01*
X23529862Y-58129220D01*
X23440760Y-57936116D01*
X23315698Y-57764105D01*
X23159481Y-57619797D01*
X22978113Y-57508739D01*
X22778563Y-57435198D01*
X22568500Y-57402000D01*
X22243500Y-57402000D01*
X22116500Y-57402000D01*
X21791500Y-57402000D01*
X21581437Y-57435198D01*
X21381887Y-57508739D01*
X21200519Y-57619797D01*
X21044302Y-57764105D01*
X20919240Y-57936116D01*
X20830138Y-58129220D01*
X20797107Y-58253155D01*
X19583000Y-58253155D01*
X19583000Y-57110000D01*
X24017607Y-57110000D01*
X24035138Y-57287999D01*
X24087059Y-57459158D01*
X24171373Y-57616898D01*
X24284841Y-57755159D01*
X24423102Y-57868627D01*
X24539158Y-57930660D01*
X24498730Y-58079654D01*
X24600824Y-58271500D01*
X25916500Y-58271500D01*
X25916500Y-57102000D01*
X26043500Y-57102000D01*
X26043500Y-58271500D01*
X27359176Y-58271500D01*
X27461270Y-58079654D01*
X27418443Y-57921817D01*
X27315480Y-57702780D01*
X27171763Y-57508039D01*
X26992816Y-57345077D01*
X26785515Y-57220157D01*
X26557826Y-57138080D01*
X26318500Y-57102000D01*
X26043500Y-57102000D01*
X25916500Y-57102000D01*
X25841605Y-57102000D01*
X25824862Y-56932001D01*
X25772941Y-56760842D01*
X25688627Y-56603102D01*
X25575159Y-56464841D01*
X25436898Y-56351373D01*
X25279158Y-56267059D01*
X25107999Y-56215138D01*
X24974604Y-56202000D01*
X24885396Y-56202000D01*
X24752001Y-56215138D01*
X24580842Y-56267059D01*
X24423102Y-56351373D01*
X24284841Y-56464841D01*
X24171373Y-56603102D01*
X24087059Y-56760842D01*
X24035138Y-56932001D01*
X24017607Y-57110000D01*
X19583000Y-57110000D01*
X19583000Y-52110000D01*
X24017607Y-52110000D01*
X24035138Y-52287999D01*
X24087059Y-52459158D01*
X24171373Y-52616898D01*
X24284841Y-52755159D01*
X24423102Y-52868627D01*
X24580842Y-52952941D01*
X24752001Y-53004862D01*
X24885396Y-53018000D01*
X24974604Y-53018000D01*
X25107999Y-53004862D01*
X25279158Y-52952941D01*
X25436898Y-52868627D01*
X25575159Y-52755159D01*
X25688627Y-52616898D01*
X25772941Y-52459158D01*
X25824862Y-52287999D01*
X25841605Y-52118000D01*
X25916500Y-52118000D01*
X25916500Y-50948500D01*
X26043500Y-50948500D01*
X26043500Y-52118000D01*
X26318500Y-52118000D01*
X26557826Y-52081920D01*
X26785515Y-51999843D01*
X26992816Y-51874923D01*
X27171763Y-51711961D01*
X27315480Y-51517220D01*
X27418443Y-51298183D01*
X27461270Y-51140346D01*
X27359176Y-50948500D01*
X26043500Y-50948500D01*
X25916500Y-50948500D01*
X24600824Y-50948500D01*
X24498730Y-51140346D01*
X24539158Y-51289340D01*
X24423102Y-51351373D01*
X24284841Y-51464841D01*
X24171373Y-51603102D01*
X24087059Y-51760842D01*
X24035138Y-51932001D01*
X24017607Y-52110000D01*
X19583000Y-52110000D01*
X19583000Y-50966845D01*
X20797107Y-50966845D01*
X20830138Y-51090780D01*
X20919240Y-51283884D01*
X21044302Y-51455895D01*
X21200519Y-51600203D01*
X21381887Y-51711261D01*
X21581437Y-51784802D01*
X21791500Y-51818000D01*
X22116500Y-51818000D01*
X22116500Y-50798500D01*
X22243500Y-50798500D01*
X22243500Y-51818000D01*
X22568500Y-51818000D01*
X22778563Y-51784802D01*
X22978113Y-51711261D01*
X23159481Y-51600203D01*
X23315698Y-51455895D01*
X23440760Y-51283884D01*
X23529862Y-51090780D01*
X23562893Y-50966845D01*
X23458889Y-50798500D01*
X22243500Y-50798500D01*
X22116500Y-50798500D01*
X20901111Y-50798500D01*
X20797107Y-50966845D01*
X19583000Y-50966845D01*
X19583000Y-50503155D01*
X20797107Y-50503155D01*
X20901111Y-50671500D01*
X22116500Y-50671500D01*
X22116500Y-49652000D01*
X22243500Y-49652000D01*
X22243500Y-50671500D01*
X23458889Y-50671500D01*
X23484741Y-50629654D01*
X24498730Y-50629654D01*
X24600824Y-50821500D01*
X25916500Y-50821500D01*
X25916500Y-49652000D01*
X25641500Y-49652000D01*
X25402174Y-49688080D01*
X25174485Y-49770157D01*
X24967184Y-49895077D01*
X24788237Y-50058039D01*
X24644520Y-50252780D01*
X24541557Y-50471817D01*
X24498730Y-50629654D01*
X23484741Y-50629654D01*
X23562893Y-50503155D01*
X23529862Y-50379220D01*
X23440760Y-50186116D01*
X23315698Y-50014105D01*
X23159481Y-49869797D01*
X22978113Y-49758739D01*
X22778563Y-49685198D01*
X22568500Y-49652000D01*
X22243500Y-49652000D01*
X22116500Y-49652000D01*
X21791500Y-49652000D01*
X21581437Y-49685198D01*
X21381887Y-49758739D01*
X21200519Y-49869797D01*
X21044302Y-50014105D01*
X20919240Y-50186116D01*
X20830138Y-50379220D01*
X20797107Y-50503155D01*
X19583000Y-50503155D01*
X19583000Y-42965000D01*
X21118543Y-42965000D01*
X21118543Y-44665000D01*
X21128351Y-44764585D01*
X21157399Y-44860343D01*
X21204571Y-44948595D01*
X21268052Y-45025948D01*
X21345405Y-45089429D01*
X21433657Y-45136601D01*
X21529415Y-45165649D01*
X21629000Y-45175457D01*
X21900467Y-45175457D01*
X21950134Y-45268376D01*
X22029236Y-45364764D01*
X22053387Y-45384584D01*
X26321212Y-49652409D01*
X26318500Y-49652000D01*
X26043500Y-49652000D01*
X26043500Y-50821500D01*
X27359176Y-50821500D01*
X27461270Y-50629654D01*
X27447166Y-50577675D01*
X27480911Y-50580999D01*
X27480912Y-50580999D01*
X27511998Y-50584061D01*
X27540460Y-50581257D01*
X27540000Y-50583570D01*
X27540000Y-50762430D01*
X27574894Y-50937854D01*
X27643341Y-51103099D01*
X27742711Y-51251816D01*
X27815001Y-51324106D01*
X27815000Y-55101895D01*
X27742711Y-55174184D01*
X27643341Y-55322901D01*
X27574894Y-55488146D01*
X27540000Y-55663570D01*
X27540000Y-55842430D01*
X27574894Y-56017854D01*
X27643341Y-56183099D01*
X27742711Y-56331816D01*
X27869184Y-56458289D01*
X28017901Y-56557659D01*
X28183146Y-56626106D01*
X28358570Y-56661000D01*
X28537430Y-56661000D01*
X28712854Y-56626106D01*
X28878099Y-56557659D01*
X29026816Y-56458289D01*
X29153289Y-56331816D01*
X29252659Y-56183099D01*
X29321106Y-56017854D01*
X29356000Y-55842430D01*
X29356000Y-55663570D01*
X29321106Y-55488146D01*
X29252659Y-55322901D01*
X29153289Y-55174184D01*
X29081000Y-55101895D01*
X29081000Y-51324105D01*
X29153289Y-51251816D01*
X29252659Y-51103099D01*
X29321106Y-50937854D01*
X29356000Y-50762430D01*
X29356000Y-50583570D01*
X29355489Y-50580999D01*
X32477302Y-50580999D01*
X35637938Y-53741635D01*
X35652783Y-53816267D01*
X35710224Y-53954942D01*
X35793616Y-54079747D01*
X35899753Y-54185884D01*
X36024558Y-54269276D01*
X36163233Y-54326717D01*
X36310450Y-54356000D01*
X36460550Y-54356000D01*
X36607767Y-54326717D01*
X36746442Y-54269276D01*
X36798250Y-54234659D01*
X36850058Y-54269276D01*
X36988733Y-54326717D01*
X37135950Y-54356000D01*
X37286050Y-54356000D01*
X37433267Y-54326717D01*
X37571942Y-54269276D01*
X37696747Y-54185884D01*
X37802884Y-54079747D01*
X37808758Y-54070956D01*
X38087133Y-54349331D01*
X38087139Y-54349336D01*
X38392416Y-54654613D01*
X38412236Y-54678764D01*
X38508623Y-54757866D01*
X38618590Y-54816645D01*
X38737910Y-54852840D01*
X38830912Y-54862000D01*
X38830913Y-54862000D01*
X38861999Y-54865062D01*
X38893085Y-54862000D01*
X40342787Y-54862000D01*
X40406058Y-54904276D01*
X40544733Y-54961717D01*
X40691950Y-54991000D01*
X40842050Y-54991000D01*
X40989267Y-54961717D01*
X41127942Y-54904276D01*
X41252747Y-54820884D01*
X41358884Y-54714747D01*
X41442276Y-54589942D01*
X41499717Y-54451267D01*
X41529000Y-54304050D01*
X41529000Y-54153950D01*
X41499717Y-54006733D01*
X41442276Y-53868058D01*
X41358884Y-53743253D01*
X41252747Y-53637116D01*
X41143597Y-53564184D01*
X41148000Y-53542050D01*
X41148000Y-53391950D01*
X41128536Y-53294095D01*
X41168384Y-53254247D01*
X41251776Y-53129442D01*
X41309217Y-52990767D01*
X41338500Y-52843550D01*
X41338500Y-52693450D01*
X41309217Y-52546233D01*
X41251776Y-52407558D01*
X41168384Y-52282753D01*
X41062247Y-52176616D01*
X40937442Y-52093224D01*
X40798767Y-52035783D01*
X40717219Y-52019562D01*
X40675878Y-51985635D01*
X40565911Y-51926856D01*
X40446591Y-51890661D01*
X40353589Y-51881501D01*
X40322501Y-51878439D01*
X40291413Y-51881501D01*
X39473776Y-51881501D01*
X39139306Y-51547031D01*
X39211267Y-51532717D01*
X39349942Y-51475276D01*
X39474747Y-51391884D01*
X39580884Y-51285747D01*
X39664276Y-51160942D01*
X39721717Y-51022267D01*
X39751000Y-50875050D01*
X39751000Y-50724950D01*
X39721717Y-50577733D01*
X39664276Y-50439058D01*
X39622000Y-50375787D01*
X39622000Y-49624585D01*
X39625062Y-49593499D01*
X39617965Y-49521445D01*
X39612840Y-49469410D01*
X39576645Y-49350090D01*
X39570985Y-49339500D01*
X39517866Y-49240123D01*
X39486038Y-49201340D01*
X39438764Y-49143736D01*
X39414613Y-49123916D01*
X38352000Y-48061303D01*
X38352000Y-45016473D01*
X38477114Y-44949598D01*
X38683897Y-44779897D01*
X38853598Y-44573114D01*
X38979698Y-44337198D01*
X38989000Y-44306533D01*
X38998302Y-44337198D01*
X39124402Y-44573114D01*
X39294103Y-44779897D01*
X39500886Y-44949598D01*
X39736802Y-45075698D01*
X39992786Y-45153350D01*
X40192294Y-45173000D01*
X40325706Y-45173000D01*
X40525214Y-45153350D01*
X40660971Y-45112169D01*
X40769000Y-45220198D01*
X40769001Y-48216786D01*
X40726724Y-48280058D01*
X40669283Y-48418733D01*
X40640000Y-48565950D01*
X40640000Y-48716050D01*
X40669283Y-48863267D01*
X40726724Y-49001942D01*
X40810116Y-49126747D01*
X40916253Y-49232884D01*
X41041058Y-49316276D01*
X41179733Y-49373717D01*
X41326950Y-49403000D01*
X41477050Y-49403000D01*
X41624267Y-49373717D01*
X41762942Y-49316276D01*
X41814750Y-49281659D01*
X41866558Y-49316276D01*
X42005233Y-49373717D01*
X42152450Y-49403000D01*
X42302550Y-49403000D01*
X42367743Y-49390032D01*
X42338356Y-49445012D01*
X42302160Y-49564333D01*
X42289938Y-49688422D01*
X42293001Y-49719520D01*
X42293000Y-50813592D01*
X42055882Y-51050711D01*
X42031737Y-51070526D01*
X41952634Y-51166913D01*
X41893855Y-51276880D01*
X41857660Y-51396200D01*
X41852418Y-51449424D01*
X41806224Y-51518558D01*
X41748783Y-51657233D01*
X41719500Y-51804450D01*
X41719500Y-51954550D01*
X41748783Y-52101767D01*
X41806224Y-52240442D01*
X41889616Y-52365247D01*
X41995753Y-52471384D01*
X42120558Y-52554776D01*
X42259233Y-52612217D01*
X42406450Y-52641500D01*
X42556550Y-52641500D01*
X42608500Y-52631167D01*
X42608500Y-52716550D01*
X42637783Y-52863767D01*
X42695224Y-53002442D01*
X42778616Y-53127247D01*
X42884753Y-53233384D01*
X43009558Y-53316776D01*
X43148233Y-53374217D01*
X43295450Y-53403500D01*
X43445550Y-53403500D01*
X43592767Y-53374217D01*
X43731442Y-53316776D01*
X43856247Y-53233384D01*
X43962384Y-53127247D01*
X44045776Y-53002442D01*
X44103217Y-52863767D01*
X44132500Y-52716550D01*
X44132500Y-52566450D01*
X44103217Y-52419233D01*
X44045776Y-52280558D01*
X44009010Y-52225534D01*
X44009010Y-50137019D01*
X46248449Y-47897580D01*
X46313753Y-47962884D01*
X46438558Y-48046276D01*
X46577233Y-48103717D01*
X46724450Y-48133000D01*
X46874550Y-48133000D01*
X47021767Y-48103717D01*
X47160442Y-48046276D01*
X47197730Y-48021361D01*
X47202753Y-48026384D01*
X47327558Y-48109776D01*
X47434500Y-48154073D01*
X47434500Y-48271550D01*
X47463783Y-48418767D01*
X47521224Y-48557442D01*
X47604616Y-48682247D01*
X47710753Y-48788384D01*
X47835558Y-48871776D01*
X47862862Y-48883086D01*
X47844783Y-48926733D01*
X47815500Y-49073950D01*
X47815500Y-49214500D01*
X47668213Y-49214500D01*
X47604942Y-49172224D01*
X47466267Y-49114783D01*
X47319050Y-49085500D01*
X47168950Y-49085500D01*
X47021733Y-49114783D01*
X46883058Y-49172224D01*
X46758253Y-49255616D01*
X46652116Y-49361753D01*
X46568724Y-49486558D01*
X46511283Y-49625233D01*
X46482000Y-49772450D01*
X46482000Y-49922550D01*
X46511283Y-50069767D01*
X46568724Y-50208442D01*
X46652116Y-50333247D01*
X46746074Y-50427205D01*
X46695724Y-50502558D01*
X46638283Y-50641233D01*
X46609000Y-50788450D01*
X46609000Y-50938550D01*
X46638283Y-51085767D01*
X46695724Y-51224442D01*
X46779116Y-51349247D01*
X46885253Y-51455384D01*
X47010058Y-51538776D01*
X47148733Y-51596217D01*
X47295950Y-51625500D01*
X47446050Y-51625500D01*
X47593267Y-51596217D01*
X47731942Y-51538776D01*
X47795213Y-51496500D01*
X48340392Y-51496500D01*
X48283224Y-51582058D01*
X48225783Y-51720733D01*
X48196500Y-51867950D01*
X48196500Y-52018050D01*
X48225783Y-52165267D01*
X48283224Y-52303942D01*
X48360270Y-52419250D01*
X48283224Y-52534558D01*
X48225783Y-52673233D01*
X48196500Y-52820450D01*
X48196500Y-52970550D01*
X48225783Y-53117767D01*
X48283224Y-53256442D01*
X48366616Y-53381247D01*
X48472753Y-53487384D01*
X48524657Y-53522065D01*
X48441974Y-53645808D01*
X48384533Y-53784483D01*
X48355250Y-53931700D01*
X48355250Y-54081800D01*
X48384533Y-54229017D01*
X48441974Y-54367692D01*
X48525366Y-54492497D01*
X48631503Y-54598634D01*
X48756308Y-54682026D01*
X48888644Y-54736842D01*
X49383717Y-55231914D01*
X49296058Y-55268224D01*
X49171253Y-55351616D01*
X49065116Y-55457753D01*
X48981724Y-55582558D01*
X48924283Y-55721233D01*
X48895000Y-55868450D01*
X48895000Y-56018550D01*
X48924283Y-56165767D01*
X48981724Y-56304442D01*
X49037556Y-56388000D01*
X48981724Y-56471558D01*
X48924283Y-56610233D01*
X48895000Y-56757450D01*
X48895000Y-56907550D01*
X48899403Y-56929684D01*
X48790253Y-57002616D01*
X48684116Y-57108753D01*
X48600724Y-57233558D01*
X48543283Y-57372233D01*
X48514000Y-57519450D01*
X48514000Y-57669550D01*
X48543283Y-57816767D01*
X48600724Y-57955442D01*
X48684116Y-58080247D01*
X48790253Y-58186384D01*
X48915058Y-58269776D01*
X49053733Y-58327217D01*
X49128365Y-58342062D01*
X52326000Y-61539697D01*
X52326001Y-64330527D01*
X52200886Y-64397402D01*
X51994103Y-64567103D01*
X51824402Y-64773886D01*
X51698302Y-65009802D01*
X51689000Y-65040467D01*
X51679698Y-65009802D01*
X51553598Y-64773886D01*
X51383897Y-64567103D01*
X51177114Y-64397402D01*
X50941198Y-64271302D01*
X50685214Y-64193650D01*
X50485706Y-64174000D01*
X50352294Y-64174000D01*
X50152786Y-64193650D01*
X50017029Y-64234832D01*
X47559500Y-61777303D01*
X47559500Y-61003213D01*
X47601776Y-60939942D01*
X47659217Y-60801267D01*
X47688500Y-60654050D01*
X47688500Y-60503950D01*
X47659217Y-60356733D01*
X47601776Y-60218058D01*
X47518384Y-60093253D01*
X47412247Y-59987116D01*
X47287442Y-59903724D01*
X47148767Y-59846283D01*
X47001550Y-59817000D01*
X46851450Y-59817000D01*
X46704233Y-59846283D01*
X46565558Y-59903724D01*
X46440753Y-59987116D01*
X46334616Y-60093253D01*
X46251224Y-60218058D01*
X46193783Y-60356733D01*
X46164500Y-60503950D01*
X46164500Y-60654050D01*
X46193783Y-60801267D01*
X46251224Y-60939942D01*
X46293500Y-61003213D01*
X46293501Y-62008402D01*
X46290438Y-62039500D01*
X46302660Y-62163589D01*
X46338856Y-62282910D01*
X46380014Y-62359910D01*
X46397635Y-62392877D01*
X46476737Y-62489264D01*
X46500883Y-62509080D01*
X48202974Y-64211171D01*
X48145214Y-64193650D01*
X47945706Y-64174000D01*
X47812294Y-64174000D01*
X47612786Y-64193650D01*
X47356802Y-64271302D01*
X47120886Y-64397402D01*
X46914103Y-64567103D01*
X46744402Y-64773886D01*
X46618302Y-65009802D01*
X46609000Y-65040467D01*
X46599698Y-65009802D01*
X46473598Y-64773886D01*
X46303897Y-64567103D01*
X46097114Y-64397402D01*
X45861198Y-64271302D01*
X45605214Y-64193650D01*
X45405706Y-64174000D01*
X45272294Y-64174000D01*
X45072786Y-64193650D01*
X44816802Y-64271302D01*
X44580886Y-64397402D01*
X44374103Y-64567103D01*
X44204402Y-64773886D01*
X44078302Y-65009802D01*
X44069000Y-65040467D01*
X44059698Y-65009802D01*
X43933598Y-64773886D01*
X43763897Y-64567103D01*
X43557114Y-64397402D01*
X43321198Y-64271302D01*
X43065214Y-64193650D01*
X42865706Y-64174000D01*
X42732294Y-64174000D01*
X42532786Y-64193650D01*
X42276802Y-64271302D01*
X42040886Y-64397402D01*
X41834103Y-64567103D01*
X41664402Y-64773886D01*
X41538302Y-65009802D01*
X41529000Y-65040467D01*
X41519698Y-65009802D01*
X41393598Y-64773886D01*
X41223897Y-64567103D01*
X41017114Y-64397402D01*
X40781198Y-64271302D01*
X40525214Y-64193650D01*
X40325706Y-64174000D01*
X40192294Y-64174000D01*
X39992786Y-64193650D01*
X39736802Y-64271302D01*
X39500886Y-64397402D01*
X39294103Y-64567103D01*
X39124402Y-64773886D01*
X38998302Y-65009802D01*
X38989000Y-65040467D01*
X38979698Y-65009802D01*
X38853598Y-64773886D01*
X38683897Y-64567103D01*
X38477114Y-64397402D01*
X38241198Y-64271302D01*
X37985214Y-64193650D01*
X37785706Y-64174000D01*
X37652294Y-64174000D01*
X37452786Y-64193650D01*
X37196802Y-64271302D01*
X36960886Y-64397402D01*
X36754103Y-64567103D01*
X36584402Y-64773886D01*
X36458302Y-65009802D01*
X36449000Y-65040467D01*
X36439698Y-65009802D01*
X36313598Y-64773886D01*
X36143897Y-64567103D01*
X35937114Y-64397402D01*
X35701198Y-64271302D01*
X35445214Y-64193650D01*
X35245706Y-64174000D01*
X35112294Y-64174000D01*
X34912786Y-64193650D01*
X34656802Y-64271302D01*
X34420886Y-64397402D01*
X34214103Y-64567103D01*
X34044402Y-64773886D01*
X33918302Y-65009802D01*
X33909000Y-65040467D01*
X33899698Y-65009802D01*
X33773598Y-64773886D01*
X33603897Y-64567103D01*
X33397114Y-64397402D01*
X33161198Y-64271302D01*
X32905214Y-64193650D01*
X32705706Y-64174000D01*
X32572294Y-64174000D01*
X32372786Y-64193650D01*
X32116802Y-64271302D01*
X31880886Y-64397402D01*
X31674103Y-64567103D01*
X31504402Y-64773886D01*
X31378302Y-65009802D01*
X31369000Y-65040467D01*
X31359698Y-65009802D01*
X31233598Y-64773886D01*
X31063897Y-64567103D01*
X30857114Y-64397402D01*
X30621198Y-64271302D01*
X30365214Y-64193650D01*
X30165706Y-64174000D01*
X30032294Y-64174000D01*
X29832786Y-64193650D01*
X29576802Y-64271302D01*
X29340886Y-64397402D01*
X29134103Y-64567103D01*
X28964402Y-64773886D01*
X28838302Y-65009802D01*
X28829000Y-65040467D01*
X28819698Y-65009802D01*
X28693598Y-64773886D01*
X28523897Y-64567103D01*
X28317114Y-64397402D01*
X28235447Y-64353750D01*
X29824029Y-62765168D01*
X29959786Y-62806350D01*
X30159294Y-62826000D01*
X30292706Y-62826000D01*
X30492214Y-62806350D01*
X30748198Y-62728698D01*
X30984114Y-62602598D01*
X31190897Y-62432897D01*
X31360598Y-62226114D01*
X31486698Y-61990198D01*
X31496000Y-61959533D01*
X31505302Y-61990198D01*
X31631402Y-62226114D01*
X31801103Y-62432897D01*
X32007886Y-62602598D01*
X32243802Y-62728698D01*
X32499786Y-62806350D01*
X32699294Y-62826000D01*
X32832706Y-62826000D01*
X33032214Y-62806350D01*
X33288198Y-62728698D01*
X33524114Y-62602598D01*
X33730897Y-62432897D01*
X33900598Y-62226114D01*
X34026698Y-61990198D01*
X34104350Y-61734214D01*
X34130570Y-61468000D01*
X34104350Y-61201786D01*
X34026698Y-60945802D01*
X33900598Y-60709886D01*
X33730897Y-60503103D01*
X33524114Y-60333402D01*
X33288198Y-60207302D01*
X33032214Y-60129650D01*
X32832706Y-60110000D01*
X32699294Y-60110000D01*
X32499786Y-60129650D01*
X32243802Y-60207302D01*
X32007886Y-60333402D01*
X31801103Y-60503103D01*
X31631402Y-60709886D01*
X31505302Y-60945802D01*
X31496000Y-60976467D01*
X31486698Y-60945802D01*
X31360598Y-60709886D01*
X31190897Y-60503103D01*
X30984114Y-60333402D01*
X30859000Y-60266527D01*
X30859000Y-57856697D01*
X31694697Y-57021000D01*
X32134869Y-57021000D01*
X32110616Y-57045253D01*
X32027224Y-57170058D01*
X31969783Y-57308733D01*
X31940500Y-57455950D01*
X31940500Y-57606050D01*
X31969783Y-57753267D01*
X32027224Y-57891942D01*
X32110616Y-58016747D01*
X32216753Y-58122884D01*
X32341558Y-58206276D01*
X32480233Y-58263717D01*
X32627450Y-58293000D01*
X32777550Y-58293000D01*
X32924767Y-58263717D01*
X33063442Y-58206276D01*
X33126713Y-58164000D01*
X43517787Y-58164000D01*
X43581058Y-58206276D01*
X43719733Y-58263717D01*
X43866950Y-58293000D01*
X44017050Y-58293000D01*
X44164267Y-58263717D01*
X44302942Y-58206276D01*
X44427747Y-58122884D01*
X44533884Y-58016747D01*
X44617276Y-57891942D01*
X44674717Y-57753267D01*
X44704000Y-57606050D01*
X44704000Y-57455950D01*
X44674717Y-57308733D01*
X44617276Y-57170058D01*
X44533884Y-57045253D01*
X44427747Y-56939116D01*
X44302942Y-56855724D01*
X44164267Y-56798283D01*
X44017050Y-56769000D01*
X43866950Y-56769000D01*
X43719733Y-56798283D01*
X43581058Y-56855724D01*
X43517787Y-56898000D01*
X37935037Y-56898000D01*
X37949776Y-56875942D01*
X38007217Y-56737267D01*
X38036500Y-56590050D01*
X38036500Y-56439950D01*
X38007217Y-56292733D01*
X37949776Y-56154058D01*
X37866384Y-56029253D01*
X37760247Y-55923116D01*
X37635442Y-55839724D01*
X37496767Y-55782283D01*
X37349550Y-55753000D01*
X37199450Y-55753000D01*
X37185816Y-55755712D01*
X37178588Y-55755000D01*
X37147500Y-55751938D01*
X37116412Y-55755000D01*
X31463588Y-55755000D01*
X31432500Y-55751938D01*
X31401412Y-55755000D01*
X31308410Y-55764160D01*
X31189090Y-55800355D01*
X31079123Y-55859134D01*
X30982736Y-55938236D01*
X30962916Y-55962387D01*
X29800384Y-57124919D01*
X29776237Y-57144736D01*
X29756421Y-57168882D01*
X29756419Y-57168884D01*
X29697134Y-57241124D01*
X29638356Y-57351090D01*
X29602160Y-57470411D01*
X29589938Y-57594500D01*
X29593001Y-57625598D01*
X29593000Y-60266527D01*
X29467886Y-60333402D01*
X29261103Y-60503103D01*
X29091402Y-60709886D01*
X28965302Y-60945802D01*
X28956000Y-60976467D01*
X28946698Y-60945802D01*
X28820598Y-60709886D01*
X28650897Y-60503103D01*
X28444114Y-60333402D01*
X28208198Y-60207302D01*
X27952214Y-60129650D01*
X27752706Y-60110000D01*
X27619294Y-60110000D01*
X27419786Y-60129650D01*
X27163802Y-60207302D01*
X26927886Y-60333402D01*
X26721103Y-60503103D01*
X26551402Y-60709886D01*
X26505798Y-60795206D01*
X26506458Y-60618000D01*
X26496650Y-60518415D01*
X26467602Y-60422656D01*
X26420430Y-60334405D01*
X26356948Y-60257052D01*
X26279595Y-60193570D01*
X26191344Y-60146398D01*
X26095585Y-60117350D01*
X25996000Y-60107542D01*
X25336500Y-60110000D01*
X25209500Y-60237000D01*
X25209500Y-61404500D01*
X25229500Y-61404500D01*
X25229500Y-61531500D01*
X25209500Y-61531500D01*
X25209500Y-62699000D01*
X25336500Y-62826000D01*
X25996000Y-62828458D01*
X26095585Y-62818650D01*
X26191344Y-62789602D01*
X26279595Y-62742430D01*
X26356948Y-62678948D01*
X26420430Y-62601595D01*
X26467602Y-62513344D01*
X26496650Y-62417585D01*
X26506458Y-62318000D01*
X26505798Y-62140794D01*
X26551402Y-62226114D01*
X26721103Y-62432897D01*
X26927886Y-62602598D01*
X27163802Y-62728698D01*
X27419786Y-62806350D01*
X27619294Y-62826000D01*
X27752706Y-62826000D01*
X27952214Y-62806350D01*
X28009974Y-62788829D01*
X27133387Y-63665416D01*
X27109236Y-63685236D01*
X27030134Y-63781624D01*
X26971355Y-63891591D01*
X26946926Y-63972123D01*
X26935160Y-64010911D01*
X26922938Y-64135000D01*
X26926000Y-64166089D01*
X26926000Y-64330527D01*
X26800886Y-64397402D01*
X26594103Y-64567103D01*
X26424402Y-64773886D01*
X26298302Y-65009802D01*
X26289000Y-65040467D01*
X26279698Y-65009802D01*
X26153598Y-64773886D01*
X25983897Y-64567103D01*
X25777114Y-64397402D01*
X25541198Y-64271302D01*
X25285214Y-64193650D01*
X25085706Y-64174000D01*
X24952294Y-64174000D01*
X24752786Y-64193650D01*
X24496802Y-64271302D01*
X24260886Y-64397402D01*
X24054103Y-64567103D01*
X23884402Y-64773886D01*
X23839457Y-64857972D01*
X23839457Y-64682000D01*
X23829649Y-64582415D01*
X23800601Y-64486657D01*
X23753429Y-64398405D01*
X23689948Y-64321052D01*
X23612595Y-64257571D01*
X23524343Y-64210399D01*
X23428585Y-64181351D01*
X23329000Y-64171543D01*
X21629000Y-64171543D01*
X21529415Y-64181351D01*
X21433657Y-64210399D01*
X21345405Y-64257571D01*
X21268052Y-64321052D01*
X21204571Y-64398405D01*
X21157399Y-64486657D01*
X21128351Y-64582415D01*
X21118543Y-64682000D01*
X21118543Y-66382000D01*
X21128351Y-66481585D01*
X21157399Y-66577343D01*
X21204571Y-66665595D01*
X21268052Y-66742948D01*
X21345405Y-66806429D01*
X21433657Y-66853601D01*
X21529415Y-66882649D01*
X21629000Y-66892457D01*
X23329000Y-66892457D01*
X23428585Y-66882649D01*
X23524343Y-66853601D01*
X23612595Y-66806429D01*
X23689948Y-66742948D01*
X23753429Y-66665595D01*
X23800601Y-66577343D01*
X23829649Y-66481585D01*
X23839457Y-66382000D01*
X23839457Y-66206028D01*
X23884402Y-66290114D01*
X24054103Y-66496897D01*
X24260886Y-66666598D01*
X24496802Y-66792698D01*
X24752786Y-66870350D01*
X24952294Y-66890000D01*
X25085706Y-66890000D01*
X25285214Y-66870350D01*
X25541198Y-66792698D01*
X25777114Y-66666598D01*
X25983897Y-66496897D01*
X26153598Y-66290114D01*
X26279698Y-66054198D01*
X26289000Y-66023533D01*
X26298302Y-66054198D01*
X26424402Y-66290114D01*
X26594103Y-66496897D01*
X26800886Y-66666598D01*
X27036802Y-66792698D01*
X27292786Y-66870350D01*
X27492294Y-66890000D01*
X27625706Y-66890000D01*
X27825214Y-66870350D01*
X28081198Y-66792698D01*
X28317114Y-66666598D01*
X28523897Y-66496897D01*
X28693598Y-66290114D01*
X28819698Y-66054198D01*
X28829000Y-66023533D01*
X28838302Y-66054198D01*
X28964402Y-66290114D01*
X29134103Y-66496897D01*
X29340886Y-66666598D01*
X29576802Y-66792698D01*
X29832786Y-66870350D01*
X30032294Y-66890000D01*
X30165706Y-66890000D01*
X30365214Y-66870350D01*
X30621198Y-66792698D01*
X30857114Y-66666598D01*
X31063897Y-66496897D01*
X31233598Y-66290114D01*
X31359698Y-66054198D01*
X31369000Y-66023533D01*
X31378302Y-66054198D01*
X31504402Y-66290114D01*
X31674103Y-66496897D01*
X31880886Y-66666598D01*
X32116802Y-66792698D01*
X32372786Y-66870350D01*
X32572294Y-66890000D01*
X32705706Y-66890000D01*
X32905214Y-66870350D01*
X33161198Y-66792698D01*
X33397114Y-66666598D01*
X33603897Y-66496897D01*
X33773598Y-66290114D01*
X33899698Y-66054198D01*
X33909000Y-66023533D01*
X33918302Y-66054198D01*
X34044402Y-66290114D01*
X34214103Y-66496897D01*
X34420886Y-66666598D01*
X34656802Y-66792698D01*
X34912786Y-66870350D01*
X35112294Y-66890000D01*
X35245706Y-66890000D01*
X35445214Y-66870350D01*
X35701198Y-66792698D01*
X35937114Y-66666598D01*
X36143897Y-66496897D01*
X36313598Y-66290114D01*
X36439698Y-66054198D01*
X36449000Y-66023533D01*
X36458302Y-66054198D01*
X36584402Y-66290114D01*
X36754103Y-66496897D01*
X36960886Y-66666598D01*
X37196802Y-66792698D01*
X37452786Y-66870350D01*
X37652294Y-66890000D01*
X37785706Y-66890000D01*
X37985214Y-66870350D01*
X38241198Y-66792698D01*
X38477114Y-66666598D01*
X38683897Y-66496897D01*
X38853598Y-66290114D01*
X38979698Y-66054198D01*
X38989000Y-66023533D01*
X38998302Y-66054198D01*
X39124402Y-66290114D01*
X39294103Y-66496897D01*
X39500886Y-66666598D01*
X39736802Y-66792698D01*
X39992786Y-66870350D01*
X40192294Y-66890000D01*
X40325706Y-66890000D01*
X40525214Y-66870350D01*
X40781198Y-66792698D01*
X41017114Y-66666598D01*
X41223897Y-66496897D01*
X41393598Y-66290114D01*
X41519698Y-66054198D01*
X41529000Y-66023533D01*
X41538302Y-66054198D01*
X41664402Y-66290114D01*
X41834103Y-66496897D01*
X42040886Y-66666598D01*
X42276802Y-66792698D01*
X42532786Y-66870350D01*
X42732294Y-66890000D01*
X42865706Y-66890000D01*
X43065214Y-66870350D01*
X43321198Y-66792698D01*
X43557114Y-66666598D01*
X43763897Y-66496897D01*
X43933598Y-66290114D01*
X44059698Y-66054198D01*
X44069000Y-66023533D01*
X44078302Y-66054198D01*
X44204402Y-66290114D01*
X44374103Y-66496897D01*
X44580886Y-66666598D01*
X44816802Y-66792698D01*
X45072786Y-66870350D01*
X45272294Y-66890000D01*
X45405706Y-66890000D01*
X45605214Y-66870350D01*
X45861198Y-66792698D01*
X46097114Y-66666598D01*
X46303897Y-66496897D01*
X46473598Y-66290114D01*
X46599698Y-66054198D01*
X46609000Y-66023533D01*
X46618302Y-66054198D01*
X46744402Y-66290114D01*
X46914103Y-66496897D01*
X47120886Y-66666598D01*
X47356802Y-66792698D01*
X47612786Y-66870350D01*
X47812294Y-66890000D01*
X47945706Y-66890000D01*
X48145214Y-66870350D01*
X48401198Y-66792698D01*
X48637114Y-66666598D01*
X48843897Y-66496897D01*
X49013598Y-66290114D01*
X49139698Y-66054198D01*
X49149000Y-66023533D01*
X49158302Y-66054198D01*
X49284402Y-66290114D01*
X49454103Y-66496897D01*
X49660886Y-66666598D01*
X49896802Y-66792698D01*
X50152786Y-66870350D01*
X50352294Y-66890000D01*
X50485706Y-66890000D01*
X50685214Y-66870350D01*
X50941198Y-66792698D01*
X51177114Y-66666598D01*
X51383897Y-66496897D01*
X51553598Y-66290114D01*
X51679698Y-66054198D01*
X51689000Y-66023533D01*
X51698302Y-66054198D01*
X51824402Y-66290114D01*
X51994103Y-66496897D01*
X52200886Y-66666598D01*
X52436802Y-66792698D01*
X52692786Y-66870350D01*
X52892294Y-66890000D01*
X53025706Y-66890000D01*
X53225214Y-66870350D01*
X53481198Y-66792698D01*
X53717114Y-66666598D01*
X53923897Y-66496897D01*
X54093598Y-66290114D01*
X54219698Y-66054198D01*
X54229000Y-66023533D01*
X54238302Y-66054198D01*
X54364402Y-66290114D01*
X54534103Y-66496897D01*
X54740886Y-66666598D01*
X54976802Y-66792698D01*
X55232786Y-66870350D01*
X55432294Y-66890000D01*
X55565706Y-66890000D01*
X55765214Y-66870350D01*
X56021198Y-66792698D01*
X56257114Y-66666598D01*
X56463897Y-66496897D01*
X56633598Y-66290114D01*
X56759698Y-66054198D01*
X56769000Y-66023533D01*
X56778302Y-66054198D01*
X56904402Y-66290114D01*
X57074103Y-66496897D01*
X57280886Y-66666598D01*
X57516802Y-66792698D01*
X57772786Y-66870350D01*
X57972294Y-66890000D01*
X58105706Y-66890000D01*
X58305214Y-66870350D01*
X58561198Y-66792698D01*
X58797114Y-66666598D01*
X59003897Y-66496897D01*
X59173598Y-66290114D01*
X59299698Y-66054198D01*
X59309000Y-66023533D01*
X59318302Y-66054198D01*
X59444402Y-66290114D01*
X59614103Y-66496897D01*
X59820886Y-66666598D01*
X60056802Y-66792698D01*
X60312786Y-66870350D01*
X60512294Y-66890000D01*
X60645706Y-66890000D01*
X60845214Y-66870350D01*
X61101198Y-66792698D01*
X61337114Y-66666598D01*
X61543897Y-66496897D01*
X61713598Y-66290114D01*
X61839698Y-66054198D01*
X61849000Y-66023533D01*
X61858302Y-66054198D01*
X61984402Y-66290114D01*
X62154103Y-66496897D01*
X62360886Y-66666598D01*
X62596802Y-66792698D01*
X62852786Y-66870350D01*
X63052294Y-66890000D01*
X63185706Y-66890000D01*
X63385214Y-66870350D01*
X63641198Y-66792698D01*
X63877114Y-66666598D01*
X64083897Y-66496897D01*
X64253598Y-66290114D01*
X64379698Y-66054198D01*
X64389000Y-66023533D01*
X64398302Y-66054198D01*
X64524402Y-66290114D01*
X64694103Y-66496897D01*
X64900886Y-66666598D01*
X65136802Y-66792698D01*
X65392786Y-66870350D01*
X65592294Y-66890000D01*
X65725706Y-66890000D01*
X65925214Y-66870350D01*
X66181198Y-66792698D01*
X66417114Y-66666598D01*
X66623897Y-66496897D01*
X66793598Y-66290114D01*
X66919698Y-66054198D01*
X66929000Y-66023533D01*
X66938302Y-66054198D01*
X67064402Y-66290114D01*
X67234103Y-66496897D01*
X67440886Y-66666598D01*
X67676802Y-66792698D01*
X67932786Y-66870350D01*
X68132294Y-66890000D01*
X68265706Y-66890000D01*
X68465214Y-66870350D01*
X68721198Y-66792698D01*
X68957114Y-66666598D01*
X69163897Y-66496897D01*
X69333598Y-66290114D01*
X69459698Y-66054198D01*
X69469000Y-66023533D01*
X69478302Y-66054198D01*
X69604402Y-66290114D01*
X69774103Y-66496897D01*
X69980886Y-66666598D01*
X70216802Y-66792698D01*
X70472786Y-66870350D01*
X70672294Y-66890000D01*
X70805706Y-66890000D01*
X71005214Y-66870350D01*
X71261198Y-66792698D01*
X71497114Y-66666598D01*
X71703897Y-66496897D01*
X71873598Y-66290114D01*
X71999698Y-66054198D01*
X72077350Y-65798214D01*
X72103570Y-65532000D01*
X72077350Y-65265786D01*
X71999698Y-65009802D01*
X71873598Y-64773886D01*
X71703897Y-64567103D01*
X71497114Y-64397402D01*
X71261198Y-64271302D01*
X71005214Y-64193650D01*
X70805706Y-64174000D01*
X70672294Y-64174000D01*
X70472786Y-64193650D01*
X70337029Y-64234832D01*
X66319084Y-60216887D01*
X66299264Y-60192736D01*
X66202877Y-60113634D01*
X66092910Y-60054855D01*
X65973590Y-60018660D01*
X65880588Y-60009500D01*
X65849500Y-60006438D01*
X65818412Y-60009500D01*
X60079197Y-60009500D01*
X56088697Y-56019000D01*
X66904543Y-56019000D01*
X66904543Y-57519000D01*
X66919155Y-57667358D01*
X66962429Y-57810014D01*
X67032703Y-57941487D01*
X67127276Y-58056724D01*
X67242513Y-58151297D01*
X67373986Y-58221571D01*
X67516642Y-58264845D01*
X67665000Y-58279457D01*
X70765000Y-58279457D01*
X70913358Y-58264845D01*
X71056014Y-58221571D01*
X71187487Y-58151297D01*
X71302724Y-58056724D01*
X71397297Y-57941487D01*
X71467571Y-57810014D01*
X71510845Y-57667358D01*
X71525457Y-57519000D01*
X71525457Y-56019000D01*
X71510845Y-55870642D01*
X71467571Y-55727986D01*
X71397297Y-55596513D01*
X71302724Y-55481276D01*
X71187487Y-55386703D01*
X71056014Y-55316429D01*
X70913358Y-55273155D01*
X70765000Y-55258543D01*
X67665000Y-55258543D01*
X67516642Y-55273155D01*
X67373986Y-55316429D01*
X67242513Y-55386703D01*
X67127276Y-55481276D01*
X67032703Y-55596513D01*
X66962429Y-55727986D01*
X66919155Y-55870642D01*
X66904543Y-56019000D01*
X56088697Y-56019000D01*
X49491584Y-49421887D01*
X49471764Y-49397736D01*
X49375377Y-49318634D01*
X49325942Y-49292210D01*
X49339500Y-49224050D01*
X49339500Y-49073950D01*
X49314454Y-48948033D01*
X50529445Y-47733042D01*
X50869058Y-47733042D01*
X50723176Y-47910798D01*
X50601719Y-48138028D01*
X50526926Y-48384587D01*
X50501672Y-48641000D01*
X50526926Y-48897413D01*
X50601719Y-49143972D01*
X50723176Y-49371202D01*
X50886630Y-49570370D01*
X51085798Y-49733824D01*
X51313028Y-49855281D01*
X51559587Y-49930074D01*
X51751750Y-49949000D01*
X51880250Y-49949000D01*
X52072413Y-49930074D01*
X52318972Y-49855281D01*
X52546202Y-49733824D01*
X52745370Y-49570370D01*
X52908824Y-49371202D01*
X53030281Y-49143972D01*
X53105074Y-48897413D01*
X53130328Y-48641000D01*
X53105074Y-48384587D01*
X53030281Y-48138028D01*
X52908824Y-47910798D01*
X52762942Y-47733042D01*
X56972261Y-47733042D01*
X54628882Y-50076420D01*
X54604737Y-50096236D01*
X54584921Y-50120382D01*
X54584919Y-50120384D01*
X54525634Y-50192624D01*
X54466856Y-50302590D01*
X54430660Y-50421911D01*
X54418438Y-50546000D01*
X54421501Y-50577098D01*
X54421501Y-50874264D01*
X54363969Y-50931796D01*
X54266679Y-51077401D01*
X54199664Y-51239188D01*
X54165500Y-51410941D01*
X54165500Y-51586059D01*
X54199664Y-51757812D01*
X54266679Y-51919599D01*
X54363969Y-52065204D01*
X54487796Y-52189031D01*
X54633401Y-52286321D01*
X54795188Y-52353336D01*
X54966941Y-52387500D01*
X55142059Y-52387500D01*
X55313812Y-52353336D01*
X55475599Y-52286321D01*
X55621204Y-52189031D01*
X55745031Y-52065204D01*
X55842321Y-51919599D01*
X55909336Y-51757812D01*
X55943500Y-51586059D01*
X55943500Y-51410941D01*
X55909336Y-51239188D01*
X55842321Y-51077401D01*
X55745031Y-50931796D01*
X55687500Y-50874265D01*
X55687500Y-50808197D01*
X58125543Y-48370154D01*
X58125543Y-49441000D01*
X58135351Y-49540585D01*
X58164399Y-49636343D01*
X58211571Y-49724595D01*
X58275052Y-49801948D01*
X58352405Y-49865429D01*
X58440657Y-49912601D01*
X58536415Y-49941649D01*
X58636000Y-49951457D01*
X60236000Y-49951457D01*
X60335585Y-49941649D01*
X60431343Y-49912601D01*
X60519595Y-49865429D01*
X60596948Y-49801948D01*
X60660429Y-49724595D01*
X60665295Y-49715492D01*
X60771501Y-49821699D01*
X60771500Y-52026787D01*
X60729224Y-52090058D01*
X60671783Y-52228733D01*
X60642500Y-52375950D01*
X60642500Y-52526050D01*
X60671783Y-52673267D01*
X60729224Y-52811942D01*
X60812616Y-52936747D01*
X60918753Y-53042884D01*
X61043558Y-53126276D01*
X61182233Y-53183717D01*
X61329450Y-53213000D01*
X61479550Y-53213000D01*
X61626767Y-53183717D01*
X61765442Y-53126276D01*
X61890247Y-53042884D01*
X61996384Y-52936747D01*
X62079776Y-52811942D01*
X62137217Y-52673267D01*
X62166500Y-52526050D01*
X62166500Y-52375950D01*
X62137217Y-52228733D01*
X62079776Y-52090058D01*
X62037500Y-52026787D01*
X62037500Y-51769000D01*
X66899704Y-51769000D01*
X66928820Y-52064620D01*
X67015049Y-52348879D01*
X67155077Y-52610853D01*
X67343524Y-52840476D01*
X67573147Y-53028923D01*
X67835121Y-53168951D01*
X68119380Y-53255180D01*
X68340922Y-53277000D01*
X70089078Y-53277000D01*
X70310620Y-53255180D01*
X70594879Y-53168951D01*
X70856853Y-53028923D01*
X71086476Y-52840476D01*
X71274923Y-52610853D01*
X71414951Y-52348879D01*
X71501180Y-52064620D01*
X71530296Y-51769000D01*
X71501180Y-51473380D01*
X71414951Y-51189121D01*
X71274923Y-50927147D01*
X71086476Y-50697524D01*
X70856853Y-50509077D01*
X70594879Y-50369049D01*
X70310620Y-50282820D01*
X70089078Y-50261000D01*
X68340922Y-50261000D01*
X68119380Y-50282820D01*
X67835121Y-50369049D01*
X67573147Y-50509077D01*
X67343524Y-50697524D01*
X67155077Y-50927147D01*
X67015049Y-51189121D01*
X66928820Y-51473380D01*
X66899704Y-51769000D01*
X62037500Y-51769000D01*
X62037500Y-49590585D01*
X62040562Y-49559499D01*
X62035681Y-49509942D01*
X62028340Y-49435410D01*
X61992145Y-49316090D01*
X61933366Y-49206123D01*
X61903611Y-49169866D01*
X61874081Y-49133883D01*
X61874080Y-49133882D01*
X61854264Y-49109736D01*
X61830118Y-49089920D01*
X60955584Y-48215387D01*
X60935764Y-48191236D01*
X60839377Y-48112134D01*
X60746457Y-48062467D01*
X60746457Y-47841000D01*
X60736649Y-47741415D01*
X60707601Y-47645657D01*
X60660429Y-47557405D01*
X60596948Y-47480052D01*
X60519595Y-47416571D01*
X60431343Y-47369399D01*
X60335585Y-47340351D01*
X60236000Y-47330543D01*
X59165155Y-47330543D01*
X60872697Y-45623001D01*
X61912911Y-45623001D01*
X61943999Y-45626063D01*
X61975087Y-45623001D01*
X62068089Y-45613841D01*
X62187409Y-45577646D01*
X62297376Y-45518867D01*
X62393763Y-45439765D01*
X62413584Y-45415613D01*
X62694612Y-45134584D01*
X62694617Y-45134580D01*
X62717029Y-45112168D01*
X62852786Y-45153350D01*
X63052294Y-45173000D01*
X63185706Y-45173000D01*
X63385214Y-45153350D01*
X63641198Y-45075698D01*
X63877114Y-44949598D01*
X64083897Y-44779897D01*
X64253598Y-44573114D01*
X64379698Y-44337198D01*
X64389000Y-44306533D01*
X64398302Y-44337198D01*
X64524402Y-44573114D01*
X64694103Y-44779897D01*
X64900886Y-44949598D01*
X65136802Y-45075698D01*
X65392786Y-45153350D01*
X65592294Y-45173000D01*
X65725706Y-45173000D01*
X65925214Y-45153350D01*
X66181198Y-45075698D01*
X66417114Y-44949598D01*
X66623897Y-44779897D01*
X66793598Y-44573114D01*
X66919698Y-44337198D01*
X66932752Y-44294166D01*
X66948306Y-44344089D01*
X67075558Y-44577921D01*
X67245983Y-44782434D01*
X67453032Y-44949769D01*
X67688748Y-45073496D01*
X67924076Y-45144880D01*
X68135500Y-45044361D01*
X68135500Y-43878500D01*
X68262500Y-43878500D01*
X68262500Y-45044361D01*
X68473924Y-45144880D01*
X68709252Y-45073496D01*
X68944968Y-44949769D01*
X69152017Y-44782434D01*
X69322442Y-44577921D01*
X69449694Y-44344089D01*
X69469000Y-44282124D01*
X69488306Y-44344089D01*
X69615558Y-44577921D01*
X69785983Y-44782434D01*
X69993032Y-44949769D01*
X70228748Y-45073496D01*
X70464076Y-45144880D01*
X70675500Y-45044361D01*
X70675500Y-43878500D01*
X70802500Y-43878500D01*
X70802500Y-45044361D01*
X71013924Y-45144880D01*
X71249252Y-45073496D01*
X71484968Y-44949769D01*
X71692017Y-44782434D01*
X71862442Y-44577921D01*
X71989694Y-44344089D01*
X72068882Y-44089924D01*
X71968517Y-43878500D01*
X70802500Y-43878500D01*
X70675500Y-43878500D01*
X69509483Y-43878500D01*
X69469000Y-43963780D01*
X69428517Y-43878500D01*
X68262500Y-43878500D01*
X68135500Y-43878500D01*
X68115500Y-43878500D01*
X68115500Y-43751500D01*
X68135500Y-43751500D01*
X68135500Y-42585639D01*
X68262500Y-42585639D01*
X68262500Y-43751500D01*
X69428517Y-43751500D01*
X69469000Y-43666220D01*
X69509483Y-43751500D01*
X70675500Y-43751500D01*
X70675500Y-42585639D01*
X70802500Y-42585639D01*
X70802500Y-43751500D01*
X71968517Y-43751500D01*
X72068882Y-43540076D01*
X71989694Y-43285911D01*
X71862442Y-43052079D01*
X71692017Y-42847566D01*
X71484968Y-42680231D01*
X71249252Y-42556504D01*
X71013924Y-42485120D01*
X70802500Y-42585639D01*
X70675500Y-42585639D01*
X70464076Y-42485120D01*
X70228748Y-42556504D01*
X69993032Y-42680231D01*
X69785983Y-42847566D01*
X69615558Y-43052079D01*
X69488306Y-43285911D01*
X69469000Y-43347876D01*
X69449694Y-43285911D01*
X69322442Y-43052079D01*
X69152017Y-42847566D01*
X68944968Y-42680231D01*
X68709252Y-42556504D01*
X68473924Y-42485120D01*
X68262500Y-42585639D01*
X68135500Y-42585639D01*
X67924076Y-42485120D01*
X67688748Y-42556504D01*
X67453032Y-42680231D01*
X67245983Y-42847566D01*
X67075558Y-43052079D01*
X66948306Y-43285911D01*
X66932752Y-43335834D01*
X66919698Y-43292802D01*
X66793598Y-43056886D01*
X66623897Y-42850103D01*
X66417114Y-42680402D01*
X66181198Y-42554302D01*
X65925214Y-42476650D01*
X65725706Y-42457000D01*
X65592294Y-42457000D01*
X65392786Y-42476650D01*
X65136802Y-42554302D01*
X64900886Y-42680402D01*
X64694103Y-42850103D01*
X64524402Y-43056886D01*
X64398302Y-43292802D01*
X64389000Y-43323467D01*
X64379698Y-43292802D01*
X64253598Y-43056886D01*
X64083897Y-42850103D01*
X63877114Y-42680402D01*
X63641198Y-42554302D01*
X63385214Y-42476650D01*
X63185706Y-42457000D01*
X63052294Y-42457000D01*
X62852786Y-42476650D01*
X62596802Y-42554302D01*
X62360886Y-42680402D01*
X62154103Y-42850103D01*
X61984402Y-43056886D01*
X61858302Y-43292802D01*
X61849000Y-43323467D01*
X61839698Y-43292802D01*
X61713598Y-43056886D01*
X61543897Y-42850103D01*
X61337114Y-42680402D01*
X61101198Y-42554302D01*
X60845214Y-42476650D01*
X60645706Y-42457000D01*
X60512294Y-42457000D01*
X60312786Y-42476650D01*
X60056802Y-42554302D01*
X59820886Y-42680402D01*
X59614103Y-42850103D01*
X59444402Y-43056886D01*
X59318302Y-43292802D01*
X59309000Y-43323467D01*
X59299698Y-43292802D01*
X59173598Y-43056886D01*
X59003897Y-42850103D01*
X58797114Y-42680402D01*
X58561198Y-42554302D01*
X58305214Y-42476650D01*
X58105706Y-42457000D01*
X57972294Y-42457000D01*
X57772786Y-42476650D01*
X57516802Y-42554302D01*
X57280886Y-42680402D01*
X57074103Y-42850103D01*
X56904402Y-43056886D01*
X56778302Y-43292802D01*
X56769000Y-43323467D01*
X56759698Y-43292802D01*
X56633598Y-43056886D01*
X56463897Y-42850103D01*
X56257114Y-42680402D01*
X56021198Y-42554302D01*
X55765214Y-42476650D01*
X55565706Y-42457000D01*
X55432294Y-42457000D01*
X55232786Y-42476650D01*
X54976802Y-42554302D01*
X54740886Y-42680402D01*
X54534103Y-42850103D01*
X54364402Y-43056886D01*
X54238302Y-43292802D01*
X54229000Y-43323467D01*
X54219698Y-43292802D01*
X54093598Y-43056886D01*
X53923897Y-42850103D01*
X53717114Y-42680402D01*
X53481198Y-42554302D01*
X53225214Y-42476650D01*
X53025706Y-42457000D01*
X52892294Y-42457000D01*
X52692786Y-42476650D01*
X52436802Y-42554302D01*
X52200886Y-42680402D01*
X51994103Y-42850103D01*
X51824402Y-43056886D01*
X51698302Y-43292802D01*
X51689000Y-43323467D01*
X51679698Y-43292802D01*
X51553598Y-43056886D01*
X51383897Y-42850103D01*
X51177114Y-42680402D01*
X50941198Y-42554302D01*
X50685214Y-42476650D01*
X50485706Y-42457000D01*
X50352294Y-42457000D01*
X50152786Y-42476650D01*
X49896802Y-42554302D01*
X49660886Y-42680402D01*
X49454103Y-42850103D01*
X49284402Y-43056886D01*
X49158302Y-43292802D01*
X49149000Y-43323467D01*
X49139698Y-43292802D01*
X49013598Y-43056886D01*
X48843897Y-42850103D01*
X48637114Y-42680402D01*
X48401198Y-42554302D01*
X48145214Y-42476650D01*
X47945706Y-42457000D01*
X47812294Y-42457000D01*
X47612786Y-42476650D01*
X47356802Y-42554302D01*
X47120886Y-42680402D01*
X46914103Y-42850103D01*
X46744402Y-43056886D01*
X46618302Y-43292802D01*
X46609000Y-43323467D01*
X46599698Y-43292802D01*
X46473598Y-43056886D01*
X46303897Y-42850103D01*
X46097114Y-42680402D01*
X45861198Y-42554302D01*
X45605214Y-42476650D01*
X45405706Y-42457000D01*
X45272294Y-42457000D01*
X45072786Y-42476650D01*
X44816802Y-42554302D01*
X44580886Y-42680402D01*
X44374103Y-42850103D01*
X44204402Y-43056886D01*
X44078302Y-43292802D01*
X44069000Y-43323467D01*
X44059698Y-43292802D01*
X43933598Y-43056886D01*
X43763897Y-42850103D01*
X43557114Y-42680402D01*
X43321198Y-42554302D01*
X43065214Y-42476650D01*
X42865706Y-42457000D01*
X42732294Y-42457000D01*
X42532786Y-42476650D01*
X42276802Y-42554302D01*
X42040886Y-42680402D01*
X41834103Y-42850103D01*
X41664402Y-43056886D01*
X41538302Y-43292802D01*
X41529000Y-43323467D01*
X41519698Y-43292802D01*
X41393598Y-43056886D01*
X41223897Y-42850103D01*
X41017114Y-42680402D01*
X40781198Y-42554302D01*
X40525214Y-42476650D01*
X40325706Y-42457000D01*
X40192294Y-42457000D01*
X39992786Y-42476650D01*
X39736802Y-42554302D01*
X39500886Y-42680402D01*
X39294103Y-42850103D01*
X39124402Y-43056886D01*
X38998302Y-43292802D01*
X38989000Y-43323467D01*
X38979698Y-43292802D01*
X38853598Y-43056886D01*
X38683897Y-42850103D01*
X38477114Y-42680402D01*
X38241198Y-42554302D01*
X37985214Y-42476650D01*
X37785706Y-42457000D01*
X37652294Y-42457000D01*
X37452786Y-42476650D01*
X37196802Y-42554302D01*
X36960886Y-42680402D01*
X36754103Y-42850103D01*
X36584402Y-43056886D01*
X36458302Y-43292802D01*
X36449000Y-43323467D01*
X36439698Y-43292802D01*
X36313598Y-43056886D01*
X36143897Y-42850103D01*
X35937114Y-42680402D01*
X35701198Y-42554302D01*
X35445214Y-42476650D01*
X35245706Y-42457000D01*
X35112294Y-42457000D01*
X34912786Y-42476650D01*
X34656802Y-42554302D01*
X34420886Y-42680402D01*
X34214103Y-42850103D01*
X34044402Y-43056886D01*
X33918302Y-43292802D01*
X33909000Y-43323467D01*
X33899698Y-43292802D01*
X33773598Y-43056886D01*
X33603897Y-42850103D01*
X33397114Y-42680402D01*
X33161198Y-42554302D01*
X32905214Y-42476650D01*
X32705706Y-42457000D01*
X32572294Y-42457000D01*
X32372786Y-42476650D01*
X32116802Y-42554302D01*
X31880886Y-42680402D01*
X31674103Y-42850103D01*
X31504402Y-43056886D01*
X31378302Y-43292802D01*
X31369000Y-43323467D01*
X31359698Y-43292802D01*
X31233598Y-43056886D01*
X31063897Y-42850103D01*
X30857114Y-42680402D01*
X30621198Y-42554302D01*
X30365214Y-42476650D01*
X30165706Y-42457000D01*
X30032294Y-42457000D01*
X29832786Y-42476650D01*
X29576802Y-42554302D01*
X29340886Y-42680402D01*
X29134103Y-42850103D01*
X28964402Y-43056886D01*
X28838302Y-43292802D01*
X28829000Y-43323467D01*
X28819698Y-43292802D01*
X28693598Y-43056886D01*
X28523897Y-42850103D01*
X28317114Y-42680402D01*
X28081198Y-42554302D01*
X27825214Y-42476650D01*
X27625706Y-42457000D01*
X27492294Y-42457000D01*
X27292786Y-42476650D01*
X27036802Y-42554302D01*
X26800886Y-42680402D01*
X26594103Y-42850103D01*
X26424402Y-43056886D01*
X26298302Y-43292802D01*
X26289000Y-43323467D01*
X26279698Y-43292802D01*
X26153598Y-43056886D01*
X25983897Y-42850103D01*
X25777114Y-42680402D01*
X25541198Y-42554302D01*
X25285214Y-42476650D01*
X25085706Y-42457000D01*
X24952294Y-42457000D01*
X24752786Y-42476650D01*
X24496802Y-42554302D01*
X24260886Y-42680402D01*
X24054103Y-42850103D01*
X23884402Y-43056886D01*
X23839457Y-43140972D01*
X23839457Y-42965000D01*
X23829649Y-42865415D01*
X23800601Y-42769657D01*
X23753429Y-42681405D01*
X23689948Y-42604052D01*
X23612595Y-42540571D01*
X23524343Y-42493399D01*
X23428585Y-42464351D01*
X23329000Y-42454543D01*
X21629000Y-42454543D01*
X21529415Y-42464351D01*
X21433657Y-42493399D01*
X21345405Y-42540571D01*
X21268052Y-42604052D01*
X21204571Y-42681405D01*
X21157399Y-42769657D01*
X21128351Y-42865415D01*
X21118543Y-42965000D01*
X19583000Y-42965000D01*
X19583000Y-42443000D01*
X73381000Y-42443000D01*
X73381001Y-67031000D01*
G36*
X54866000Y-62936697D02*
G01*
X54866001Y-64330527D01*
X54740886Y-64397402D01*
X54534103Y-64567103D01*
X54364402Y-64773886D01*
X54238302Y-65009802D01*
X54229000Y-65040467D01*
X54219698Y-65009802D01*
X54093598Y-64773886D01*
X53923897Y-64567103D01*
X53717114Y-64397402D01*
X53592000Y-64330527D01*
X53592000Y-61662697D01*
X54866000Y-62936697D01*
X54866000Y-62936697D01*
G37*
X54866000Y-62936697D02*
X54866001Y-64330527D01*
X54740886Y-64397402D01*
X54534103Y-64567103D01*
X54364402Y-64773886D01*
X54238302Y-65009802D01*
X54229000Y-65040467D01*
X54219698Y-65009802D01*
X54093598Y-64773886D01*
X53923897Y-64567103D01*
X53717114Y-64397402D01*
X53592000Y-64330527D01*
X53592000Y-61662697D01*
X54866000Y-62936697D01*
G36*
X46396002Y-44696097D02*
G01*
X46396001Y-45323224D01*
X43813000Y-47906225D01*
X43813000Y-46236197D01*
X44937029Y-45112169D01*
X45072786Y-45153350D01*
X45272294Y-45173000D01*
X45405706Y-45173000D01*
X45605214Y-45153350D01*
X45861198Y-45075698D01*
X46097114Y-44949598D01*
X46303897Y-44779897D01*
X46393502Y-44670712D01*
X46396002Y-44696097D01*
X46396002Y-44696097D01*
G37*
X46396002Y-44696097D02*
X46396001Y-45323224D01*
X43813000Y-47906225D01*
X43813000Y-46236197D01*
X44937029Y-45112169D01*
X45072786Y-45153350D01*
X45272294Y-45173000D01*
X45405706Y-45173000D01*
X45605214Y-45153350D01*
X45861198Y-45075698D01*
X46097114Y-44949598D01*
X46303897Y-44779897D01*
X46393502Y-44670712D01*
X46396002Y-44696097D01*
M02*
