G04 #@! TF.GenerationSoftware,KiCad,Pcbnew,5.1.4+dfsg1-2*
G04 #@! TF.CreationDate,2019-12-30T19:47:55+08:00*
G04 #@! TF.ProjectId,usb2can,75736232-6361-46e2-9e6b-696361645f70,rev?*
G04 #@! TF.SameCoordinates,Original*
G04 #@! TF.FileFunction,Legend,Bot*
G04 #@! TF.FilePolarity,Positive*
%FSLAX46Y46*%
G04 Gerber Fmt 4.6, Leading zero omitted, Abs format (unit mm)*
G04 Created by KiCad (PCBNEW 5.1.4+dfsg1-2) date 2019-12-30 19:47:55*
%MOMM*%
%LPD*%
G04 APERTURE LIST*
%ADD10C,0.150000*%
%ADD11C,0.300000*%
G04 APERTURE END LIST*
D10*
X70002476Y-46220000D02*
X69926285Y-46267619D01*
X69812000Y-46267619D01*
X69697714Y-46220000D01*
X69621523Y-46124761D01*
X69583428Y-46029523D01*
X69545333Y-45839047D01*
X69545333Y-45696190D01*
X69583428Y-45505714D01*
X69621523Y-45410476D01*
X69697714Y-45315238D01*
X69812000Y-45267619D01*
X69888190Y-45267619D01*
X70002476Y-45315238D01*
X70040571Y-45362857D01*
X70040571Y-45696190D01*
X69888190Y-45696190D01*
X70383428Y-45267619D02*
X70383428Y-46267619D01*
X70840571Y-45267619D01*
X70840571Y-46267619D01*
X71221523Y-45267619D02*
X71221523Y-46267619D01*
X71412000Y-46267619D01*
X71526285Y-46220000D01*
X71602476Y-46124761D01*
X71640571Y-46029523D01*
X71678666Y-45839047D01*
X71678666Y-45696190D01*
X71640571Y-45505714D01*
X71602476Y-45410476D01*
X71526285Y-45315238D01*
X71412000Y-45267619D01*
X71221523Y-45267619D01*
X67462476Y-46220000D02*
X67386285Y-46267619D01*
X67272000Y-46267619D01*
X67157714Y-46220000D01*
X67081523Y-46124761D01*
X67043428Y-46029523D01*
X67005333Y-45839047D01*
X67005333Y-45696190D01*
X67043428Y-45505714D01*
X67081523Y-45410476D01*
X67157714Y-45315238D01*
X67272000Y-45267619D01*
X67348190Y-45267619D01*
X67462476Y-45315238D01*
X67500571Y-45362857D01*
X67500571Y-45696190D01*
X67348190Y-45696190D01*
X67843428Y-45267619D02*
X67843428Y-46267619D01*
X68300571Y-45267619D01*
X68300571Y-46267619D01*
X68681523Y-45267619D02*
X68681523Y-46267619D01*
X68872000Y-46267619D01*
X68986285Y-46220000D01*
X69062476Y-46124761D01*
X69100571Y-46029523D01*
X69138666Y-45839047D01*
X69138666Y-45696190D01*
X69100571Y-45505714D01*
X69062476Y-45410476D01*
X68986285Y-45315238D01*
X68872000Y-45267619D01*
X68681523Y-45267619D01*
X65633619Y-46267619D02*
X65252666Y-46267619D01*
X65214571Y-45791428D01*
X65252666Y-45839047D01*
X65328857Y-45886666D01*
X65519333Y-45886666D01*
X65595523Y-45839047D01*
X65633619Y-45791428D01*
X65671714Y-45696190D01*
X65671714Y-45458095D01*
X65633619Y-45362857D01*
X65595523Y-45315238D01*
X65519333Y-45267619D01*
X65328857Y-45267619D01*
X65252666Y-45315238D01*
X65214571Y-45362857D01*
X65900285Y-46267619D02*
X66166952Y-45267619D01*
X66433619Y-46267619D01*
X62065047Y-46267619D02*
X62560285Y-46267619D01*
X62293619Y-45886666D01*
X62407904Y-45886666D01*
X62484095Y-45839047D01*
X62522190Y-45791428D01*
X62560285Y-45696190D01*
X62560285Y-45458095D01*
X62522190Y-45362857D01*
X62484095Y-45315238D01*
X62407904Y-45267619D01*
X62179333Y-45267619D01*
X62103142Y-45315238D01*
X62065047Y-45362857D01*
X62903142Y-45362857D02*
X62941238Y-45315238D01*
X62903142Y-45267619D01*
X62865047Y-45315238D01*
X62903142Y-45362857D01*
X62903142Y-45267619D01*
X63207904Y-46267619D02*
X63703142Y-46267619D01*
X63436476Y-45886666D01*
X63550761Y-45886666D01*
X63626952Y-45839047D01*
X63665047Y-45791428D01*
X63703142Y-45696190D01*
X63703142Y-45458095D01*
X63665047Y-45362857D01*
X63626952Y-45315238D01*
X63550761Y-45267619D01*
X63322190Y-45267619D01*
X63246000Y-45315238D01*
X63207904Y-45362857D01*
X63931714Y-46267619D02*
X64198380Y-45267619D01*
X64465047Y-46267619D01*
X60134571Y-45553333D02*
X60515523Y-45553333D01*
X60058380Y-45267619D02*
X60325047Y-46267619D01*
X60591714Y-45267619D01*
X61201238Y-45934285D02*
X61201238Y-45267619D01*
X61010761Y-46315238D02*
X60820285Y-45600952D01*
X61315523Y-45600952D01*
X57594571Y-45553333D02*
X57975523Y-45553333D01*
X57518380Y-45267619D02*
X57785047Y-46267619D01*
X58051714Y-45267619D01*
X58699333Y-46267619D02*
X58318380Y-46267619D01*
X58280285Y-45791428D01*
X58318380Y-45839047D01*
X58394571Y-45886666D01*
X58585047Y-45886666D01*
X58661238Y-45839047D01*
X58699333Y-45791428D01*
X58737428Y-45696190D01*
X58737428Y-45458095D01*
X58699333Y-45362857D01*
X58661238Y-45315238D01*
X58585047Y-45267619D01*
X58394571Y-45267619D01*
X58318380Y-45315238D01*
X58280285Y-45362857D01*
X55054571Y-45553333D02*
X55435523Y-45553333D01*
X54978380Y-45267619D02*
X55245047Y-46267619D01*
X55511714Y-45267619D01*
X56121238Y-46267619D02*
X55968857Y-46267619D01*
X55892666Y-46220000D01*
X55854571Y-46172380D01*
X55778380Y-46029523D01*
X55740285Y-45839047D01*
X55740285Y-45458095D01*
X55778380Y-45362857D01*
X55816476Y-45315238D01*
X55892666Y-45267619D01*
X56045047Y-45267619D01*
X56121238Y-45315238D01*
X56159333Y-45362857D01*
X56197428Y-45458095D01*
X56197428Y-45696190D01*
X56159333Y-45791428D01*
X56121238Y-45839047D01*
X56045047Y-45886666D01*
X55892666Y-45886666D01*
X55816476Y-45839047D01*
X55778380Y-45791428D01*
X55740285Y-45696190D01*
X52260571Y-45553333D02*
X52641523Y-45553333D01*
X52184380Y-45267619D02*
X52451047Y-46267619D01*
X52717714Y-45267619D01*
X52908190Y-46267619D02*
X53441523Y-46267619D01*
X53098666Y-45267619D01*
X49968190Y-45791428D02*
X50082476Y-45743809D01*
X50120571Y-45696190D01*
X50158666Y-45600952D01*
X50158666Y-45458095D01*
X50120571Y-45362857D01*
X50082476Y-45315238D01*
X50006285Y-45267619D01*
X49701523Y-45267619D01*
X49701523Y-46267619D01*
X49968190Y-46267619D01*
X50044380Y-46220000D01*
X50082476Y-46172380D01*
X50120571Y-46077142D01*
X50120571Y-45981904D01*
X50082476Y-45886666D01*
X50044380Y-45839047D01*
X49968190Y-45791428D01*
X49701523Y-45791428D01*
X50653904Y-46267619D02*
X50730095Y-46267619D01*
X50806285Y-46220000D01*
X50844380Y-46172380D01*
X50882476Y-46077142D01*
X50920571Y-45886666D01*
X50920571Y-45648571D01*
X50882476Y-45458095D01*
X50844380Y-45362857D01*
X50806285Y-45315238D01*
X50730095Y-45267619D01*
X50653904Y-45267619D01*
X50577714Y-45315238D01*
X50539619Y-45362857D01*
X50501523Y-45458095D01*
X50463428Y-45648571D01*
X50463428Y-45886666D01*
X50501523Y-46077142D01*
X50539619Y-46172380D01*
X50577714Y-46220000D01*
X50653904Y-46267619D01*
X47682190Y-45791428D02*
X47796476Y-45743809D01*
X47834571Y-45696190D01*
X47872666Y-45600952D01*
X47872666Y-45458095D01*
X47834571Y-45362857D01*
X47796476Y-45315238D01*
X47720285Y-45267619D01*
X47415523Y-45267619D01*
X47415523Y-46267619D01*
X47682190Y-46267619D01*
X47758380Y-46220000D01*
X47796476Y-46172380D01*
X47834571Y-46077142D01*
X47834571Y-45981904D01*
X47796476Y-45886666D01*
X47758380Y-45839047D01*
X47682190Y-45791428D01*
X47415523Y-45791428D01*
X48634571Y-45267619D02*
X48177428Y-45267619D01*
X48406000Y-45267619D02*
X48406000Y-46267619D01*
X48329809Y-46124761D01*
X48253619Y-46029523D01*
X48177428Y-45981904D01*
X45142190Y-45791428D02*
X45256476Y-45743809D01*
X45294571Y-45696190D01*
X45332666Y-45600952D01*
X45332666Y-45458095D01*
X45294571Y-45362857D01*
X45256476Y-45315238D01*
X45180285Y-45267619D01*
X44875523Y-45267619D01*
X44875523Y-46267619D01*
X45142190Y-46267619D01*
X45218380Y-46220000D01*
X45256476Y-46172380D01*
X45294571Y-46077142D01*
X45294571Y-45981904D01*
X45256476Y-45886666D01*
X45218380Y-45839047D01*
X45142190Y-45791428D01*
X44875523Y-45791428D01*
X45637428Y-46172380D02*
X45675523Y-46220000D01*
X45751714Y-46267619D01*
X45942190Y-46267619D01*
X46018380Y-46220000D01*
X46056476Y-46172380D01*
X46094571Y-46077142D01*
X46094571Y-45981904D01*
X46056476Y-45839047D01*
X45599333Y-45267619D01*
X46094571Y-45267619D01*
X41967238Y-45791428D02*
X42081523Y-45743809D01*
X42119619Y-45696190D01*
X42157714Y-45600952D01*
X42157714Y-45458095D01*
X42119619Y-45362857D01*
X42081523Y-45315238D01*
X42005333Y-45267619D01*
X41700571Y-45267619D01*
X41700571Y-46267619D01*
X41967238Y-46267619D01*
X42043428Y-46220000D01*
X42081523Y-46172380D01*
X42119619Y-46077142D01*
X42119619Y-45981904D01*
X42081523Y-45886666D01*
X42043428Y-45839047D01*
X41967238Y-45791428D01*
X41700571Y-45791428D01*
X42919619Y-45267619D02*
X42462476Y-45267619D01*
X42691047Y-45267619D02*
X42691047Y-46267619D01*
X42614857Y-46124761D01*
X42538666Y-46029523D01*
X42462476Y-45981904D01*
X43414857Y-46267619D02*
X43491047Y-46267619D01*
X43567238Y-46220000D01*
X43605333Y-46172380D01*
X43643428Y-46077142D01*
X43681523Y-45886666D01*
X43681523Y-45648571D01*
X43643428Y-45458095D01*
X43605333Y-45362857D01*
X43567238Y-45315238D01*
X43491047Y-45267619D01*
X43414857Y-45267619D01*
X43338666Y-45315238D01*
X43300571Y-45362857D01*
X43262476Y-45458095D01*
X43224380Y-45648571D01*
X43224380Y-45886666D01*
X43262476Y-46077142D01*
X43300571Y-46172380D01*
X43338666Y-46220000D01*
X43414857Y-46267619D01*
X39681238Y-45791428D02*
X39795523Y-45743809D01*
X39833619Y-45696190D01*
X39871714Y-45600952D01*
X39871714Y-45458095D01*
X39833619Y-45362857D01*
X39795523Y-45315238D01*
X39719333Y-45267619D01*
X39414571Y-45267619D01*
X39414571Y-46267619D01*
X39681238Y-46267619D01*
X39757428Y-46220000D01*
X39795523Y-46172380D01*
X39833619Y-46077142D01*
X39833619Y-45981904D01*
X39795523Y-45886666D01*
X39757428Y-45839047D01*
X39681238Y-45791428D01*
X39414571Y-45791428D01*
X40633619Y-45267619D02*
X40176476Y-45267619D01*
X40405047Y-45267619D02*
X40405047Y-46267619D01*
X40328857Y-46124761D01*
X40252666Y-46029523D01*
X40176476Y-45981904D01*
X41395523Y-45267619D02*
X40938380Y-45267619D01*
X41166952Y-45267619D02*
X41166952Y-46267619D01*
X41090761Y-46124761D01*
X41014571Y-46029523D01*
X40938380Y-45981904D01*
X37141238Y-45791428D02*
X37255523Y-45743809D01*
X37293619Y-45696190D01*
X37331714Y-45600952D01*
X37331714Y-45458095D01*
X37293619Y-45362857D01*
X37255523Y-45315238D01*
X37179333Y-45267619D01*
X36874571Y-45267619D01*
X36874571Y-46267619D01*
X37141238Y-46267619D01*
X37217428Y-46220000D01*
X37255523Y-46172380D01*
X37293619Y-46077142D01*
X37293619Y-45981904D01*
X37255523Y-45886666D01*
X37217428Y-45839047D01*
X37141238Y-45791428D01*
X36874571Y-45791428D01*
X38093619Y-45267619D02*
X37636476Y-45267619D01*
X37865047Y-45267619D02*
X37865047Y-46267619D01*
X37788857Y-46124761D01*
X37712666Y-46029523D01*
X37636476Y-45981904D01*
X38398380Y-46172380D02*
X38436476Y-46220000D01*
X38512666Y-46267619D01*
X38703142Y-46267619D01*
X38779333Y-46220000D01*
X38817428Y-46172380D01*
X38855523Y-46077142D01*
X38855523Y-45981904D01*
X38817428Y-45839047D01*
X38360285Y-45267619D01*
X38855523Y-45267619D01*
X34347238Y-45791428D02*
X34461523Y-45743809D01*
X34499619Y-45696190D01*
X34537714Y-45600952D01*
X34537714Y-45458095D01*
X34499619Y-45362857D01*
X34461523Y-45315238D01*
X34385333Y-45267619D01*
X34080571Y-45267619D01*
X34080571Y-46267619D01*
X34347238Y-46267619D01*
X34423428Y-46220000D01*
X34461523Y-46172380D01*
X34499619Y-46077142D01*
X34499619Y-45981904D01*
X34461523Y-45886666D01*
X34423428Y-45839047D01*
X34347238Y-45791428D01*
X34080571Y-45791428D01*
X35299619Y-45267619D02*
X34842476Y-45267619D01*
X35071047Y-45267619D02*
X35071047Y-46267619D01*
X34994857Y-46124761D01*
X34918666Y-46029523D01*
X34842476Y-45981904D01*
X35566285Y-46267619D02*
X36061523Y-46267619D01*
X35794857Y-45886666D01*
X35909142Y-45886666D01*
X35985333Y-45839047D01*
X36023428Y-45791428D01*
X36061523Y-45696190D01*
X36061523Y-45458095D01*
X36023428Y-45362857D01*
X35985333Y-45315238D01*
X35909142Y-45267619D01*
X35680571Y-45267619D01*
X35604380Y-45315238D01*
X35566285Y-45362857D01*
X31807238Y-45791428D02*
X31921523Y-45743809D01*
X31959619Y-45696190D01*
X31997714Y-45600952D01*
X31997714Y-45458095D01*
X31959619Y-45362857D01*
X31921523Y-45315238D01*
X31845333Y-45267619D01*
X31540571Y-45267619D01*
X31540571Y-46267619D01*
X31807238Y-46267619D01*
X31883428Y-46220000D01*
X31921523Y-46172380D01*
X31959619Y-46077142D01*
X31959619Y-45981904D01*
X31921523Y-45886666D01*
X31883428Y-45839047D01*
X31807238Y-45791428D01*
X31540571Y-45791428D01*
X32759619Y-45267619D02*
X32302476Y-45267619D01*
X32531047Y-45267619D02*
X32531047Y-46267619D01*
X32454857Y-46124761D01*
X32378666Y-46029523D01*
X32302476Y-45981904D01*
X33445333Y-45934285D02*
X33445333Y-45267619D01*
X33254857Y-46315238D02*
X33064380Y-45600952D01*
X33559619Y-45600952D01*
X29267238Y-45791428D02*
X29381523Y-45743809D01*
X29419619Y-45696190D01*
X29457714Y-45600952D01*
X29457714Y-45458095D01*
X29419619Y-45362857D01*
X29381523Y-45315238D01*
X29305333Y-45267619D01*
X29000571Y-45267619D01*
X29000571Y-46267619D01*
X29267238Y-46267619D01*
X29343428Y-46220000D01*
X29381523Y-46172380D01*
X29419619Y-46077142D01*
X29419619Y-45981904D01*
X29381523Y-45886666D01*
X29343428Y-45839047D01*
X29267238Y-45791428D01*
X29000571Y-45791428D01*
X30219619Y-45267619D02*
X29762476Y-45267619D01*
X29991047Y-45267619D02*
X29991047Y-46267619D01*
X29914857Y-46124761D01*
X29838666Y-46029523D01*
X29762476Y-45981904D01*
X30943428Y-46267619D02*
X30562476Y-46267619D01*
X30524380Y-45791428D01*
X30562476Y-45839047D01*
X30638666Y-45886666D01*
X30829142Y-45886666D01*
X30905333Y-45839047D01*
X30943428Y-45791428D01*
X30981523Y-45696190D01*
X30981523Y-45458095D01*
X30943428Y-45362857D01*
X30905333Y-45315238D01*
X30829142Y-45267619D01*
X30638666Y-45267619D01*
X30562476Y-45315238D01*
X30524380Y-45362857D01*
X26860571Y-45553333D02*
X27241523Y-45553333D01*
X26784380Y-45267619D02*
X27051047Y-46267619D01*
X27317714Y-45267619D01*
X27698666Y-45839047D02*
X27622476Y-45886666D01*
X27584380Y-45934285D01*
X27546285Y-46029523D01*
X27546285Y-46077142D01*
X27584380Y-46172380D01*
X27622476Y-46220000D01*
X27698666Y-46267619D01*
X27851047Y-46267619D01*
X27927238Y-46220000D01*
X27965333Y-46172380D01*
X28003428Y-46077142D01*
X28003428Y-46029523D01*
X27965333Y-45934285D01*
X27927238Y-45886666D01*
X27851047Y-45839047D01*
X27698666Y-45839047D01*
X27622476Y-45791428D01*
X27584380Y-45743809D01*
X27546285Y-45648571D01*
X27546285Y-45458095D01*
X27584380Y-45362857D01*
X27622476Y-45315238D01*
X27698666Y-45267619D01*
X27851047Y-45267619D01*
X27927238Y-45315238D01*
X27965333Y-45362857D01*
X28003428Y-45458095D01*
X28003428Y-45648571D01*
X27965333Y-45743809D01*
X27927238Y-45791428D01*
X27851047Y-45839047D01*
X24320571Y-45553333D02*
X24701523Y-45553333D01*
X24244380Y-45267619D02*
X24511047Y-46267619D01*
X24777714Y-45267619D01*
X25082476Y-45267619D02*
X25234857Y-45267619D01*
X25311047Y-45315238D01*
X25349142Y-45362857D01*
X25425333Y-45505714D01*
X25463428Y-45696190D01*
X25463428Y-46077142D01*
X25425333Y-46172380D01*
X25387238Y-46220000D01*
X25311047Y-46267619D01*
X25158666Y-46267619D01*
X25082476Y-46220000D01*
X25044380Y-46172380D01*
X25006285Y-46077142D01*
X25006285Y-45839047D01*
X25044380Y-45743809D01*
X25082476Y-45696190D01*
X25158666Y-45648571D01*
X25311047Y-45648571D01*
X25387238Y-45696190D01*
X25425333Y-45743809D01*
X25463428Y-45839047D01*
X21399619Y-45553333D02*
X21780571Y-45553333D01*
X21323428Y-45267619D02*
X21590095Y-46267619D01*
X21856761Y-45267619D01*
X22542476Y-45267619D02*
X22085333Y-45267619D01*
X22313904Y-45267619D02*
X22313904Y-46267619D01*
X22237714Y-46124761D01*
X22161523Y-46029523D01*
X22085333Y-45981904D01*
X23037714Y-46267619D02*
X23113904Y-46267619D01*
X23190095Y-46220000D01*
X23228190Y-46172380D01*
X23266285Y-46077142D01*
X23304380Y-45886666D01*
X23304380Y-45648571D01*
X23266285Y-45458095D01*
X23228190Y-45362857D01*
X23190095Y-45315238D01*
X23113904Y-45267619D01*
X23037714Y-45267619D01*
X22961523Y-45315238D01*
X22923428Y-45362857D01*
X22885333Y-45458095D01*
X22847238Y-45648571D01*
X22847238Y-45886666D01*
X22885333Y-46077142D01*
X22923428Y-46172380D01*
X22961523Y-46220000D01*
X23037714Y-46267619D01*
X70040571Y-63333333D02*
X70421523Y-63333333D01*
X69964380Y-63047619D02*
X70231047Y-64047619D01*
X70497714Y-63047619D01*
X70688190Y-64047619D02*
X71183428Y-64047619D01*
X70916761Y-63666666D01*
X71031047Y-63666666D01*
X71107238Y-63619047D01*
X71145333Y-63571428D01*
X71183428Y-63476190D01*
X71183428Y-63238095D01*
X71145333Y-63142857D01*
X71107238Y-63095238D01*
X71031047Y-63047619D01*
X70802476Y-63047619D01*
X70726285Y-63095238D01*
X70688190Y-63142857D01*
X67500571Y-63333333D02*
X67881523Y-63333333D01*
X67424380Y-63047619D02*
X67691047Y-64047619D01*
X67957714Y-63047619D01*
X68186285Y-63952380D02*
X68224380Y-64000000D01*
X68300571Y-64047619D01*
X68491047Y-64047619D01*
X68567238Y-64000000D01*
X68605333Y-63952380D01*
X68643428Y-63857142D01*
X68643428Y-63761904D01*
X68605333Y-63619047D01*
X68148190Y-63047619D01*
X68643428Y-63047619D01*
X64960571Y-63333333D02*
X65341523Y-63333333D01*
X64884380Y-63047619D02*
X65151047Y-64047619D01*
X65417714Y-63047619D01*
X66103428Y-63047619D02*
X65646285Y-63047619D01*
X65874857Y-63047619D02*
X65874857Y-64047619D01*
X65798666Y-63904761D01*
X65722476Y-63809523D01*
X65646285Y-63761904D01*
X62420571Y-63333333D02*
X62801523Y-63333333D01*
X62344380Y-63047619D02*
X62611047Y-64047619D01*
X62877714Y-63047619D01*
X63296761Y-64047619D02*
X63372952Y-64047619D01*
X63449142Y-64000000D01*
X63487238Y-63952380D01*
X63525333Y-63857142D01*
X63563428Y-63666666D01*
X63563428Y-63428571D01*
X63525333Y-63238095D01*
X63487238Y-63142857D01*
X63449142Y-63095238D01*
X63372952Y-63047619D01*
X63296761Y-63047619D01*
X63220571Y-63095238D01*
X63182476Y-63142857D01*
X63144380Y-63238095D01*
X63106285Y-63428571D01*
X63106285Y-63666666D01*
X63144380Y-63857142D01*
X63182476Y-63952380D01*
X63220571Y-64000000D01*
X63296761Y-64047619D01*
X60013904Y-63047619D02*
X59747238Y-63523809D01*
X59556761Y-63047619D02*
X59556761Y-64047619D01*
X59861523Y-64047619D01*
X59937714Y-64000000D01*
X59975809Y-63952380D01*
X60013904Y-63857142D01*
X60013904Y-63714285D01*
X59975809Y-63619047D01*
X59937714Y-63571428D01*
X59861523Y-63523809D01*
X59556761Y-63523809D01*
X60318666Y-63095238D02*
X60432952Y-63047619D01*
X60623428Y-63047619D01*
X60699619Y-63095238D01*
X60737714Y-63142857D01*
X60775809Y-63238095D01*
X60775809Y-63333333D01*
X60737714Y-63428571D01*
X60699619Y-63476190D01*
X60623428Y-63523809D01*
X60471047Y-63571428D01*
X60394857Y-63619047D01*
X60356761Y-63666666D01*
X60318666Y-63761904D01*
X60318666Y-63857142D01*
X60356761Y-63952380D01*
X60394857Y-64000000D01*
X60471047Y-64047619D01*
X60661523Y-64047619D01*
X60775809Y-64000000D01*
X61004380Y-64047619D02*
X61461523Y-64047619D01*
X61232952Y-63047619D02*
X61232952Y-64047619D01*
X57397714Y-63142857D02*
X57359619Y-63095238D01*
X57245333Y-63047619D01*
X57169142Y-63047619D01*
X57054857Y-63095238D01*
X56978666Y-63190476D01*
X56940571Y-63285714D01*
X56902476Y-63476190D01*
X56902476Y-63619047D01*
X56940571Y-63809523D01*
X56978666Y-63904761D01*
X57054857Y-64000000D01*
X57169142Y-64047619D01*
X57245333Y-64047619D01*
X57359619Y-64000000D01*
X57397714Y-63952380D01*
X58159619Y-63047619D02*
X57702476Y-63047619D01*
X57931047Y-63047619D02*
X57931047Y-64047619D01*
X57854857Y-63904761D01*
X57778666Y-63809523D01*
X57702476Y-63761904D01*
X58883428Y-64047619D02*
X58502476Y-64047619D01*
X58464380Y-63571428D01*
X58502476Y-63619047D01*
X58578666Y-63666666D01*
X58769142Y-63666666D01*
X58845333Y-63619047D01*
X58883428Y-63571428D01*
X58921523Y-63476190D01*
X58921523Y-63238095D01*
X58883428Y-63142857D01*
X58845333Y-63095238D01*
X58769142Y-63047619D01*
X58578666Y-63047619D01*
X58502476Y-63095238D01*
X58464380Y-63142857D01*
X54857714Y-63142857D02*
X54819619Y-63095238D01*
X54705333Y-63047619D01*
X54629142Y-63047619D01*
X54514857Y-63095238D01*
X54438666Y-63190476D01*
X54400571Y-63285714D01*
X54362476Y-63476190D01*
X54362476Y-63619047D01*
X54400571Y-63809523D01*
X54438666Y-63904761D01*
X54514857Y-64000000D01*
X54629142Y-64047619D01*
X54705333Y-64047619D01*
X54819619Y-64000000D01*
X54857714Y-63952380D01*
X55619619Y-63047619D02*
X55162476Y-63047619D01*
X55391047Y-63047619D02*
X55391047Y-64047619D01*
X55314857Y-63904761D01*
X55238666Y-63809523D01*
X55162476Y-63761904D01*
X56305333Y-63714285D02*
X56305333Y-63047619D01*
X56114857Y-64095238D02*
X55924380Y-63380952D01*
X56419619Y-63380952D01*
X52317714Y-63142857D02*
X52279619Y-63095238D01*
X52165333Y-63047619D01*
X52089142Y-63047619D01*
X51974857Y-63095238D01*
X51898666Y-63190476D01*
X51860571Y-63285714D01*
X51822476Y-63476190D01*
X51822476Y-63619047D01*
X51860571Y-63809523D01*
X51898666Y-63904761D01*
X51974857Y-64000000D01*
X52089142Y-64047619D01*
X52165333Y-64047619D01*
X52279619Y-64000000D01*
X52317714Y-63952380D01*
X53079619Y-63047619D02*
X52622476Y-63047619D01*
X52851047Y-63047619D02*
X52851047Y-64047619D01*
X52774857Y-63904761D01*
X52698666Y-63809523D01*
X52622476Y-63761904D01*
X53346285Y-64047619D02*
X53841523Y-64047619D01*
X53574857Y-63666666D01*
X53689142Y-63666666D01*
X53765333Y-63619047D01*
X53803428Y-63571428D01*
X53841523Y-63476190D01*
X53841523Y-63238095D01*
X53803428Y-63142857D01*
X53765333Y-63095238D01*
X53689142Y-63047619D01*
X53460571Y-63047619D01*
X53384380Y-63095238D01*
X53346285Y-63142857D01*
X49968190Y-63571428D02*
X50082476Y-63523809D01*
X50120571Y-63476190D01*
X50158666Y-63380952D01*
X50158666Y-63238095D01*
X50120571Y-63142857D01*
X50082476Y-63095238D01*
X50006285Y-63047619D01*
X49701523Y-63047619D01*
X49701523Y-64047619D01*
X49968190Y-64047619D01*
X50044380Y-64000000D01*
X50082476Y-63952380D01*
X50120571Y-63857142D01*
X50120571Y-63761904D01*
X50082476Y-63666666D01*
X50044380Y-63619047D01*
X49968190Y-63571428D01*
X49701523Y-63571428D01*
X50539619Y-63047619D02*
X50692000Y-63047619D01*
X50768190Y-63095238D01*
X50806285Y-63142857D01*
X50882476Y-63285714D01*
X50920571Y-63476190D01*
X50920571Y-63857142D01*
X50882476Y-63952380D01*
X50844380Y-64000000D01*
X50768190Y-64047619D01*
X50615809Y-64047619D01*
X50539619Y-64000000D01*
X50501523Y-63952380D01*
X50463428Y-63857142D01*
X50463428Y-63619047D01*
X50501523Y-63523809D01*
X50539619Y-63476190D01*
X50615809Y-63428571D01*
X50768190Y-63428571D01*
X50844380Y-63476190D01*
X50882476Y-63523809D01*
X50920571Y-63619047D01*
X47428190Y-63571428D02*
X47542476Y-63523809D01*
X47580571Y-63476190D01*
X47618666Y-63380952D01*
X47618666Y-63238095D01*
X47580571Y-63142857D01*
X47542476Y-63095238D01*
X47466285Y-63047619D01*
X47161523Y-63047619D01*
X47161523Y-64047619D01*
X47428190Y-64047619D01*
X47504380Y-64000000D01*
X47542476Y-63952380D01*
X47580571Y-63857142D01*
X47580571Y-63761904D01*
X47542476Y-63666666D01*
X47504380Y-63619047D01*
X47428190Y-63571428D01*
X47161523Y-63571428D01*
X48075809Y-63619047D02*
X47999619Y-63666666D01*
X47961523Y-63714285D01*
X47923428Y-63809523D01*
X47923428Y-63857142D01*
X47961523Y-63952380D01*
X47999619Y-64000000D01*
X48075809Y-64047619D01*
X48228190Y-64047619D01*
X48304380Y-64000000D01*
X48342476Y-63952380D01*
X48380571Y-63857142D01*
X48380571Y-63809523D01*
X48342476Y-63714285D01*
X48304380Y-63666666D01*
X48228190Y-63619047D01*
X48075809Y-63619047D01*
X47999619Y-63571428D01*
X47961523Y-63523809D01*
X47923428Y-63428571D01*
X47923428Y-63238095D01*
X47961523Y-63142857D01*
X47999619Y-63095238D01*
X48075809Y-63047619D01*
X48228190Y-63047619D01*
X48304380Y-63095238D01*
X48342476Y-63142857D01*
X48380571Y-63238095D01*
X48380571Y-63428571D01*
X48342476Y-63523809D01*
X48304380Y-63571428D01*
X48228190Y-63619047D01*
X44888190Y-63571428D02*
X45002476Y-63523809D01*
X45040571Y-63476190D01*
X45078666Y-63380952D01*
X45078666Y-63238095D01*
X45040571Y-63142857D01*
X45002476Y-63095238D01*
X44926285Y-63047619D01*
X44621523Y-63047619D01*
X44621523Y-64047619D01*
X44888190Y-64047619D01*
X44964380Y-64000000D01*
X45002476Y-63952380D01*
X45040571Y-63857142D01*
X45040571Y-63761904D01*
X45002476Y-63666666D01*
X44964380Y-63619047D01*
X44888190Y-63571428D01*
X44621523Y-63571428D01*
X45345333Y-64047619D02*
X45878666Y-64047619D01*
X45535809Y-63047619D01*
X42348190Y-63571428D02*
X42462476Y-63523809D01*
X42500571Y-63476190D01*
X42538666Y-63380952D01*
X42538666Y-63238095D01*
X42500571Y-63142857D01*
X42462476Y-63095238D01*
X42386285Y-63047619D01*
X42081523Y-63047619D01*
X42081523Y-64047619D01*
X42348190Y-64047619D01*
X42424380Y-64000000D01*
X42462476Y-63952380D01*
X42500571Y-63857142D01*
X42500571Y-63761904D01*
X42462476Y-63666666D01*
X42424380Y-63619047D01*
X42348190Y-63571428D01*
X42081523Y-63571428D01*
X43224380Y-64047619D02*
X43072000Y-64047619D01*
X42995809Y-64000000D01*
X42957714Y-63952380D01*
X42881523Y-63809523D01*
X42843428Y-63619047D01*
X42843428Y-63238095D01*
X42881523Y-63142857D01*
X42919619Y-63095238D01*
X42995809Y-63047619D01*
X43148190Y-63047619D01*
X43224380Y-63095238D01*
X43262476Y-63142857D01*
X43300571Y-63238095D01*
X43300571Y-63476190D01*
X43262476Y-63571428D01*
X43224380Y-63619047D01*
X43148190Y-63666666D01*
X42995809Y-63666666D01*
X42919619Y-63619047D01*
X42881523Y-63571428D01*
X42843428Y-63476190D01*
X39808190Y-63571428D02*
X39922476Y-63523809D01*
X39960571Y-63476190D01*
X39998666Y-63380952D01*
X39998666Y-63238095D01*
X39960571Y-63142857D01*
X39922476Y-63095238D01*
X39846285Y-63047619D01*
X39541523Y-63047619D01*
X39541523Y-64047619D01*
X39808190Y-64047619D01*
X39884380Y-64000000D01*
X39922476Y-63952380D01*
X39960571Y-63857142D01*
X39960571Y-63761904D01*
X39922476Y-63666666D01*
X39884380Y-63619047D01*
X39808190Y-63571428D01*
X39541523Y-63571428D01*
X40722476Y-64047619D02*
X40341523Y-64047619D01*
X40303428Y-63571428D01*
X40341523Y-63619047D01*
X40417714Y-63666666D01*
X40608190Y-63666666D01*
X40684380Y-63619047D01*
X40722476Y-63571428D01*
X40760571Y-63476190D01*
X40760571Y-63238095D01*
X40722476Y-63142857D01*
X40684380Y-63095238D01*
X40608190Y-63047619D01*
X40417714Y-63047619D01*
X40341523Y-63095238D01*
X40303428Y-63142857D01*
X37268190Y-63571428D02*
X37382476Y-63523809D01*
X37420571Y-63476190D01*
X37458666Y-63380952D01*
X37458666Y-63238095D01*
X37420571Y-63142857D01*
X37382476Y-63095238D01*
X37306285Y-63047619D01*
X37001523Y-63047619D01*
X37001523Y-64047619D01*
X37268190Y-64047619D01*
X37344380Y-64000000D01*
X37382476Y-63952380D01*
X37420571Y-63857142D01*
X37420571Y-63761904D01*
X37382476Y-63666666D01*
X37344380Y-63619047D01*
X37268190Y-63571428D01*
X37001523Y-63571428D01*
X38144380Y-63714285D02*
X38144380Y-63047619D01*
X37953904Y-64095238D02*
X37763428Y-63380952D01*
X38258666Y-63380952D01*
X34728190Y-63571428D02*
X34842476Y-63523809D01*
X34880571Y-63476190D01*
X34918666Y-63380952D01*
X34918666Y-63238095D01*
X34880571Y-63142857D01*
X34842476Y-63095238D01*
X34766285Y-63047619D01*
X34461523Y-63047619D01*
X34461523Y-64047619D01*
X34728190Y-64047619D01*
X34804380Y-64000000D01*
X34842476Y-63952380D01*
X34880571Y-63857142D01*
X34880571Y-63761904D01*
X34842476Y-63666666D01*
X34804380Y-63619047D01*
X34728190Y-63571428D01*
X34461523Y-63571428D01*
X35185333Y-64047619D02*
X35680571Y-64047619D01*
X35413904Y-63666666D01*
X35528190Y-63666666D01*
X35604380Y-63619047D01*
X35642476Y-63571428D01*
X35680571Y-63476190D01*
X35680571Y-63238095D01*
X35642476Y-63142857D01*
X35604380Y-63095238D01*
X35528190Y-63047619D01*
X35299619Y-63047619D01*
X35223428Y-63095238D01*
X35185333Y-63142857D01*
X31559619Y-63333333D02*
X31940571Y-63333333D01*
X31483428Y-63047619D02*
X31750095Y-64047619D01*
X32016761Y-63047619D01*
X32702476Y-63047619D02*
X32245333Y-63047619D01*
X32473904Y-63047619D02*
X32473904Y-64047619D01*
X32397714Y-63904761D01*
X32321523Y-63809523D01*
X32245333Y-63761904D01*
X33426285Y-64047619D02*
X33045333Y-64047619D01*
X33007238Y-63571428D01*
X33045333Y-63619047D01*
X33121523Y-63666666D01*
X33311999Y-63666666D01*
X33388190Y-63619047D01*
X33426285Y-63571428D01*
X33464380Y-63476190D01*
X33464380Y-63238095D01*
X33426285Y-63142857D01*
X33388190Y-63095238D01*
X33311999Y-63047619D01*
X33121523Y-63047619D01*
X33045333Y-63095238D01*
X33007238Y-63142857D01*
X29019619Y-63333333D02*
X29400571Y-63333333D01*
X28943428Y-63047619D02*
X29210095Y-64047619D01*
X29476761Y-63047619D01*
X30162476Y-63047619D02*
X29705333Y-63047619D01*
X29933904Y-63047619D02*
X29933904Y-64047619D01*
X29857714Y-63904761D01*
X29781523Y-63809523D01*
X29705333Y-63761904D01*
X30848190Y-63714285D02*
X30848190Y-63047619D01*
X30657714Y-64095238D02*
X30467238Y-63380952D01*
X30962476Y-63380952D01*
X26479619Y-63333333D02*
X26860571Y-63333333D01*
X26403428Y-63047619D02*
X26670095Y-64047619D01*
X26936761Y-63047619D01*
X27622476Y-63047619D02*
X27165333Y-63047619D01*
X27393904Y-63047619D02*
X27393904Y-64047619D01*
X27317714Y-63904761D01*
X27241523Y-63809523D01*
X27165333Y-63761904D01*
X27889142Y-64047619D02*
X28384380Y-64047619D01*
X28117714Y-63666666D01*
X28231999Y-63666666D01*
X28308190Y-63619047D01*
X28346285Y-63571428D01*
X28384380Y-63476190D01*
X28384380Y-63238095D01*
X28346285Y-63142857D01*
X28308190Y-63095238D01*
X28231999Y-63047619D01*
X28003428Y-63047619D01*
X27927238Y-63095238D01*
X27889142Y-63142857D01*
X23939619Y-63333333D02*
X24320571Y-63333333D01*
X23863428Y-63047619D02*
X24130095Y-64047619D01*
X24396761Y-63047619D01*
X25082476Y-63047619D02*
X24625333Y-63047619D01*
X24853904Y-63047619D02*
X24853904Y-64047619D01*
X24777714Y-63904761D01*
X24701523Y-63809523D01*
X24625333Y-63761904D01*
X25387238Y-63952380D02*
X25425333Y-64000000D01*
X25501523Y-64047619D01*
X25691999Y-64047619D01*
X25768190Y-64000000D01*
X25806285Y-63952380D01*
X25844380Y-63857142D01*
X25844380Y-63761904D01*
X25806285Y-63619047D01*
X25349142Y-63047619D01*
X25844380Y-63047619D01*
X21399619Y-63333333D02*
X21780571Y-63333333D01*
X21323428Y-63047619D02*
X21590095Y-64047619D01*
X21856761Y-63047619D01*
X22542476Y-63047619D02*
X22085333Y-63047619D01*
X22313904Y-63047619D02*
X22313904Y-64047619D01*
X22237714Y-63904761D01*
X22161523Y-63809523D01*
X22085333Y-63761904D01*
X23304380Y-63047619D02*
X22847238Y-63047619D01*
X23075809Y-63047619D02*
X23075809Y-64047619D01*
X22999619Y-63904761D01*
X22923428Y-63809523D01*
X22847238Y-63761904D01*
D11*
X71857142Y-60317142D02*
X70285714Y-60317142D01*
X71857142Y-62317142D01*
X70285714Y-62317142D01*
X68000000Y-62174285D02*
X68285714Y-62317142D01*
X68857142Y-62317142D01*
X69142857Y-62174285D01*
X69285714Y-61888571D01*
X69285714Y-60745714D01*
X69142857Y-60460000D01*
X68857142Y-60317142D01*
X68285714Y-60317142D01*
X68000000Y-60460000D01*
X67857142Y-60745714D01*
X67857142Y-61031428D01*
X69285714Y-61317142D01*
X66571428Y-62317142D02*
X66571428Y-60317142D01*
X66571428Y-60888571D02*
X66428571Y-60602857D01*
X66285714Y-60460000D01*
X66000000Y-60317142D01*
X65714285Y-60317142D01*
X64142857Y-59317142D02*
X63857142Y-59317142D01*
X63571428Y-59460000D01*
X63428571Y-59602857D01*
X63285714Y-59888571D01*
X63142857Y-60460000D01*
X63142857Y-61174285D01*
X63285714Y-61745714D01*
X63428571Y-62031428D01*
X63571428Y-62174285D01*
X63857142Y-62317142D01*
X64142857Y-62317142D01*
X64428571Y-62174285D01*
X64571428Y-62031428D01*
X64714285Y-61745714D01*
X64857142Y-61174285D01*
X64857142Y-60460000D01*
X64714285Y-59888571D01*
X64571428Y-59602857D01*
X64428571Y-59460000D01*
X64142857Y-59317142D01*
X62000000Y-62174285D02*
X61714285Y-62317142D01*
X61142857Y-62317142D01*
X60857142Y-62174285D01*
X60714285Y-61888571D01*
X60714285Y-61745714D01*
X60857142Y-61460000D01*
X61142857Y-61317142D01*
X61571428Y-61317142D01*
X61857142Y-61174285D01*
X62000000Y-60888571D01*
X62000000Y-60745714D01*
X61857142Y-60460000D01*
X61571428Y-60317142D01*
X61142857Y-60317142D01*
X60857142Y-60460000D01*
X58142857Y-60317142D02*
X58142857Y-62317142D01*
X59428571Y-60317142D02*
X59428571Y-61888571D01*
X59285714Y-62174285D01*
X59000000Y-62317142D01*
X58571428Y-62317142D01*
X58285714Y-62174285D01*
X58142857Y-62031428D01*
X56714285Y-60317142D02*
X56714285Y-62317142D01*
X56714285Y-60602857D02*
X56571428Y-60460000D01*
X56285714Y-60317142D01*
X55857142Y-60317142D01*
X55571428Y-60460000D01*
X55428571Y-60745714D01*
X55428571Y-62317142D01*
M02*
